G04 #@! TF.FileFunction,Profile,NP*
%FSLAX46Y46*%
G04 Gerber Fmt 4.6, Leading zero omitted, Abs format (unit mm)*
G04 Created by KiCad (PCBNEW 4.0.4-stable) date Tue Apr 25 21:09:13 2017*
%MOMM*%
%LPD*%
G01*
G04 APERTURE LIST*
%ADD10C,0.100000*%
%ADD11C,0.150000*%
G04 APERTURE END LIST*
D10*
D11*
X203200000Y-69342000D02*
X203200000Y-142240000D01*
X198628000Y-46355000D02*
X169418000Y-46355000D01*
X198628000Y-69342000D02*
X198628000Y-46355000D01*
X198755000Y-69342000D02*
X198628000Y-69342000D01*
X203200000Y-69342000D02*
X198755000Y-69342000D01*
X113030000Y-84150200D02*
X113030000Y-46355000D01*
X132715000Y-89865200D02*
X130810000Y-89865200D01*
X114935000Y-104444800D02*
X114935000Y-84150200D01*
X113030000Y-104444800D02*
X114935000Y-104444800D01*
X113030000Y-142240000D02*
X113030000Y-104444800D01*
X169418000Y-49276000D02*
X169418000Y-46355000D01*
X168910000Y-49276000D02*
X169418000Y-49276000D01*
X149098000Y-49276000D02*
X168910000Y-49276000D01*
X149098000Y-46355000D02*
X149098000Y-49276000D01*
X113030000Y-46355000D02*
X149098000Y-46355000D01*
X169418000Y-142240000D02*
X203200000Y-142240000D01*
X149098000Y-142240000D02*
X113030000Y-142240000D01*
X169418000Y-139319000D02*
X169418000Y-142240000D01*
X149098000Y-139319000D02*
X169418000Y-139319000D01*
X149098000Y-142240000D02*
X149098000Y-139319000D01*
M02*
