G04 #@! TF.FileFunction,Copper,L1,Top,Signal*
%FSLAX46Y46*%
G04 Gerber Fmt 4.6, Leading zero omitted, Abs format (unit mm)*
G04 Created by KiCad (PCBNEW 4.0.4-stable) date Tue Apr 25 21:09:12 2017*
%MOMM*%
%LPD*%
G01*
G04 APERTURE LIST*
%ADD10C,0.100000*%
%ADD11R,0.250000X1.000000*%
%ADD12R,1.000000X0.250000*%
%ADD13R,1.500000X1.300000*%
%ADD14R,1.250000X1.500000*%
%ADD15R,1.500000X0.600000*%
%ADD16R,1.600000X0.800000*%
%ADD17R,1.550000X0.600000*%
%ADD18R,1.900000X1.300000*%
%ADD19R,1.500000X1.250000*%
%ADD20R,1.198880X2.598420*%
%ADD21R,1.198880X2.600960*%
%ADD22R,2.598420X1.198880*%
%ADD23R,2.600960X1.198880*%
%ADD24R,1.300000X1.500000*%
%ADD25R,0.800100X1.800860*%
%ADD26R,1.800000X1.800000*%
%ADD27R,1.300000X1.900000*%
%ADD28C,6.350000*%
%ADD29C,5.588000*%
%ADD30R,1.727200X1.727200*%
%ADD31O,1.727200X1.727200*%
%ADD32C,0.558800*%
%ADD33C,0.355600*%
%ADD34C,0.177800*%
%ADD35C,0.279400*%
G04 APERTURE END LIST*
D10*
D11*
X167700000Y-100950000D03*
X168200000Y-100950000D03*
X168700000Y-100950000D03*
X169200000Y-100950000D03*
X169700000Y-100950000D03*
X170200000Y-100950000D03*
X170700000Y-100950000D03*
X171200000Y-100950000D03*
X171700000Y-100950000D03*
X172200000Y-100950000D03*
X172700000Y-100950000D03*
X173200000Y-100950000D03*
X173700000Y-100950000D03*
X174200000Y-100950000D03*
X174700000Y-100950000D03*
X175200000Y-100950000D03*
D12*
X177150000Y-99000000D03*
X177150000Y-98500000D03*
X177150000Y-98000000D03*
X177150000Y-97500000D03*
X177150000Y-97000000D03*
X177150000Y-96500000D03*
X177150000Y-96000000D03*
X177150000Y-95500000D03*
X177150000Y-95000000D03*
X177150000Y-94500000D03*
X177150000Y-94000000D03*
X177150000Y-93500000D03*
X177150000Y-93000000D03*
X177150000Y-92500000D03*
X177150000Y-92000000D03*
X177150000Y-91500000D03*
D11*
X175200000Y-89550000D03*
X174700000Y-89550000D03*
X174200000Y-89550000D03*
X173700000Y-89550000D03*
X173200000Y-89550000D03*
X172700000Y-89550000D03*
X172200000Y-89550000D03*
X171700000Y-89550000D03*
X171200000Y-89550000D03*
X170700000Y-89550000D03*
X170200000Y-89550000D03*
X169700000Y-89550000D03*
X169200000Y-89550000D03*
X168700000Y-89550000D03*
X168200000Y-89550000D03*
X167700000Y-89550000D03*
D12*
X165750000Y-91500000D03*
X165750000Y-92000000D03*
X165750000Y-92500000D03*
X165750000Y-93000000D03*
X165750000Y-93500000D03*
X165750000Y-94000000D03*
X165750000Y-94500000D03*
X165750000Y-95000000D03*
X165750000Y-95500000D03*
X165750000Y-96000000D03*
X165750000Y-96500000D03*
X165750000Y-97000000D03*
X165750000Y-97500000D03*
X165750000Y-98000000D03*
X165750000Y-98500000D03*
X165750000Y-99000000D03*
X140350000Y-90230000D03*
X140350000Y-90730000D03*
X140350000Y-91230000D03*
X140350000Y-91730000D03*
X140350000Y-92230000D03*
X140350000Y-92730000D03*
X140350000Y-93230000D03*
X140350000Y-93730000D03*
X140350000Y-94230000D03*
X140350000Y-94730000D03*
X140350000Y-95230000D03*
X140350000Y-95730000D03*
X140350000Y-96230000D03*
X140350000Y-96730000D03*
X140350000Y-97230000D03*
X140350000Y-97730000D03*
D11*
X142300000Y-99680000D03*
X142800000Y-99680000D03*
X143300000Y-99680000D03*
X143800000Y-99680000D03*
X144300000Y-99680000D03*
X144800000Y-99680000D03*
X145300000Y-99680000D03*
X145800000Y-99680000D03*
X146300000Y-99680000D03*
X146800000Y-99680000D03*
X147300000Y-99680000D03*
X147800000Y-99680000D03*
X148300000Y-99680000D03*
X148800000Y-99680000D03*
X149300000Y-99680000D03*
X149800000Y-99680000D03*
D12*
X151750000Y-97730000D03*
X151750000Y-97230000D03*
X151750000Y-96730000D03*
X151750000Y-96230000D03*
X151750000Y-95730000D03*
X151750000Y-95230000D03*
X151750000Y-94730000D03*
X151750000Y-94230000D03*
X151750000Y-93730000D03*
X151750000Y-93230000D03*
X151750000Y-92730000D03*
X151750000Y-92230000D03*
X151750000Y-91730000D03*
X151750000Y-91230000D03*
X151750000Y-90730000D03*
X151750000Y-90230000D03*
D11*
X149800000Y-88280000D03*
X149300000Y-88280000D03*
X148800000Y-88280000D03*
X148300000Y-88280000D03*
X147800000Y-88280000D03*
X147300000Y-88280000D03*
X146800000Y-88280000D03*
X146300000Y-88280000D03*
X145800000Y-88280000D03*
X145300000Y-88280000D03*
X144800000Y-88280000D03*
X144300000Y-88280000D03*
X143800000Y-88280000D03*
X143300000Y-88280000D03*
X142800000Y-88280000D03*
X142300000Y-88280000D03*
D13*
X186610000Y-73660000D03*
X189310000Y-73660000D03*
D14*
X128270000Y-96500000D03*
X128270000Y-94000000D03*
D15*
X162400000Y-116840000D03*
X162400000Y-118110000D03*
X162400000Y-119380000D03*
X162400000Y-120650000D03*
X162400000Y-121920000D03*
X162400000Y-123190000D03*
X162400000Y-124460000D03*
X167800000Y-124460000D03*
X167800000Y-123190000D03*
X167800000Y-121920000D03*
X167800000Y-120650000D03*
X167800000Y-119380000D03*
X167800000Y-118110000D03*
X167800000Y-116840000D03*
D16*
X189865000Y-138430000D03*
D17*
X187800000Y-130175000D03*
X187800000Y-131445000D03*
X187800000Y-132715000D03*
X187800000Y-133985000D03*
X193200000Y-133985000D03*
X193200000Y-132715000D03*
X193200000Y-131445000D03*
X193200000Y-130175000D03*
X175100000Y-130175000D03*
X175100000Y-131445000D03*
X175100000Y-132715000D03*
X175100000Y-133985000D03*
X180500000Y-133985000D03*
X180500000Y-132715000D03*
X180500000Y-131445000D03*
X180500000Y-130175000D03*
D18*
X136497000Y-84372000D03*
X132997000Y-84372000D03*
X136497000Y-89872000D03*
X132997000Y-89872000D03*
D19*
X172700000Y-128270000D03*
X170200000Y-128270000D03*
D14*
X139700000Y-85110000D03*
X139700000Y-87610000D03*
D19*
X141879000Y-102870000D03*
X144379000Y-102870000D03*
X149840000Y-102870000D03*
X147340000Y-102870000D03*
X154920000Y-102870000D03*
X152420000Y-102870000D03*
D14*
X154940000Y-92690000D03*
X154940000Y-90190000D03*
X130302000Y-85705000D03*
X130302000Y-83205000D03*
X130302000Y-88285000D03*
X130302000Y-90785000D03*
D19*
X144760000Y-85090000D03*
X142260000Y-85090000D03*
D14*
X136906000Y-96500000D03*
X136906000Y-94000000D03*
X187960000Y-85050000D03*
X187960000Y-82550000D03*
X195580000Y-85050000D03*
X195580000Y-82550000D03*
D19*
X162580000Y-101600000D03*
X165080000Y-101600000D03*
D14*
X181610000Y-101580000D03*
X181610000Y-99080000D03*
X181610000Y-87015000D03*
X181610000Y-89515000D03*
X181610000Y-96480000D03*
X181610000Y-93980000D03*
D19*
X170140000Y-86360000D03*
X167640000Y-86360000D03*
X165842000Y-110617000D03*
X163342000Y-110617000D03*
X168422000Y-110617000D03*
X170922000Y-110617000D03*
D14*
X162560000Y-96560000D03*
X162560000Y-99060000D03*
D19*
X176256000Y-112649000D03*
X173756000Y-112649000D03*
X176256000Y-104140000D03*
X173756000Y-104140000D03*
X160000000Y-128270000D03*
X157500000Y-128270000D03*
X185400000Y-128270000D03*
X182900000Y-128270000D03*
X198100000Y-128270000D03*
X195600000Y-128270000D03*
D20*
X139065000Y-100568760D03*
D21*
X139065000Y-105171240D03*
D22*
X179308760Y-104140000D03*
D23*
X183911240Y-104140000D03*
D24*
X176530000Y-80090000D03*
X176530000Y-77390000D03*
D13*
X144860000Y-107950000D03*
X142160000Y-107950000D03*
D24*
X168910000Y-80090000D03*
X168910000Y-77390000D03*
X165100000Y-80090000D03*
X165100000Y-77390000D03*
X161290000Y-86520000D03*
X161290000Y-83820000D03*
X157480000Y-86520000D03*
X157480000Y-83820000D03*
X157480000Y-80090000D03*
X157480000Y-77390000D03*
X153670000Y-80010000D03*
X153670000Y-77310000D03*
X149860000Y-80010000D03*
X149860000Y-77310000D03*
D13*
X125650000Y-134620000D03*
X128350000Y-134620000D03*
X133137137Y-130758947D03*
X135837137Y-130758947D03*
X133057137Y-134568947D03*
X135757137Y-134568947D03*
X140757137Y-130758947D03*
X143457137Y-130758947D03*
X140677137Y-134568947D03*
X143377137Y-134568947D03*
X125650000Y-130810000D03*
X128350000Y-130810000D03*
D24*
X161290000Y-80090000D03*
X161290000Y-77390000D03*
D13*
X186610000Y-66040000D03*
X189310000Y-66040000D03*
D24*
X158750000Y-69770000D03*
X158750000Y-72470000D03*
D13*
X161210000Y-74930000D03*
X163910000Y-74930000D03*
D24*
X171450000Y-69770000D03*
X171450000Y-72470000D03*
D13*
X163750000Y-63500000D03*
X166450000Y-63500000D03*
X179150000Y-63500000D03*
X176450000Y-63500000D03*
D16*
X194310000Y-114300000D03*
X196850000Y-114300000D03*
X199390000Y-114300000D03*
X196850000Y-87630000D03*
X133350000Y-110490000D03*
X133350000Y-113030000D03*
X172085000Y-138430000D03*
X174625000Y-138430000D03*
X184785000Y-138430000D03*
X179705000Y-138430000D03*
X182245000Y-138430000D03*
X177165000Y-138430000D03*
X187325000Y-138430000D03*
X192532000Y-138430000D03*
D25*
X190820000Y-85090000D03*
X192720000Y-85090000D03*
X191770000Y-82087720D03*
D15*
X187800000Y-116840000D03*
X187800000Y-118110000D03*
X187800000Y-119380000D03*
X187800000Y-120650000D03*
X187800000Y-121920000D03*
X187800000Y-123190000D03*
X187800000Y-124460000D03*
X193200000Y-124460000D03*
X193200000Y-123190000D03*
X193200000Y-121920000D03*
X193200000Y-120650000D03*
X193200000Y-119380000D03*
X193200000Y-118110000D03*
X193200000Y-116840000D03*
X137000000Y-66040000D03*
X137000000Y-67310000D03*
X137000000Y-68580000D03*
X137000000Y-69850000D03*
X137000000Y-71120000D03*
X137000000Y-72390000D03*
X137000000Y-73660000D03*
X142400000Y-73660000D03*
X142400000Y-72390000D03*
X142400000Y-71120000D03*
X142400000Y-69850000D03*
X142400000Y-68580000D03*
X142400000Y-67310000D03*
X142400000Y-66040000D03*
D17*
X149700000Y-130175000D03*
X149700000Y-131445000D03*
X149700000Y-132715000D03*
X149700000Y-133985000D03*
X155100000Y-133985000D03*
X155100000Y-132715000D03*
X155100000Y-131445000D03*
X155100000Y-130175000D03*
X162400000Y-130175000D03*
X162400000Y-131445000D03*
X162400000Y-132715000D03*
X162400000Y-133985000D03*
X167800000Y-133985000D03*
X167800000Y-132715000D03*
X167800000Y-131445000D03*
X167800000Y-130175000D03*
D15*
X149700000Y-66040000D03*
X149700000Y-67310000D03*
X149700000Y-68580000D03*
X149700000Y-69850000D03*
X149700000Y-71120000D03*
X149700000Y-72390000D03*
X149700000Y-73660000D03*
X155100000Y-73660000D03*
X155100000Y-72390000D03*
X155100000Y-71120000D03*
X155100000Y-69850000D03*
X155100000Y-68580000D03*
X155100000Y-67310000D03*
X155100000Y-66040000D03*
X149700000Y-116840000D03*
X149700000Y-118110000D03*
X149700000Y-119380000D03*
X149700000Y-120650000D03*
X149700000Y-121920000D03*
X149700000Y-123190000D03*
X149700000Y-124460000D03*
X155100000Y-124460000D03*
X155100000Y-123190000D03*
X155100000Y-121920000D03*
X155100000Y-120650000D03*
X155100000Y-119380000D03*
X155100000Y-118110000D03*
X155100000Y-116840000D03*
X124300000Y-116840000D03*
X124300000Y-118110000D03*
X124300000Y-119380000D03*
X124300000Y-120650000D03*
X124300000Y-121920000D03*
X124300000Y-123190000D03*
X124300000Y-124460000D03*
X129700000Y-124460000D03*
X129700000Y-123190000D03*
X129700000Y-121920000D03*
X129700000Y-120650000D03*
X129700000Y-119380000D03*
X129700000Y-118110000D03*
X129700000Y-116840000D03*
D17*
X162400000Y-67945000D03*
X162400000Y-69215000D03*
X162400000Y-70485000D03*
X162400000Y-71755000D03*
X167800000Y-71755000D03*
X167800000Y-70485000D03*
X167800000Y-69215000D03*
X167800000Y-67945000D03*
X175100000Y-67945000D03*
X175100000Y-69215000D03*
X175100000Y-70485000D03*
X175100000Y-71755000D03*
X180500000Y-71755000D03*
X180500000Y-70485000D03*
X180500000Y-69215000D03*
X180500000Y-67945000D03*
D15*
X175100000Y-116840000D03*
X175100000Y-118110000D03*
X175100000Y-119380000D03*
X175100000Y-120650000D03*
X175100000Y-121920000D03*
X175100000Y-123190000D03*
X175100000Y-124460000D03*
X180500000Y-124460000D03*
X180500000Y-123190000D03*
X180500000Y-121920000D03*
X180500000Y-120650000D03*
X180500000Y-119380000D03*
X180500000Y-118110000D03*
X180500000Y-116840000D03*
X136840000Y-116840000D03*
X136840000Y-118110000D03*
X136840000Y-119380000D03*
X136840000Y-120650000D03*
X136840000Y-121920000D03*
X136840000Y-123190000D03*
X136840000Y-124460000D03*
X142240000Y-124460000D03*
X142240000Y-123190000D03*
X142240000Y-121920000D03*
X142240000Y-120650000D03*
X142240000Y-119380000D03*
X142240000Y-118110000D03*
X142240000Y-116840000D03*
D26*
X134465000Y-94233000D03*
X130965000Y-94233000D03*
X134465000Y-103633000D03*
X130965000Y-103633000D03*
D27*
X164172000Y-104267000D03*
X164172000Y-107767000D03*
X169672000Y-104267000D03*
X169672000Y-107767000D03*
D26*
X174497000Y-106581000D03*
X174497000Y-110081000D03*
X183897000Y-106581000D03*
X183897000Y-110081000D03*
D28*
X118110000Y-137160000D03*
X198120000Y-137160000D03*
D29*
X195580000Y-51435000D03*
D28*
X121920000Y-51435000D03*
D30*
X127000000Y-56515000D03*
D31*
X127000000Y-59055000D03*
X129540000Y-56515000D03*
X129540000Y-59055000D03*
X132080000Y-56515000D03*
X132080000Y-59055000D03*
X134620000Y-56515000D03*
X134620000Y-59055000D03*
X137160000Y-56515000D03*
X137160000Y-59055000D03*
X139700000Y-56515000D03*
X139700000Y-59055000D03*
X142240000Y-56515000D03*
X142240000Y-59055000D03*
X144780000Y-56515000D03*
X144780000Y-59055000D03*
X147320000Y-56515000D03*
X147320000Y-59055000D03*
X149860000Y-56515000D03*
X149860000Y-59055000D03*
X152400000Y-56515000D03*
X152400000Y-59055000D03*
X154940000Y-56515000D03*
X154940000Y-59055000D03*
X157480000Y-56515000D03*
X157480000Y-59055000D03*
X160020000Y-56515000D03*
X160020000Y-59055000D03*
X162560000Y-56515000D03*
X162560000Y-59055000D03*
X165100000Y-56515000D03*
X165100000Y-59055000D03*
X167640000Y-56515000D03*
X167640000Y-59055000D03*
X170180000Y-56515000D03*
X170180000Y-59055000D03*
X172720000Y-56515000D03*
X172720000Y-59055000D03*
X175260000Y-56515000D03*
X175260000Y-59055000D03*
X177800000Y-56515000D03*
X177800000Y-59055000D03*
X180340000Y-56515000D03*
X180340000Y-59055000D03*
X182880000Y-56515000D03*
X182880000Y-59055000D03*
X185420000Y-56515000D03*
X185420000Y-59055000D03*
X187960000Y-56515000D03*
X187960000Y-59055000D03*
X190500000Y-56515000D03*
X190500000Y-59055000D03*
D30*
X127000000Y-51435000D03*
D31*
X127000000Y-53975000D03*
X129540000Y-51435000D03*
X129540000Y-53975000D03*
X132080000Y-51435000D03*
X132080000Y-53975000D03*
X134620000Y-51435000D03*
X134620000Y-53975000D03*
X137160000Y-51435000D03*
X137160000Y-53975000D03*
X139700000Y-51435000D03*
X139700000Y-53975000D03*
X142240000Y-51435000D03*
X142240000Y-53975000D03*
X144780000Y-51435000D03*
X144780000Y-53975000D03*
X147320000Y-51435000D03*
X147320000Y-53975000D03*
X149860000Y-51435000D03*
X149860000Y-53975000D03*
X152400000Y-51435000D03*
X152400000Y-53975000D03*
X154940000Y-51435000D03*
X154940000Y-53975000D03*
X157480000Y-51435000D03*
X157480000Y-53975000D03*
X160020000Y-51435000D03*
X160020000Y-53975000D03*
X162560000Y-51435000D03*
X162560000Y-53975000D03*
X165100000Y-51435000D03*
X165100000Y-53975000D03*
X167640000Y-51435000D03*
X167640000Y-53975000D03*
X170180000Y-51435000D03*
X170180000Y-53975000D03*
X172720000Y-51435000D03*
X172720000Y-53975000D03*
X175260000Y-51435000D03*
X175260000Y-53975000D03*
X177800000Y-51435000D03*
X177800000Y-53975000D03*
X180340000Y-51435000D03*
X180340000Y-53975000D03*
X182880000Y-51435000D03*
X182880000Y-53975000D03*
X185420000Y-51435000D03*
X185420000Y-53975000D03*
X187960000Y-51435000D03*
X187960000Y-53975000D03*
X190500000Y-51435000D03*
X190500000Y-53975000D03*
D30*
X187960000Y-92710000D03*
D31*
X190500000Y-92710000D03*
X187960000Y-95250000D03*
X190500000Y-95250000D03*
X187960000Y-97790000D03*
X190500000Y-97790000D03*
X187960000Y-100330000D03*
X190500000Y-100330000D03*
X187960000Y-102870000D03*
X190500000Y-102870000D03*
X187960000Y-105410000D03*
X190500000Y-105410000D03*
X187960000Y-107950000D03*
X190500000Y-107950000D03*
X187960000Y-110490000D03*
X190500000Y-110490000D03*
D19*
X160020000Y-91440000D03*
X157520000Y-91440000D03*
X157520000Y-93980000D03*
X160020000Y-93980000D03*
X191770000Y-114300000D03*
X189270000Y-114300000D03*
D14*
X121920000Y-121960000D03*
X121920000Y-124460000D03*
D19*
X167660000Y-66040000D03*
X170160000Y-66040000D03*
X175220000Y-66040000D03*
X172720000Y-66040000D03*
D14*
X133350000Y-120650000D03*
X133350000Y-123150000D03*
D13*
X196690000Y-124460000D03*
X199390000Y-124460000D03*
X196770000Y-121920000D03*
X199470000Y-121920000D03*
X196770000Y-119380000D03*
X199470000Y-119380000D03*
X196770000Y-116840000D03*
X199470000Y-116840000D03*
X130650000Y-80010000D03*
X133350000Y-80010000D03*
X130650000Y-76200000D03*
X133350000Y-76200000D03*
D19*
X140930000Y-63500000D03*
X138430000Y-63500000D03*
X132120000Y-63500000D03*
X134620000Y-63500000D03*
D32*
X141922500Y-103886000D03*
X149669500Y-103822500D03*
X154940000Y-101727000D03*
X161417000Y-100584000D03*
X161566699Y-97678301D03*
X148358250Y-120650000D03*
X148358250Y-124457012D03*
X173823068Y-124455134D03*
X161036000Y-133985000D03*
X157173028Y-76231623D03*
X176225200Y-91988065D03*
D33*
X176377921Y-98492437D03*
D32*
X191770000Y-80721320D03*
X195486259Y-81373741D03*
X149694932Y-66040000D03*
X156324290Y-71206066D03*
X173749501Y-71768501D03*
X171450000Y-86360000D03*
X187960000Y-81280000D03*
X135636000Y-73660000D03*
X135636000Y-66040000D03*
X135636000Y-69850000D03*
X143764000Y-71120000D03*
X148336000Y-69850000D03*
X161036000Y-71755000D03*
X153670000Y-75946000D03*
X149860000Y-75946000D03*
X148336000Y-73660000D03*
X186309000Y-133985000D03*
X173736000Y-133985000D03*
X148209000Y-133985000D03*
X161290000Y-128270000D03*
X173990000Y-128270000D03*
X199390000Y-128270000D03*
X186690000Y-128270000D03*
X186436000Y-124460000D03*
X161036000Y-124460000D03*
X135382000Y-124460000D03*
X122936000Y-124460000D03*
X167132000Y-110617000D03*
X182689500Y-93980000D03*
X178435000Y-90995500D03*
X178308000Y-98044000D03*
X179959000Y-98806000D03*
D33*
X182511349Y-82776553D03*
X152908000Y-91567000D03*
X182200164Y-81899125D03*
X154948135Y-88709510D03*
X181518591Y-81178991D03*
X155024600Y-87660943D03*
X154449549Y-95948510D03*
X181825899Y-79393540D03*
X154434031Y-95118664D03*
X180936888Y-79502000D03*
X163423966Y-83993948D03*
X142240000Y-91440000D03*
X157480000Y-90678000D03*
X187261500Y-112204500D03*
X170307000Y-80708500D03*
X180911500Y-78422500D03*
X176927251Y-83989757D03*
X182393567Y-83296799D03*
X176352317Y-82800188D03*
X181165510Y-82045473D03*
X176845956Y-82389523D03*
X181709074Y-82109395D03*
X175347392Y-86436211D03*
X182369519Y-79311490D03*
X175905178Y-84543881D03*
X182509373Y-80522007D03*
X176276000Y-102870000D03*
X180207640Y-102870000D03*
X191396732Y-109354732D03*
X195580000Y-115062000D03*
X195580000Y-120650000D03*
X167132000Y-92202000D03*
X162003954Y-91826052D03*
X163068000Y-83566000D03*
X159766000Y-90233500D03*
X147066000Y-70231000D03*
X151897365Y-89292189D03*
X163203542Y-90289047D03*
X170180000Y-90551000D03*
X163242610Y-89715967D03*
X170688000Y-88392000D03*
X158623000Y-88201490D03*
X157373998Y-88170253D03*
X183092927Y-114512927D03*
X183937073Y-115357073D03*
X178435000Y-132715000D03*
X182245000Y-132715000D03*
X177038000Y-135128000D03*
X176530000Y-132715000D03*
X129540000Y-134620000D03*
X130556000Y-136461500D03*
X146748500Y-132715000D03*
X148336000Y-132715000D03*
X151066500Y-132715000D03*
X156400500Y-132651500D03*
X135001000Y-127254000D03*
X134048500Y-127254000D03*
X148158230Y-129414891D03*
X146427402Y-129419317D03*
X160401000Y-122999500D03*
X169291000Y-121221500D03*
X148682067Y-129187567D03*
X146380159Y-128759446D03*
X172847000Y-125222000D03*
X167767000Y-127698500D03*
X155575000Y-129032000D03*
X156591000Y-130048000D03*
X180911500Y-125666500D03*
X180911500Y-127000000D03*
X144780000Y-129794000D03*
X144780000Y-128270000D03*
X143383000Y-135699500D03*
X144272000Y-136334500D03*
X170878500Y-137604500D03*
X182435500Y-137604500D03*
X186309000Y-135191500D03*
X186372500Y-130175000D03*
X180500000Y-120650000D03*
X187960000Y-127635000D03*
X186626500Y-120650000D03*
X173799500Y-118745000D03*
X166433500Y-121602500D03*
X161099500Y-118110000D03*
X156210000Y-121920000D03*
X156210000Y-118110000D03*
X151193500Y-117157500D03*
X153352500Y-117221000D03*
X133731000Y-114744500D03*
X133540500Y-116776500D03*
X129984500Y-115125500D03*
X127952500Y-116967000D03*
X125666500Y-121031000D03*
X126682500Y-120269000D03*
X152527000Y-110490000D03*
X158496000Y-68072000D03*
X163766500Y-71056500D03*
X142582879Y-110943726D03*
X144081511Y-110490000D03*
X128524000Y-118046500D03*
X128587500Y-115760500D03*
X146875500Y-110490000D03*
X148653500Y-110490000D03*
X157289500Y-116586000D03*
X133159500Y-69342000D03*
X133921500Y-70040500D03*
X140081000Y-72453500D03*
X176332204Y-71642249D03*
X176276000Y-69215000D03*
X141282323Y-128131457D03*
X149108064Y-129508587D03*
X178980499Y-130878299D03*
X177863500Y-135128000D03*
X134048500Y-127825500D03*
X135001000Y-127825500D03*
X127325748Y-122436248D03*
X126682500Y-121793000D03*
X138176000Y-72390000D03*
X139319000Y-93218000D03*
X140705261Y-74144076D03*
X141618566Y-93004700D03*
X141244491Y-114744490D03*
X139526389Y-117284510D03*
X138176000Y-121920000D03*
X141795500Y-114744500D03*
X152781000Y-88773000D03*
X146939000Y-114300000D03*
X151765000Y-100584000D03*
X148209000Y-115316000D03*
X147574000Y-122682000D03*
X152031711Y-101601049D03*
X153670000Y-123190000D03*
X146304000Y-89916010D03*
X125730000Y-121920000D03*
X145669000Y-89916010D03*
X125476000Y-118110000D03*
X145593651Y-90805021D03*
X140843000Y-123190000D03*
X162186333Y-91324798D03*
X156348205Y-88523839D03*
X159852300Y-89090510D03*
X166814500Y-91198711D03*
X147510500Y-72390000D03*
X151130000Y-82994500D03*
X155194000Y-80645000D03*
X155956000Y-82042000D03*
X157035500Y-88582500D03*
X159131000Y-88646000D03*
X162496500Y-90868500D03*
X167322500Y-90932000D03*
X180352732Y-76073000D03*
X156931695Y-73592677D03*
X179997283Y-75552343D03*
X153225510Y-68702854D03*
X193191421Y-55291856D03*
X176402951Y-99751249D03*
X176530000Y-118046500D03*
X176782645Y-121042129D03*
X175577500Y-99377500D03*
X151511000Y-66992500D03*
X159702500Y-81407000D03*
X164973000Y-84709000D03*
X177101500Y-86169500D03*
X179006500Y-119380000D03*
X174942500Y-99441000D03*
X174542689Y-91084179D03*
X163512490Y-118110000D03*
X174200000Y-91906553D03*
X163957000Y-119634000D03*
X164465000Y-118110000D03*
X173736000Y-93091000D03*
X150876000Y-61468000D03*
X164401510Y-120713480D03*
X171513500Y-93218000D03*
X132841990Y-115528122D03*
X146878181Y-113753905D03*
X167214056Y-96859251D03*
X131699000Y-116776500D03*
X148653500Y-113855500D03*
X162560000Y-115316000D03*
X132270500Y-116840000D03*
X133286500Y-115125500D03*
X146875500Y-113220500D03*
X148971000Y-113411000D03*
X162052000Y-114871500D03*
X166687500Y-96774000D03*
X165544500Y-121157990D03*
X164592000Y-97218500D03*
X140716000Y-72136000D03*
X155384500Y-94964033D03*
X140970000Y-73152000D03*
X153289000Y-67564000D03*
X146217700Y-69328434D03*
X146653884Y-69635470D03*
X149606000Y-60579000D03*
X146177000Y-68707000D03*
D34*
X176256000Y-104140000D02*
X177292000Y-104140000D01*
X177292000Y-104140000D02*
X177546000Y-103886000D01*
X177546000Y-103886000D02*
X177546000Y-102870000D01*
X177546000Y-102870000D02*
X176974500Y-102298500D01*
X176974500Y-102298500D02*
X173609000Y-102298500D01*
X173609000Y-102298500D02*
X173200000Y-101889500D01*
X173200000Y-101889500D02*
X173200000Y-100950000D01*
D35*
X170160000Y-66040000D02*
X172720000Y-66040000D01*
X121920000Y-124460000D02*
X122936000Y-124460000D01*
D34*
X141922500Y-103886000D02*
X141922500Y-102913500D01*
X141922500Y-102913500D02*
X141879000Y-102870000D01*
X149840000Y-102870000D02*
X149840000Y-103652000D01*
X149840000Y-103652000D02*
X149669500Y-103822500D01*
X154940000Y-101727000D02*
X154940000Y-102850000D01*
X154940000Y-102850000D02*
X154920000Y-102870000D01*
X161544699Y-100711699D02*
X161417000Y-100584000D01*
X161566699Y-100711699D02*
X161544699Y-100711699D01*
X162455000Y-101600000D02*
X161566699Y-100711699D01*
X162580000Y-101600000D02*
X162455000Y-101600000D01*
X162560000Y-96685000D02*
X162560000Y-96560000D01*
X161566699Y-97678301D02*
X162560000Y-96685000D01*
X162687000Y-97726500D02*
X162560000Y-97599500D01*
X162560000Y-97599500D02*
X162560000Y-96560000D01*
X163708942Y-98171000D02*
X163264442Y-97726500D01*
X163264442Y-97726500D02*
X162687000Y-97726500D01*
X164743200Y-98171000D02*
X163708942Y-98171000D01*
X165750000Y-98500000D02*
X165072200Y-98500000D01*
X165072200Y-98500000D02*
X164743200Y-98171000D01*
X149700000Y-120650000D02*
X148358250Y-120650000D01*
D35*
X148361238Y-124460000D02*
X148358250Y-124457012D01*
X149700000Y-124460000D02*
X148361238Y-124460000D01*
X173827934Y-124460000D02*
X173823068Y-124455134D01*
X175100000Y-124460000D02*
X173827934Y-124460000D01*
X161036000Y-133985000D02*
X162400000Y-133985000D01*
X157480000Y-76360600D02*
X157351023Y-76231623D01*
X157480000Y-77390000D02*
X157480000Y-76360600D01*
X157351023Y-76231623D02*
X157173028Y-76231623D01*
D34*
X177150000Y-92000000D02*
X176237135Y-92000000D01*
X176237135Y-92000000D02*
X176225200Y-91988065D01*
X177150000Y-98500000D02*
X176385484Y-98500000D01*
X176385484Y-98500000D02*
X176377921Y-98492437D01*
D35*
X191770000Y-82087720D02*
X191770000Y-80721320D01*
X195580000Y-81467482D02*
X195486259Y-81373741D01*
X195580000Y-82550000D02*
X195580000Y-81467482D01*
X149700000Y-66040000D02*
X149694932Y-66040000D01*
D34*
X142800000Y-86925000D02*
X142800000Y-87602200D01*
X144760000Y-85090000D02*
X144635000Y-85090000D01*
X144635000Y-85090000D02*
X142800000Y-86925000D01*
X142800000Y-87602200D02*
X142800000Y-88280000D01*
X170140000Y-86360000D02*
X170140000Y-86822058D01*
X170140000Y-86822058D02*
X168206699Y-88755359D01*
X168206699Y-88755359D02*
X168206699Y-89543301D01*
X168206699Y-89543301D02*
X168200000Y-89550000D01*
X140350000Y-95730000D02*
X137676000Y-95730000D01*
X137676000Y-95730000D02*
X136906000Y-96500000D01*
X154940000Y-92690000D02*
X154940000Y-92565000D01*
X154940000Y-92565000D02*
X153105000Y-90730000D01*
X153105000Y-90730000D02*
X152427800Y-90730000D01*
X152427800Y-90730000D02*
X151750000Y-90730000D01*
X149840000Y-102870000D02*
X149840000Y-102067200D01*
X149840000Y-102067200D02*
X149306699Y-101533899D01*
X149306699Y-101533899D02*
X149306699Y-99686699D01*
X149306699Y-99686699D02*
X149300000Y-99680000D01*
D35*
X156238224Y-71120000D02*
X156324290Y-71206066D01*
X155100000Y-71120000D02*
X156238224Y-71120000D01*
X175100000Y-71755000D02*
X173763002Y-71755000D01*
X173763002Y-71755000D02*
X173749501Y-71768501D01*
X170140000Y-86360000D02*
X171450000Y-86360000D01*
X187960000Y-82550000D02*
X187960000Y-81280000D01*
X137000000Y-73660000D02*
X135636000Y-73660000D01*
X137000000Y-66040000D02*
X135636000Y-66040000D01*
X137000000Y-69850000D02*
X135636000Y-69850000D01*
X142400000Y-71120000D02*
X143764000Y-71120000D01*
X149700000Y-69850000D02*
X148336000Y-69850000D01*
X162400000Y-71755000D02*
X161036000Y-71755000D01*
X153670000Y-77310000D02*
X153670000Y-75946000D01*
X149860000Y-75946000D02*
X149860000Y-77310000D01*
X149700000Y-73660000D02*
X148336000Y-73660000D01*
X186309000Y-133985000D02*
X187800000Y-133985000D01*
X173736000Y-133985000D02*
X175100000Y-133985000D01*
X149700000Y-133985000D02*
X148209000Y-133985000D01*
X161290000Y-128270000D02*
X160000000Y-128270000D01*
X173990000Y-128270000D02*
X172700000Y-128270000D01*
X199390000Y-128270000D02*
X198100000Y-128270000D01*
X185400000Y-128270000D02*
X186690000Y-128270000D01*
X186436000Y-124460000D02*
X187800000Y-124460000D01*
X161036000Y-124460000D02*
X162400000Y-124460000D01*
X135382000Y-124460000D02*
X136840000Y-124460000D01*
X124300000Y-124460000D02*
X122936000Y-124460000D01*
X165842000Y-110617000D02*
X167132000Y-110617000D01*
X167132000Y-110617000D02*
X168422000Y-110617000D01*
X175220000Y-66040000D02*
X175220000Y-67825000D01*
X175220000Y-67825000D02*
X175100000Y-67945000D01*
X167660000Y-66040000D02*
X167660000Y-67805000D01*
X167660000Y-67805000D02*
X167800000Y-67945000D01*
X125650000Y-130810000D02*
X124620600Y-130810000D01*
X124620600Y-130810000D02*
X119380000Y-125569400D01*
X119380000Y-125569400D02*
X119380000Y-119955618D01*
X123214719Y-116120899D02*
X127951499Y-116120899D01*
X119380000Y-119955618D02*
X123214719Y-116120899D01*
X128670600Y-116840000D02*
X129700000Y-116840000D01*
X127951499Y-116120899D02*
X128670600Y-116840000D01*
X193200000Y-116840000D02*
X194229400Y-116840000D01*
X191770000Y-114300000D02*
X191770000Y-115860000D01*
X191770000Y-115860000D02*
X192750000Y-116840000D01*
X192750000Y-116840000D02*
X193200000Y-116840000D01*
X187960000Y-110490000D02*
X189230000Y-111760000D01*
X189230000Y-111760000D02*
X191770000Y-114300000D01*
X195298501Y-115770899D02*
X198220899Y-115770899D01*
X198220899Y-115770899D02*
X199290000Y-116840000D01*
X199290000Y-116840000D02*
X199390000Y-116840000D01*
X199550000Y-116840000D02*
X199450000Y-116840000D01*
X195298501Y-115770899D02*
X194229400Y-116840000D01*
X199390000Y-119380000D02*
X199390000Y-117000000D01*
X199390000Y-117000000D02*
X199550000Y-116840000D01*
X199390000Y-121920000D02*
X199390000Y-119380000D01*
X199390000Y-124460000D02*
X199390000Y-121920000D01*
X195600000Y-128270000D02*
X195725000Y-128270000D01*
X195725000Y-128270000D02*
X199390000Y-124605000D01*
X199390000Y-124605000D02*
X199390000Y-124460000D01*
X180179400Y-63500000D02*
X179150000Y-63500000D01*
X181915618Y-63500000D02*
X180179400Y-63500000D01*
X185524719Y-67109101D02*
X181915618Y-63500000D01*
X188140899Y-67109101D02*
X185524719Y-67109101D01*
X189210000Y-66040000D02*
X188140899Y-67109101D01*
X189310000Y-66040000D02*
X189210000Y-66040000D01*
X180028084Y-127000000D02*
X171595000Y-127000000D01*
X180624986Y-126403098D02*
X180028084Y-127000000D01*
X182775000Y-127916584D02*
X181261514Y-126403098D01*
X171595000Y-127000000D02*
X170325000Y-128270000D01*
X181261514Y-126403098D02*
X180624986Y-126403098D01*
X182775000Y-128270000D02*
X182775000Y-127916584D01*
X170325000Y-128270000D02*
X170200000Y-128270000D01*
X182900000Y-128270000D02*
X182775000Y-128270000D01*
X140491499Y-116120899D02*
X134762015Y-116120899D01*
X130729400Y-116840000D02*
X129700000Y-116840000D01*
X131427888Y-116141512D02*
X130729400Y-116840000D01*
X134762015Y-116120899D02*
X134741402Y-116141512D01*
X141210600Y-116840000D02*
X140491499Y-116120899D01*
X134741402Y-116141512D02*
X131427888Y-116141512D01*
X142240000Y-116840000D02*
X141210600Y-116840000D01*
X157625000Y-128270000D02*
X157500000Y-128270000D01*
X167480486Y-127101598D02*
X167477084Y-127105000D01*
X168906598Y-127101598D02*
X167480486Y-127101598D01*
X170075000Y-128270000D02*
X168906598Y-127101598D01*
X167477084Y-127105000D02*
X158790000Y-127105000D01*
X158790000Y-127105000D02*
X157625000Y-128270000D01*
X166051499Y-116120899D02*
X166770600Y-116840000D01*
X157707815Y-116120899D02*
X166051499Y-116120899D01*
X157576014Y-115989098D02*
X157707815Y-116120899D01*
X156980302Y-115989098D02*
X157576014Y-115989098D01*
X156129400Y-116840000D02*
X156980302Y-115989098D01*
X155100000Y-116840000D02*
X156129400Y-116840000D01*
X166770600Y-116840000D02*
X167800000Y-116840000D01*
X132027737Y-134568947D02*
X133057137Y-134568947D01*
X131565139Y-134568947D02*
X132027737Y-134568947D01*
X130264086Y-135870000D02*
X131565139Y-134568947D01*
X125750000Y-134620000D02*
X127000000Y-135870000D01*
X125650000Y-134620000D02*
X125750000Y-134620000D01*
X127000000Y-135870000D02*
X130264086Y-135870000D01*
X160360600Y-83820000D02*
X161290000Y-83820000D01*
X159105598Y-82564998D02*
X160360600Y-83820000D01*
X159105598Y-79674402D02*
X159105598Y-82564998D01*
X161290000Y-77490000D02*
X159105598Y-79674402D01*
X161290000Y-77390000D02*
X161290000Y-77490000D01*
D34*
X189310000Y-72832200D02*
X189310000Y-73660000D01*
X189310000Y-66040000D02*
X189310000Y-72832200D01*
X154097200Y-90230000D02*
X151750000Y-90230000D01*
X154137200Y-90190000D02*
X154097200Y-90230000D01*
X154940000Y-90190000D02*
X154137200Y-90190000D01*
X139700000Y-87610000D02*
X139700000Y-89580000D01*
X139700000Y-89580000D02*
X139672200Y-89607800D01*
X139672200Y-89607800D02*
X139672200Y-89927200D01*
X139672200Y-89927200D02*
X139975000Y-90230000D01*
X139975000Y-90230000D02*
X140350000Y-90230000D01*
X142260000Y-85090000D02*
X142260000Y-88240000D01*
X142260000Y-88240000D02*
X142300000Y-88280000D01*
X152420000Y-102870000D02*
X152295000Y-102870000D01*
X152295000Y-102870000D02*
X149800000Y-100375000D01*
X149800000Y-100375000D02*
X149800000Y-100357800D01*
X149800000Y-100357800D02*
X149800000Y-99680000D01*
D35*
X162400000Y-67945000D02*
X161345600Y-67945000D01*
X161345600Y-67945000D02*
X159440600Y-66040000D01*
X159440600Y-66040000D02*
X156129400Y-66040000D01*
X156129400Y-66040000D02*
X155100000Y-66040000D01*
X162400000Y-67945000D02*
X162400000Y-64750000D01*
X162400000Y-64750000D02*
X163650000Y-63500000D01*
X163650000Y-63500000D02*
X163750000Y-63500000D01*
X187960000Y-110490000D02*
X181610000Y-116840000D01*
X181610000Y-116840000D02*
X180500000Y-116840000D01*
X167800000Y-116840000D02*
X168829400Y-116840000D01*
X179470600Y-116840000D02*
X180500000Y-116840000D01*
X168829400Y-116840000D02*
X169548501Y-116120899D01*
X169548501Y-116120899D02*
X178751499Y-116120899D01*
X178751499Y-116120899D02*
X179470600Y-116840000D01*
X163850000Y-63500000D02*
X163750000Y-63500000D01*
X175100000Y-67945000D02*
X176154400Y-67945000D01*
X176154400Y-67945000D02*
X180500000Y-67945000D01*
X167800000Y-67945000D02*
X168854400Y-67945000D01*
X168854400Y-67945000D02*
X175100000Y-67945000D01*
X162400000Y-67945000D02*
X167800000Y-67945000D01*
X157480000Y-83820000D02*
X161290000Y-83820000D01*
X172720000Y-77390000D02*
X173649400Y-77390000D01*
X173649400Y-77390000D02*
X176530000Y-77390000D01*
X168910000Y-77390000D02*
X169839400Y-77390000D01*
X169839400Y-77390000D02*
X172720000Y-77390000D01*
X165100000Y-77390000D02*
X168910000Y-77390000D01*
X161290000Y-77390000D02*
X162219400Y-77390000D01*
X162219400Y-77390000D02*
X165100000Y-77390000D01*
X140677137Y-134568947D02*
X140386053Y-134568947D01*
X140386053Y-134568947D02*
X139065000Y-135890000D01*
X139065000Y-135890000D02*
X134620000Y-135890000D01*
X134620000Y-135890000D02*
X133298947Y-134568947D01*
X133298947Y-134568947D02*
X133057137Y-134568947D01*
X140757137Y-130758947D02*
X140757137Y-134488947D01*
X140757137Y-134488947D02*
X140677137Y-134568947D01*
X133137137Y-130758947D02*
X133401053Y-130758947D01*
X133137137Y-130758947D02*
X133137137Y-134488947D01*
X133137137Y-134488947D02*
X133057137Y-134568947D01*
X133137137Y-130758947D02*
X133137137Y-130597137D01*
X125650000Y-130810000D02*
X125730000Y-130810000D01*
X125650000Y-130810000D02*
X125650000Y-134620000D01*
X195600000Y-128270000D02*
X195475000Y-128270000D01*
X195475000Y-128270000D02*
X193570000Y-130175000D01*
X193570000Y-130175000D02*
X193200000Y-130175000D01*
X157500000Y-128270000D02*
X157375000Y-128270000D01*
X157375000Y-128270000D02*
X155470000Y-130175000D01*
X155470000Y-130175000D02*
X155100000Y-130175000D01*
X170200000Y-128270000D02*
X170075000Y-128270000D01*
X170075000Y-128270000D02*
X168170000Y-130175000D01*
X168170000Y-130175000D02*
X167800000Y-130175000D01*
X194310000Y-127000000D02*
X184295000Y-127000000D01*
X184295000Y-127000000D02*
X183025000Y-128270000D01*
X183025000Y-128270000D02*
X182900000Y-128270000D01*
X195580000Y-128270000D02*
X194310000Y-127000000D01*
X195600000Y-128270000D02*
X195580000Y-128270000D01*
X182775000Y-128270000D02*
X180870000Y-130175000D01*
X180870000Y-130175000D02*
X180500000Y-130175000D01*
X142875000Y-116840000D02*
X142240000Y-116840000D01*
D34*
X148800000Y-99680000D02*
X148800000Y-101535000D01*
X148800000Y-101535000D02*
X147465000Y-102870000D01*
X147465000Y-102870000D02*
X147340000Y-102870000D01*
X140350000Y-91230000D02*
X139672200Y-91230000D01*
X139672200Y-91230000D02*
X137713701Y-89271501D01*
X137713701Y-89271501D02*
X137713701Y-88788701D01*
X137713701Y-88788701D02*
X133297000Y-84372000D01*
X133297000Y-84372000D02*
X132997000Y-84372000D01*
X140350000Y-91730000D02*
X134027200Y-91730000D01*
X134027200Y-91730000D02*
X132997000Y-90699800D01*
X132997000Y-90699800D02*
X132997000Y-89872000D01*
X130965000Y-94233000D02*
X128503000Y-94233000D01*
X128503000Y-94233000D02*
X128270000Y-94000000D01*
X140350000Y-92230000D02*
X131890200Y-92230000D01*
X131890200Y-92230000D02*
X130965000Y-93155200D01*
X130965000Y-93155200D02*
X130965000Y-94233000D01*
X136906000Y-94000000D02*
X134698000Y-94000000D01*
X134698000Y-94000000D02*
X134465000Y-94233000D01*
X140350000Y-92730000D02*
X138051000Y-92730000D01*
X138051000Y-92730000D02*
X136906000Y-93875000D01*
X136906000Y-93875000D02*
X136906000Y-94000000D01*
D35*
X190820000Y-85090000D02*
X188000000Y-85090000D01*
X188000000Y-85090000D02*
X187960000Y-85050000D01*
X184330380Y-93980000D02*
X182689500Y-93980000D01*
X192720000Y-85590380D02*
X184330380Y-93980000D01*
X192720000Y-85090000D02*
X192720000Y-85590380D01*
X182689500Y-93980000D02*
X182514400Y-93980000D01*
D34*
X177150000Y-91500000D02*
X177930500Y-91500000D01*
X177930500Y-91500000D02*
X178435000Y-90995500D01*
X162560000Y-99060000D02*
X165690000Y-99060000D01*
X165690000Y-99060000D02*
X165750000Y-99000000D01*
X165080000Y-101600000D02*
X167050000Y-101600000D01*
X167050000Y-101600000D02*
X167077800Y-101627800D01*
X167077800Y-101627800D02*
X167397200Y-101627800D01*
X167397200Y-101627800D02*
X167700000Y-101325000D01*
X167700000Y-101325000D02*
X167700000Y-100950000D01*
X178308000Y-98044000D02*
X178264000Y-98000000D01*
X178264000Y-98000000D02*
X177150000Y-98000000D01*
X181610000Y-99080000D02*
X180233000Y-99080000D01*
X180233000Y-99080000D02*
X179959000Y-98806000D01*
X181610000Y-93980000D02*
X180975000Y-93980000D01*
X167700000Y-89550000D02*
X167700000Y-86420000D01*
X167700000Y-86420000D02*
X167640000Y-86360000D01*
D35*
X182514400Y-93980000D02*
X181610000Y-93980000D01*
X196850000Y-87630000D02*
X196850000Y-85415600D01*
X196850000Y-85415600D02*
X196484400Y-85050000D01*
X196484400Y-85050000D02*
X195580000Y-85050000D01*
X192720000Y-85090000D02*
X195540000Y-85090000D01*
X195540000Y-85090000D02*
X195580000Y-85050000D01*
D34*
X181610000Y-93980000D02*
X181610000Y-94327942D01*
X177156699Y-97993301D02*
X177150000Y-98000000D01*
X180807200Y-90442800D02*
X181610000Y-89640000D01*
X181610000Y-89640000D02*
X181610000Y-89515000D01*
X178034603Y-92500000D02*
X180091807Y-90442800D01*
X177150000Y-92500000D02*
X178034603Y-92500000D01*
X180091807Y-90442800D02*
X180807200Y-90442800D01*
X164172000Y-107767000D02*
X164172000Y-109787000D01*
X164172000Y-109787000D02*
X163342000Y-110617000D01*
X164172000Y-107767000D02*
X164172000Y-106639200D01*
X164172000Y-106639200D02*
X165088701Y-105722499D01*
X168700000Y-101555062D02*
X168700000Y-100950000D01*
X165088701Y-105722499D02*
X165088701Y-105166361D01*
X165088701Y-105166361D02*
X168700000Y-101555062D01*
X169672000Y-107767000D02*
X170499800Y-107767000D01*
X170499800Y-107767000D02*
X170922000Y-108189200D01*
X170922000Y-108189200D02*
X170922000Y-109814200D01*
X170922000Y-109814200D02*
X170922000Y-110617000D01*
X169672000Y-107767000D02*
X169672000Y-106639200D01*
X169672000Y-106639200D02*
X168755299Y-105722499D01*
X168755299Y-105722499D02*
X168755299Y-102072501D01*
X168755299Y-102072501D02*
X169200000Y-101627800D01*
X169200000Y-101627800D02*
X169200000Y-100950000D01*
X174497000Y-110081000D02*
X174497000Y-111908000D01*
X174497000Y-111908000D02*
X173756000Y-112649000D01*
X169700000Y-100950000D02*
X169700000Y-101939062D01*
X169700000Y-101939062D02*
X173330299Y-105569361D01*
X173330299Y-105569361D02*
X173330299Y-107836499D01*
X173330299Y-107836499D02*
X174497000Y-109003200D01*
X174497000Y-109003200D02*
X174497000Y-110081000D01*
X174497000Y-106581000D02*
X174497000Y-105503200D01*
X173756000Y-104762200D02*
X173756000Y-104140000D01*
X174497000Y-105503200D02*
X173756000Y-104762200D01*
X173756000Y-104140000D02*
X172712200Y-104140000D01*
X172712200Y-104140000D02*
X170200000Y-101627800D01*
X170200000Y-101627800D02*
X170200000Y-100950000D01*
X141027800Y-96230000D02*
X140350000Y-96230000D01*
X141116701Y-96318901D02*
X141027800Y-96230000D01*
X141116701Y-99929299D02*
X141116701Y-96318901D01*
X140477240Y-100568760D02*
X141116701Y-99929299D01*
X139700000Y-100568760D02*
X140477240Y-100568760D01*
X173700000Y-100950000D02*
X173700000Y-101488908D01*
X173700000Y-101488908D02*
X173927793Y-101716701D01*
X173927793Y-101716701D02*
X178170701Y-101716701D01*
X178170701Y-101716701D02*
X179308760Y-102854760D01*
X179308760Y-102854760D02*
X179308760Y-104140000D01*
X198348501Y-86762650D02*
X198348501Y-82817073D01*
X198348501Y-82817073D02*
X195249427Y-79717999D01*
X198272334Y-89255666D02*
X198272334Y-88573517D01*
X198373912Y-88471939D02*
X198373912Y-86788061D01*
X191147699Y-96380301D02*
X198272334Y-89255666D01*
X198373912Y-86788061D02*
X198348501Y-86762650D01*
X195249427Y-79717999D02*
X186015727Y-79717999D01*
X187960000Y-95250000D02*
X189090301Y-96380301D01*
X189090301Y-96380301D02*
X191147699Y-96380301D01*
X198272334Y-88573517D02*
X198373912Y-88471939D01*
X182762796Y-82776553D02*
X182511349Y-82776553D01*
X186015727Y-79717999D02*
X182957173Y-82776553D01*
X182957173Y-82776553D02*
X182762796Y-82776553D01*
X152908000Y-91567000D02*
X152571000Y-91230000D01*
X152571000Y-91230000D02*
X151750000Y-91230000D01*
X199059723Y-86468054D02*
X199059723Y-82522479D01*
X182795937Y-81899125D02*
X182451611Y-81899125D01*
X198983556Y-88868113D02*
X199085134Y-88766535D01*
X187960000Y-97790000D02*
X189090301Y-98920301D01*
X189090301Y-98920301D02*
X191042545Y-98920301D01*
X185688285Y-79006777D02*
X182795937Y-81899125D01*
X191042545Y-98920301D02*
X198983556Y-90979290D01*
X198983556Y-90979290D02*
X198983556Y-88868113D01*
X199059723Y-82522479D02*
X195544021Y-79006777D01*
X195544021Y-79006777D02*
X185688285Y-79006777D01*
X182451611Y-81899125D02*
X182200164Y-81899125D01*
X199085134Y-86493465D02*
X199059723Y-86468054D01*
X199085134Y-88766535D02*
X199085134Y-86493465D01*
X149800000Y-88280000D02*
X150102800Y-88280000D01*
X154696688Y-88709510D02*
X154948135Y-88709510D01*
X152740362Y-87693498D02*
X153756374Y-88709510D01*
X153756374Y-88709510D02*
X154696688Y-88709510D01*
X150689302Y-87693498D02*
X152740362Y-87693498D01*
X150102800Y-88280000D02*
X150689302Y-87693498D01*
X182722735Y-80966509D02*
X181731073Y-80966509D01*
X195838615Y-78295555D02*
X185393689Y-78295555D01*
X199770945Y-86173458D02*
X199770945Y-82227885D01*
X181696390Y-81001192D02*
X181518591Y-81178991D01*
X191042545Y-101460301D02*
X199694778Y-92808068D01*
X199694778Y-89162709D02*
X199796356Y-89061131D01*
X199770945Y-82227885D02*
X195838615Y-78295555D01*
X185393689Y-78295555D02*
X182722735Y-80966509D01*
X199796356Y-89061131D02*
X199796356Y-86198869D01*
X199796356Y-86198869D02*
X199770945Y-86173458D01*
X187960000Y-100330000D02*
X189090301Y-101460301D01*
X189090301Y-101460301D02*
X191042545Y-101460301D01*
X199694778Y-92808068D02*
X199694778Y-89162709D01*
X181731073Y-80966509D02*
X181696390Y-81001192D01*
X146888901Y-87513299D02*
X148958730Y-87513299D01*
X148958730Y-87513299D02*
X149489753Y-86982276D01*
X154345933Y-86982276D02*
X154846801Y-87483144D01*
X154846801Y-87483144D02*
X155024600Y-87660943D01*
X146800000Y-88280000D02*
X146800000Y-87602200D01*
X146800000Y-87602200D02*
X146888901Y-87513299D01*
X149489753Y-86982276D02*
X154345933Y-86982276D01*
X191042545Y-104000301D02*
X200406000Y-94636846D01*
X196133209Y-77584333D02*
X183413348Y-77584333D01*
X200482167Y-81933291D02*
X196133209Y-77584333D01*
X200507578Y-89355727D02*
X200507578Y-85904273D01*
X200406000Y-89457305D02*
X200507578Y-89355727D01*
X200406000Y-94636846D02*
X200406000Y-89457305D01*
X189090301Y-104000301D02*
X191042545Y-104000301D01*
X183413348Y-77584333D02*
X181825899Y-79171782D01*
X181825899Y-79171782D02*
X181825899Y-79393540D01*
X187960000Y-102870000D02*
X189090301Y-104000301D01*
X200507578Y-85904273D02*
X200482167Y-85878862D01*
X200482167Y-85878862D02*
X200482167Y-81933291D01*
X151750000Y-95730000D02*
X154231039Y-95730000D01*
X154231039Y-95730000D02*
X154271750Y-95770711D01*
X154271750Y-95770711D02*
X154449549Y-95948510D01*
X151750000Y-95230000D02*
X154322695Y-95230000D01*
X154322695Y-95230000D02*
X154434031Y-95118664D01*
X201218800Y-85609677D02*
X201193389Y-85584266D01*
X201193389Y-85584266D02*
X201193389Y-81638697D01*
X188823599Y-106273599D02*
X189690753Y-106273599D01*
X201193389Y-81638697D02*
X196427803Y-76873111D01*
X201218800Y-89650323D02*
X201218800Y-85609677D01*
X196427803Y-76873111D02*
X183118753Y-76873111D01*
X201168000Y-89701123D02*
X201218800Y-89650323D01*
X191042545Y-106540301D02*
X201168000Y-96414846D01*
X189957455Y-106540301D02*
X191042545Y-106540301D01*
X189690753Y-106273599D02*
X189957455Y-106540301D01*
X180936888Y-79054976D02*
X180936888Y-79250553D01*
X187960000Y-105410000D02*
X188823599Y-106273599D01*
X180936888Y-79250553D02*
X180936888Y-79502000D01*
X201168000Y-96414846D02*
X201168000Y-89701123D01*
X183118753Y-76873111D02*
X180936888Y-79054976D01*
X193200000Y-124460000D02*
X192750000Y-124460000D01*
X192750000Y-124460000D02*
X188816701Y-120526701D01*
X188816701Y-120526701D02*
X188816701Y-117406701D01*
X188816701Y-117406701D02*
X188250000Y-116840000D01*
X188250000Y-116840000D02*
X187800000Y-116840000D01*
X163423966Y-83993948D02*
X167327914Y-80090000D01*
X167327914Y-80090000D02*
X168910000Y-80090000D01*
X142240000Y-91440000D02*
X141174065Y-92505935D01*
X141174065Y-92505935D02*
X141174065Y-93083735D01*
X141174065Y-93083735D02*
X141027800Y-93230000D01*
X141027800Y-93230000D02*
X140350000Y-93230000D01*
X157520000Y-91440000D02*
X157520000Y-90718000D01*
X157520000Y-90718000D02*
X157480000Y-90678000D01*
X187800000Y-116840000D02*
X187800000Y-112743000D01*
X187800000Y-112743000D02*
X187261500Y-112204500D01*
X170307000Y-80708500D02*
X169528500Y-80708500D01*
X169528500Y-80708500D02*
X168910000Y-80090000D01*
X196575100Y-76517500D02*
X182816500Y-76517500D01*
X182816500Y-76517500D02*
X180911500Y-78422500D01*
X201549000Y-81491400D02*
X196575100Y-76517500D01*
X201549000Y-85436968D02*
X201549000Y-81491400D01*
X201574411Y-85462379D02*
X201549000Y-85436968D01*
X201574411Y-89797621D02*
X201574411Y-85462379D01*
X201549000Y-98573846D02*
X201549000Y-89823032D01*
X201549000Y-89823032D02*
X201574411Y-89797621D01*
X187960000Y-107950000D02*
X189090301Y-109080301D01*
X189090301Y-109080301D02*
X191042545Y-109080301D01*
X191042545Y-109080301D02*
X201549000Y-98573846D01*
X168700000Y-89550000D02*
X168700000Y-88944938D01*
X172471091Y-87503000D02*
X175460676Y-84513415D01*
X170141938Y-87503000D02*
X172471091Y-87503000D01*
X168700000Y-88944938D02*
X170141938Y-87503000D01*
X175802666Y-83989757D02*
X176675804Y-83989757D01*
X175460676Y-84331747D02*
X175802666Y-83989757D01*
X176675804Y-83989757D02*
X176927251Y-83989757D01*
X175460676Y-84513415D02*
X175460676Y-84331747D01*
X182645014Y-83296799D02*
X182393567Y-83296799D01*
X197992890Y-86909948D02*
X197992890Y-82964370D01*
X197992890Y-82964370D02*
X195102130Y-80073610D01*
X195102130Y-80073610D02*
X186386699Y-80073610D01*
X190500000Y-95250000D02*
X191363599Y-94386401D01*
X191956541Y-94386401D02*
X198018301Y-88324641D01*
X186386699Y-80073610D02*
X183163510Y-83296799D01*
X198018301Y-88324641D02*
X198018301Y-86935359D01*
X191363599Y-94386401D02*
X191956541Y-94386401D01*
X183163510Y-83296799D02*
X182645014Y-83296799D01*
X198018301Y-86935359D02*
X197992890Y-86909948D01*
X176174518Y-82977987D02*
X176352317Y-82800188D01*
X165750000Y-91500000D02*
X165750000Y-86339908D01*
X176163212Y-82989293D02*
X176174518Y-82977987D01*
X165750000Y-86339908D02*
X169100615Y-82989293D01*
X169100615Y-82989293D02*
X176163212Y-82989293D01*
X198627945Y-88720815D02*
X198729523Y-88619237D01*
X198729523Y-86640763D02*
X198704112Y-86615352D01*
X182300981Y-82332052D02*
X182030941Y-82602092D01*
X182030941Y-82602092D02*
X181573137Y-82602092D01*
X181165510Y-82194466D02*
X181165510Y-82045473D01*
X190500000Y-97790000D02*
X198627945Y-89662055D01*
X198704112Y-86615352D02*
X198704112Y-82669776D01*
X198729523Y-88619237D02*
X198729523Y-86640763D01*
X198704112Y-82669776D02*
X195396724Y-79362388D01*
X185836476Y-79362388D02*
X182866812Y-82332052D01*
X198627945Y-89662055D02*
X198627945Y-88720815D01*
X182866812Y-82332052D02*
X182300981Y-82332052D01*
X181573137Y-82602092D02*
X181165510Y-82194466D01*
X195396724Y-79362388D02*
X185836476Y-79362388D01*
X176047486Y-82447155D02*
X176282917Y-82211724D01*
X164846000Y-86613149D02*
X169011994Y-82447155D01*
X176668157Y-82211724D02*
X176845956Y-82389523D01*
X164846000Y-94273800D02*
X164846000Y-86613149D01*
X169011994Y-82447155D02*
X176047486Y-82447155D01*
X165750000Y-94500000D02*
X165072200Y-94500000D01*
X176282917Y-82211724D02*
X176668157Y-82211724D01*
X165072200Y-94500000D02*
X164846000Y-94273800D01*
X182737530Y-81454623D02*
X181986802Y-81454623D01*
X199415334Y-82375182D02*
X195691318Y-78651166D01*
X195691318Y-78651166D02*
X185540987Y-78651166D01*
X199415334Y-86320756D02*
X199415334Y-82375182D01*
X185540987Y-78651166D02*
X182737530Y-81454623D01*
X199440745Y-86346167D02*
X199415334Y-86320756D01*
X190500000Y-100330000D02*
X199339167Y-91490833D01*
X199339167Y-91490833D02*
X199339167Y-89015411D01*
X199440745Y-88913833D02*
X199440745Y-86346167D01*
X181986802Y-81454623D02*
X181709074Y-81732351D01*
X181709074Y-81732351D02*
X181709074Y-81857948D01*
X181709074Y-81857948D02*
X181709074Y-82109395D01*
X199339167Y-89015411D02*
X199440745Y-88913833D01*
X173200000Y-88583603D02*
X175169593Y-86614010D01*
X175169593Y-86614010D02*
X175347392Y-86436211D01*
X173200000Y-89550000D02*
X173200000Y-88583603D01*
X200050389Y-93319611D02*
X200050389Y-89310007D01*
X200050389Y-89310007D02*
X200151967Y-89208429D01*
X200126556Y-82080588D02*
X195985912Y-77939944D01*
X200126556Y-86026160D02*
X200126556Y-82080588D01*
X200151967Y-89208429D02*
X200151967Y-86051571D01*
X200151967Y-86051571D02*
X200126556Y-86026160D01*
X183741065Y-77939944D02*
X182547318Y-79133691D01*
X182547318Y-79133691D02*
X182369519Y-79311490D01*
X195985912Y-77939944D02*
X183741065Y-77939944D01*
X190500000Y-102870000D02*
X200050389Y-93319611D01*
X172700000Y-87818167D02*
X175905178Y-84612989D01*
X175905178Y-84612989D02*
X175905178Y-84543881D01*
X172700000Y-89550000D02*
X172700000Y-87818167D01*
X200812389Y-89553825D02*
X200863189Y-89503025D01*
X200812389Y-95097611D02*
X200812389Y-89553825D01*
X182226143Y-80522007D02*
X182257926Y-80522007D01*
X200837778Y-85731564D02*
X200837778Y-81785994D01*
X183266051Y-77228722D02*
X181381389Y-79113384D01*
X200837778Y-81785994D02*
X196280506Y-77228722D01*
X181381389Y-79113384D02*
X181381389Y-79677253D01*
X181381389Y-79677253D02*
X182226143Y-80522007D01*
X196280506Y-77228722D02*
X183266051Y-77228722D01*
X190500000Y-105410000D02*
X200812389Y-95097611D01*
X182257926Y-80522007D02*
X182509373Y-80522007D01*
X200863189Y-89503025D02*
X200863189Y-85756975D01*
X200863189Y-85756975D02*
X200837778Y-85731564D01*
X176276000Y-102870000D02*
X172014938Y-102870000D01*
X172014938Y-102870000D02*
X170700000Y-101555062D01*
X170700000Y-101555062D02*
X170700000Y-100950000D01*
X186829699Y-104025699D02*
X185502301Y-102698301D01*
X185502301Y-102698301D02*
X180379339Y-102698301D01*
X180379339Y-102698301D02*
X180207640Y-102870000D01*
X190500000Y-107950000D02*
X189636401Y-107086401D01*
X189636401Y-107086401D02*
X189133493Y-107086401D01*
X189133493Y-107086401D02*
X188587393Y-106540301D01*
X186829699Y-105952545D02*
X186829699Y-104025699D01*
X188587393Y-106540301D02*
X187417455Y-106540301D01*
X187417455Y-106540301D02*
X186829699Y-105952545D01*
X194310000Y-114300000D02*
X194310000Y-112268000D01*
X194310000Y-112268000D02*
X191396732Y-109354732D01*
X195580000Y-115062000D02*
X194494200Y-115062000D01*
X194494200Y-115062000D02*
X194310000Y-114877800D01*
X194310000Y-114877800D02*
X194310000Y-114300000D01*
X193200000Y-120650000D02*
X195580000Y-120650000D01*
X167132000Y-92202000D02*
X170700000Y-95770000D01*
X170700000Y-95770000D02*
X170700000Y-100950000D01*
X162306000Y-93980000D02*
X162003954Y-93677954D01*
X162003954Y-93677954D02*
X162003954Y-91826052D01*
X160020000Y-93980000D02*
X162306000Y-93980000D01*
X163068000Y-83566000D02*
X165100000Y-81534000D01*
X165100000Y-81534000D02*
X165100000Y-80090000D01*
X159552800Y-92710000D02*
X159252058Y-92710000D01*
X159252058Y-92710000D02*
X158901699Y-92359641D01*
X158901699Y-92359641D02*
X158901699Y-90520359D01*
X158901699Y-90520359D02*
X159188558Y-90233500D01*
X159188558Y-90233500D02*
X159766000Y-90233500D01*
X160020000Y-93980000D02*
X160020000Y-93177200D01*
X160020000Y-93177200D02*
X159552800Y-92710000D01*
X180340000Y-56515000D02*
X179209699Y-55384699D01*
X179209699Y-55384699D02*
X174485301Y-55384699D01*
X173850301Y-57057545D02*
X172983147Y-57924699D01*
X172983147Y-57924699D02*
X172072301Y-57924699D01*
X174485301Y-55384699D02*
X173850301Y-56019699D01*
X173850301Y-56019699D02*
X173850301Y-57057545D01*
X172072301Y-57924699D02*
X171310301Y-58686699D01*
X171310301Y-58686699D02*
X171310301Y-59597545D01*
X171310301Y-59597545D02*
X169439846Y-61468000D01*
X169439846Y-61468000D02*
X169312846Y-61595000D01*
X168804846Y-62103000D02*
X169439846Y-61468000D01*
X177800000Y-56515000D02*
X176450000Y-57865000D01*
X149700000Y-67310000D02*
X144780000Y-67310000D01*
X144780000Y-67310000D02*
X144076701Y-68013299D01*
X144076701Y-68013299D02*
X141518931Y-68013299D01*
X141518931Y-68013299D02*
X140815632Y-67310000D01*
X140815632Y-67310000D02*
X137927800Y-67310000D01*
X137927800Y-67310000D02*
X137000000Y-67310000D01*
X150150000Y-67310000D02*
X150818301Y-66641699D01*
X149700000Y-67310000D02*
X150150000Y-67310000D01*
X150818301Y-66641699D02*
X150818301Y-65151709D01*
X150818301Y-65151709D02*
X149203863Y-65151709D01*
X149203863Y-65151709D02*
X143649699Y-59597545D01*
X143649699Y-59597545D02*
X143649699Y-58512455D01*
X144237455Y-57924699D02*
X145910301Y-57924699D01*
X143649699Y-58512455D02*
X144237455Y-57924699D01*
X144669200Y-86233000D02*
X144818899Y-86083301D01*
X144818899Y-86083301D02*
X145804641Y-86083301D01*
X145804641Y-86083301D02*
X147066000Y-84821942D01*
X143300000Y-88280000D02*
X143300000Y-87602200D01*
X143300000Y-87602200D02*
X144669200Y-86233000D01*
X147066000Y-84821942D02*
X147066000Y-70231000D01*
X146850123Y-92857387D02*
X146850123Y-92136067D01*
X141351000Y-86619091D02*
X140786088Y-86054179D01*
X146850123Y-92136067D02*
X146410670Y-91696614D01*
X144300000Y-99680000D02*
X144300000Y-95407510D01*
X146039901Y-69506233D02*
X146217700Y-69328434D01*
X140786088Y-84003912D02*
X146039901Y-78750099D01*
X146039901Y-78750099D02*
X146039901Y-69506233D01*
X143925763Y-91696614D02*
X141351000Y-89121851D01*
X146410670Y-91696614D02*
X143925763Y-91696614D01*
X144300000Y-95407510D02*
X146850123Y-92857387D01*
X141351000Y-89121851D02*
X141351000Y-86619091D01*
X140786088Y-86054179D02*
X140786088Y-84003912D01*
X151645918Y-89292189D02*
X151897365Y-89292189D01*
X145300000Y-95413328D02*
X147561345Y-93151983D01*
X147561345Y-93151983D02*
X147561345Y-92627805D01*
X147561345Y-92627805D02*
X150896961Y-89292189D01*
X145300000Y-99680000D02*
X145300000Y-95413328D01*
X150896961Y-89292189D02*
X151645918Y-89292189D01*
X176530000Y-81017800D02*
X176530000Y-80090000D01*
X175171111Y-92679520D02*
X175171111Y-91587298D01*
X177736500Y-82224300D02*
X176530000Y-81017800D01*
X175991591Y-93500000D02*
X175171111Y-92679520D01*
X177150000Y-93500000D02*
X175991591Y-93500000D01*
X175171111Y-91587298D02*
X176466498Y-90291911D01*
X176466498Y-90291911D02*
X176466498Y-85765638D01*
X177736500Y-84495636D02*
X177736500Y-82224300D01*
X176466498Y-85765638D02*
X177736500Y-84495636D01*
X147800000Y-100357800D02*
X147800000Y-99680000D01*
X147800000Y-100606908D02*
X147800000Y-100357800D01*
X146323299Y-106586701D02*
X146323299Y-102083609D01*
X144960000Y-107950000D02*
X146323299Y-106586701D01*
X144860000Y-107950000D02*
X144960000Y-107950000D01*
X146323299Y-102083609D02*
X147800000Y-100606908D01*
X151750000Y-93230000D02*
X152939149Y-93230000D01*
X156288912Y-90816026D02*
X158178498Y-88926440D01*
X158178498Y-88926440D02*
X158178498Y-87988128D01*
X152939149Y-93230000D02*
X153873061Y-94163912D01*
X158178498Y-87988128D02*
X159646626Y-86520000D01*
X153873061Y-94163912D02*
X156006939Y-94163912D01*
X159646626Y-86520000D02*
X160462200Y-86520000D01*
X156006939Y-94163912D02*
X156288912Y-93881939D01*
X156288912Y-93881939D02*
X156288912Y-90816026D01*
X160462200Y-86520000D02*
X161290000Y-86520000D01*
X163025743Y-90111248D02*
X163203542Y-90289047D01*
X161290000Y-88391990D02*
X163009258Y-90111248D01*
X163009258Y-90111248D02*
X163025743Y-90111248D01*
X161290000Y-86520000D02*
X161290000Y-88391990D01*
X170180000Y-90551000D02*
X170180000Y-89570000D01*
X170180000Y-89570000D02*
X170200000Y-89550000D01*
X151750000Y-92730000D02*
X152942058Y-92730000D01*
X155859641Y-93808301D02*
X155933301Y-93734641D01*
X157818499Y-88457363D02*
X157818499Y-87786299D01*
X152942058Y-92730000D02*
X154020359Y-93808301D01*
X157480000Y-87447800D02*
X157480000Y-86520000D01*
X154020359Y-93808301D02*
X155859641Y-93808301D01*
X155933301Y-93734641D02*
X155933301Y-90342561D01*
X155933301Y-90342561D02*
X157818499Y-88457363D01*
X157818499Y-87786299D02*
X157480000Y-87447800D01*
X158307800Y-86520000D02*
X159324501Y-85503299D01*
X162084299Y-85503299D02*
X163242610Y-86661610D01*
X163242610Y-86661610D02*
X163242610Y-89464520D01*
X163242610Y-89464520D02*
X163242610Y-89715967D01*
X159324501Y-85503299D02*
X162084299Y-85503299D01*
X157480000Y-86520000D02*
X158307800Y-86520000D01*
X170688000Y-88392000D02*
X170688000Y-89538000D01*
X170688000Y-89538000D02*
X170700000Y-89550000D01*
X165750000Y-97000000D02*
X165072200Y-97000000D01*
X165072200Y-97000000D02*
X163908912Y-95836712D01*
X163908912Y-95836712D02*
X163908912Y-95368061D01*
X163703000Y-91417138D02*
X160487352Y-88201490D01*
X163908912Y-95368061D02*
X163703000Y-95162149D01*
X163703000Y-95162149D02*
X163703000Y-91417138D01*
X158874447Y-88201490D02*
X158623000Y-88201490D01*
X160487352Y-88201490D02*
X158874447Y-88201490D01*
X157196199Y-87992454D02*
X157373998Y-88170253D01*
X156461699Y-81208301D02*
X156461699Y-87280925D01*
X156461699Y-87280925D02*
X157173228Y-87992454D01*
X157480000Y-80090000D02*
X157480000Y-80190000D01*
X157173228Y-87992454D02*
X157196199Y-87992454D01*
X157480000Y-80190000D02*
X156461699Y-81208301D01*
X152842200Y-80010000D02*
X153670000Y-80010000D01*
X152013909Y-80010000D02*
X152842200Y-80010000D01*
X147421611Y-84602297D02*
X152013909Y-80010000D01*
X147421611Y-84969240D02*
X147421611Y-84602297D01*
X145951939Y-86438912D02*
X147421611Y-84969240D01*
X144300000Y-87602200D02*
X145463288Y-86438912D01*
X144300000Y-88280000D02*
X144300000Y-87602200D01*
X145463288Y-86438912D02*
X145951939Y-86438912D01*
X183092927Y-114512927D02*
X162351289Y-114512927D01*
X158750000Y-100208092D02*
X154940000Y-96398092D01*
X162351289Y-114512927D02*
X158750000Y-110911638D01*
X158750000Y-110911638D02*
X158750000Y-100208092D01*
X154940000Y-96398092D02*
X154940000Y-94996000D01*
X154940000Y-94996000D02*
X154463523Y-94519523D01*
X154463523Y-94519523D02*
X153217323Y-94519523D01*
X153217323Y-94519523D02*
X152427800Y-93730000D01*
X152427800Y-93730000D02*
X151750000Y-93730000D01*
X187800000Y-118110000D02*
X186690000Y-118110000D01*
X186690000Y-118110000D02*
X183937073Y-115357073D01*
X128350000Y-134620000D02*
X128350000Y-133792200D01*
X128350000Y-133792200D02*
X126768301Y-132210501D01*
X126768301Y-124014939D02*
X125943362Y-123190000D01*
X126768301Y-132210501D02*
X126768301Y-124014939D01*
X178435000Y-132715000D02*
X178183553Y-132715000D01*
X178183553Y-132715000D02*
X176530000Y-132715000D01*
X187800000Y-132715000D02*
X182245000Y-132715000D01*
X177038000Y-135128000D02*
X174809200Y-135128000D01*
X174809200Y-135128000D02*
X172085000Y-137852200D01*
X172085000Y-137852200D02*
X172085000Y-138430000D01*
X175100000Y-132715000D02*
X176530000Y-132715000D01*
X143364646Y-136461500D02*
X145333146Y-138430000D01*
X145333146Y-138430000D02*
X172085000Y-138430000D01*
X129540000Y-134620000D02*
X128350000Y-134620000D01*
X143364646Y-136461500D02*
X130556000Y-136461500D01*
X146748500Y-132715000D02*
X146748500Y-133077646D01*
X146748500Y-133077646D02*
X143364646Y-136461500D01*
X149700000Y-132715000D02*
X148336000Y-132715000D01*
X151066500Y-132715000D02*
X149700000Y-132715000D01*
X162400000Y-132715000D02*
X156464000Y-132715000D01*
X156464000Y-132715000D02*
X156400500Y-132651500D01*
X128772200Y-120650000D02*
X129700000Y-120650000D01*
X128483362Y-120650000D02*
X128772200Y-120650000D01*
X124300000Y-123190000D02*
X125943362Y-123190000D01*
X125943362Y-123190000D02*
X128483362Y-120650000D01*
X128477000Y-134747000D02*
X128350000Y-134620000D01*
X136390000Y-119380000D02*
X136840000Y-119380000D01*
X134048500Y-127254000D02*
X134048500Y-124306562D01*
X134048500Y-124306562D02*
X134620000Y-123735062D01*
X134620000Y-123735062D02*
X134620000Y-121150000D01*
X134620000Y-121150000D02*
X136390000Y-119380000D01*
X138318375Y-129205509D02*
X142875000Y-129205509D01*
X141732000Y-127317500D02*
X142875000Y-128460500D01*
X142875000Y-129205509D02*
X146213594Y-129205509D01*
X142875000Y-128460500D02*
X142875000Y-129205509D01*
X135315947Y-127317500D02*
X141732000Y-127317500D01*
X135001000Y-127254000D02*
X135252447Y-127254000D01*
X135252447Y-127254000D02*
X135315947Y-127317500D01*
X148158230Y-129053542D02*
X148158230Y-129163444D01*
X160401000Y-122999500D02*
X155130500Y-128270000D01*
X148747200Y-130175000D02*
X148158230Y-129586030D01*
X148941772Y-128270000D02*
X148158230Y-129053542D01*
X148158230Y-129163444D02*
X148158230Y-129414891D01*
X149700000Y-130175000D02*
X148747200Y-130175000D01*
X155130500Y-128270000D02*
X148941772Y-128270000D01*
X148158230Y-129586030D02*
X148158230Y-129414891D01*
X146249603Y-129241518D02*
X146427402Y-129419317D01*
X146213594Y-129205509D02*
X146249603Y-129241518D01*
X136764937Y-130758947D02*
X138318375Y-129205509D01*
X135837137Y-130758947D02*
X136764937Y-130758947D01*
X173223201Y-120083299D02*
X172085000Y-121221500D01*
X172085000Y-121221500D02*
X169291000Y-121221500D01*
X175100000Y-119380000D02*
X175100000Y-119857800D01*
X175100000Y-119857800D02*
X174874501Y-120083299D01*
X174874501Y-120083299D02*
X173223201Y-120083299D01*
X135757137Y-133741147D02*
X135757137Y-134568947D01*
X134556500Y-132540510D02*
X135757137Y-133741147D01*
X134556500Y-124301470D02*
X134556500Y-132540510D01*
X135667970Y-123190000D02*
X134556500Y-124301470D01*
X136840000Y-123190000D02*
X135667970Y-123190000D01*
X141879298Y-126961889D02*
X143676855Y-128759446D01*
X137290000Y-123190000D02*
X137767800Y-123667800D01*
X143676855Y-128759446D02*
X146128712Y-128759446D01*
X136840000Y-123190000D02*
X137290000Y-123190000D01*
X137767800Y-123667800D02*
X137767800Y-123674858D01*
X141054831Y-126961889D02*
X141879298Y-126961889D01*
X146128712Y-128759446D02*
X146380159Y-128759446D01*
X137767800Y-123674858D02*
X141054831Y-126961889D01*
X148837634Y-129032000D02*
X148682067Y-129187567D01*
X155575000Y-129032000D02*
X148837634Y-129032000D01*
X172847000Y-125222000D02*
X172847000Y-124515200D01*
X172847000Y-124515200D02*
X174172200Y-123190000D01*
X174172200Y-123190000D02*
X175100000Y-123190000D01*
X162400000Y-130175000D02*
X165290500Y-130175000D01*
X165290500Y-130175000D02*
X167767000Y-127698500D01*
X162400000Y-130175000D02*
X156718000Y-130175000D01*
X156718000Y-130175000D02*
X156591000Y-130048000D01*
X180911500Y-125349000D02*
X180911200Y-125349000D01*
X180911200Y-125349000D02*
X180500000Y-124937800D01*
X180500000Y-124937800D02*
X180500000Y-124460000D01*
X180911500Y-125666500D02*
X180911500Y-125349000D01*
X175100000Y-130175000D02*
X177736500Y-130175000D01*
X177736500Y-130175000D02*
X180911500Y-127000000D01*
X144780000Y-129794000D02*
X144780000Y-130363884D01*
X144780000Y-130363884D02*
X144384937Y-130758947D01*
X144384937Y-130758947D02*
X143457137Y-130758947D01*
X142240000Y-124460000D02*
X142240000Y-125730000D01*
X142240000Y-125730000D02*
X144780000Y-128270000D01*
X143383000Y-135699500D02*
X143383000Y-134574810D01*
X143383000Y-134574810D02*
X143377137Y-134568947D01*
X170878500Y-137604500D02*
X145542000Y-137604500D01*
X145542000Y-137604500D02*
X144272000Y-136334500D01*
X184785000Y-138430000D02*
X184385000Y-138430000D01*
X184385000Y-138430000D02*
X183559500Y-137604500D01*
X183559500Y-137604500D02*
X182435500Y-137604500D01*
X186309000Y-135191500D02*
X184785000Y-136715500D01*
X184785000Y-136715500D02*
X184785000Y-138430000D01*
X187800000Y-130175000D02*
X186372500Y-130175000D01*
X187800000Y-130175000D02*
X187800000Y-127795000D01*
X187800000Y-127795000D02*
X187960000Y-127635000D01*
X142400000Y-67310000D02*
X141950000Y-67310000D01*
X141950000Y-67310000D02*
X140930000Y-66290000D01*
X140930000Y-66290000D02*
X140930000Y-64302800D01*
X140930000Y-64302800D02*
X140930000Y-63500000D01*
X129984500Y-115125500D02*
X132080000Y-113030000D01*
X132080000Y-113030000D02*
X133350000Y-113030000D01*
X121920000Y-121960000D02*
X121920000Y-121835000D01*
X121920000Y-121835000D02*
X123105000Y-120650000D01*
X123372200Y-120650000D02*
X124300000Y-120650000D01*
X123105000Y-120650000D02*
X123372200Y-120650000D01*
X168846498Y-121008138D02*
X171109636Y-118745000D01*
X168846498Y-121071638D02*
X168846498Y-121008138D01*
X168569636Y-121348500D02*
X168846498Y-121071638D01*
X171109636Y-118745000D02*
X173548053Y-118745000D01*
X166687500Y-121348500D02*
X168569636Y-121348500D01*
X173548053Y-118745000D02*
X173799500Y-118745000D01*
X166433500Y-121602500D02*
X166687500Y-121348500D01*
X187800000Y-120650000D02*
X186626500Y-120650000D01*
X156210000Y-118110000D02*
X161099500Y-118110000D01*
X156210000Y-121920000D02*
X155100000Y-121920000D01*
X155100000Y-118110000D02*
X156210000Y-118110000D01*
X151193500Y-117157500D02*
X150876000Y-116840000D01*
X150876000Y-116840000D02*
X149700000Y-116840000D01*
X155100000Y-118110000D02*
X154650000Y-118110000D01*
X153761000Y-117221000D02*
X153352500Y-117221000D01*
X154650000Y-118110000D02*
X153761000Y-117221000D01*
X148247800Y-116840000D02*
X149700000Y-116840000D01*
X142240000Y-121920000D02*
X143167800Y-121920000D01*
X143167800Y-121920000D02*
X148247800Y-116840000D01*
X142240000Y-121920000D02*
X140042200Y-121920000D01*
X140042200Y-121920000D02*
X138772200Y-120650000D01*
X142240000Y-118110000D02*
X141312200Y-118110000D01*
X138772200Y-120650000D02*
X137767800Y-120650000D01*
X141312200Y-118110000D02*
X138772200Y-120650000D01*
X137767800Y-120650000D02*
X136840000Y-120650000D01*
X133731000Y-114744500D02*
X133908799Y-114566701D01*
X133908799Y-114566701D02*
X133908799Y-114166599D01*
X133908799Y-114166599D02*
X133350000Y-113607800D01*
X136840000Y-116840000D02*
X133604000Y-116840000D01*
X133604000Y-116840000D02*
X133540500Y-116776500D01*
X133350000Y-113607800D02*
X133350000Y-113030000D01*
X126682500Y-118373427D02*
X126682500Y-118237000D01*
X126682500Y-118237000D02*
X127952500Y-116967000D01*
X125666500Y-121031000D02*
X125285500Y-120650000D01*
X125285500Y-120650000D02*
X124300000Y-120650000D01*
X124300000Y-116840000D02*
X125149073Y-116840000D01*
X125149073Y-116840000D02*
X126682500Y-118373427D01*
X126682500Y-118373427D02*
X126682500Y-120269000D01*
X187800000Y-120650000D02*
X187800000Y-119380000D01*
X187800000Y-121920000D02*
X187800000Y-120650000D01*
X137767800Y-116840000D02*
X136840000Y-116840000D01*
X141312200Y-118110000D02*
X140042200Y-116840000D01*
X140042200Y-116840000D02*
X137767800Y-116840000D01*
X132120000Y-63500000D02*
X132120000Y-59095000D01*
X132120000Y-59095000D02*
X132080000Y-59055000D01*
X132080000Y-68262500D02*
X132120000Y-68222500D01*
X132120000Y-68222500D02*
X132120000Y-63500000D01*
X129700000Y-121920000D02*
X130627800Y-121920000D01*
X131897800Y-120650000D02*
X132547200Y-120650000D01*
X130627800Y-121920000D02*
X131897800Y-120650000D01*
X132547200Y-120650000D02*
X133350000Y-120650000D01*
X130716701Y-120136639D02*
X130716701Y-121353299D01*
X152527000Y-110490000D02*
X148653500Y-110490000D01*
X158496000Y-68072000D02*
X158244553Y-68072000D01*
X158244553Y-68072000D02*
X157482553Y-67310000D01*
X157482553Y-67310000D02*
X156027800Y-67310000D01*
X156027800Y-67310000D02*
X155100000Y-67310000D01*
X164084000Y-71755000D02*
X163766500Y-71437500D01*
X163766500Y-71437500D02*
X163766500Y-71056500D01*
X167800000Y-71755000D02*
X164084000Y-71755000D01*
X186610000Y-61466314D02*
X186610000Y-66040000D01*
X185420000Y-60276314D02*
X186610000Y-61466314D01*
X133350000Y-110490000D02*
X142129153Y-110490000D01*
X142405080Y-110765927D02*
X142582879Y-110943726D01*
X142129153Y-110490000D02*
X142405080Y-110765927D01*
X146875500Y-110490000D02*
X144081511Y-110490000D01*
X175550000Y-120650000D02*
X175100000Y-120650000D01*
X176687200Y-120172200D02*
X176027800Y-120172200D01*
X177165000Y-120650000D02*
X176687200Y-120172200D01*
X176027800Y-120172200D02*
X175550000Y-120650000D01*
X128651000Y-120015000D02*
X130595062Y-120015000D01*
X130150000Y-121920000D02*
X129700000Y-121920000D01*
X130595062Y-120015000D02*
X130716701Y-120136639D01*
X130716701Y-121353299D02*
X130150000Y-121920000D01*
X128346201Y-119710201D02*
X128651000Y-120015000D01*
X128524000Y-118046500D02*
X128346201Y-118224299D01*
X128346201Y-118224299D02*
X128346201Y-119710201D01*
X128524000Y-118046500D02*
X129636500Y-118046500D01*
X129636500Y-118046500D02*
X129700000Y-118110000D01*
X133350000Y-110490000D02*
X133350000Y-111067800D01*
X133350000Y-111067800D02*
X128657300Y-115760500D01*
X128657300Y-115760500D02*
X128587500Y-115760500D01*
X162400000Y-116840000D02*
X157543500Y-116840000D01*
X157543500Y-116840000D02*
X157289500Y-116586000D01*
X167800000Y-118110000D02*
X166872200Y-118110000D01*
X166872200Y-118110000D02*
X165602200Y-116840000D01*
X165602200Y-116840000D02*
X163327800Y-116840000D01*
X163327800Y-116840000D02*
X162400000Y-116840000D01*
X175100000Y-120650000D02*
X174172200Y-120650000D01*
X174172200Y-120650000D02*
X172902200Y-121920000D01*
X172902200Y-121920000D02*
X168727800Y-121920000D01*
X168727800Y-121920000D02*
X167800000Y-121920000D01*
X175100000Y-116840000D02*
X174172200Y-116840000D01*
X174172200Y-116840000D02*
X172902200Y-118110000D01*
X172902200Y-118110000D02*
X168727800Y-118110000D01*
X168727800Y-118110000D02*
X167800000Y-118110000D01*
X179070000Y-118046500D02*
X177863500Y-116840000D01*
X177863500Y-116840000D02*
X175100000Y-116840000D01*
X179070000Y-118110000D02*
X179070000Y-118046500D01*
X178302200Y-120650000D02*
X177165000Y-120650000D01*
X179070000Y-118110000D02*
X177165000Y-120015000D01*
X177165000Y-120015000D02*
X177165000Y-120650000D01*
X180500000Y-118110000D02*
X179070000Y-118110000D01*
X179572200Y-121920000D02*
X178302200Y-120650000D01*
X180500000Y-121920000D02*
X179572200Y-121920000D01*
X187800000Y-123190000D02*
X186872200Y-123190000D01*
X186872200Y-123190000D02*
X185602200Y-121920000D01*
X185602200Y-121920000D02*
X181427800Y-121920000D01*
X181427800Y-121920000D02*
X180500000Y-121920000D01*
D35*
X175260000Y-116840000D02*
X174810000Y-116840000D01*
D34*
X133159500Y-69342000D02*
X132080000Y-68262500D01*
X140081000Y-72453500D02*
X138145801Y-70518301D01*
X138145801Y-70518301D02*
X134399301Y-70518301D01*
X134399301Y-70518301D02*
X133921500Y-70040500D01*
X158750000Y-69870000D02*
X158750000Y-69770000D01*
X156461699Y-75839074D02*
X157731808Y-74568965D01*
X157731699Y-70888301D02*
X158750000Y-69870000D01*
X157731808Y-74568965D02*
X157731808Y-73232017D01*
X145300000Y-88280000D02*
X145300000Y-87729727D01*
X156461699Y-80605393D02*
X156461699Y-75839074D01*
X154517094Y-82549998D02*
X156461699Y-80605393D01*
X147838116Y-85572611D02*
X147894025Y-85572611D01*
X146110894Y-87299833D02*
X147838116Y-85572611D01*
X157731808Y-73232017D02*
X157731699Y-73231908D01*
X145729894Y-87299833D02*
X146110894Y-87299833D01*
X145300000Y-87729727D02*
X145729894Y-87299833D01*
X150916638Y-82549998D02*
X154517094Y-82549998D01*
X147894025Y-85572611D02*
X150916638Y-82549998D01*
X157731699Y-73231908D02*
X157731699Y-70888301D01*
X162400000Y-69215000D02*
X159305000Y-69215000D01*
X159305000Y-69215000D02*
X158750000Y-69770000D01*
X162400000Y-69215000D02*
X162875000Y-69215000D01*
X145963596Y-86944222D02*
X145582596Y-86944222D01*
X144800000Y-87726818D02*
X144800000Y-88280000D01*
X147690818Y-85217000D02*
X145963596Y-86944222D01*
X147746727Y-85217000D02*
X147690818Y-85217000D01*
X154369796Y-82194387D02*
X150769340Y-82194387D01*
X163576000Y-69784000D02*
X163576000Y-68834000D01*
X156083000Y-80481183D02*
X154369796Y-82194387D01*
X163576000Y-68834000D02*
X163390299Y-68648299D01*
X156083000Y-75129062D02*
X156083000Y-80481183D01*
X157376088Y-69263850D02*
X157376088Y-73379206D01*
X162400000Y-70485000D02*
X162875000Y-70485000D01*
X163390299Y-68648299D02*
X157991639Y-68648299D01*
X157376197Y-73379315D02*
X157376197Y-73835865D01*
X157376088Y-73379206D02*
X157376197Y-73379315D01*
X145582596Y-86944222D02*
X144800000Y-87726818D01*
X157991639Y-68648299D02*
X157376088Y-69263850D01*
X162875000Y-70485000D02*
X163576000Y-69784000D01*
X150769340Y-82194387D02*
X147746727Y-85217000D01*
X157376197Y-73835865D02*
X156083000Y-75129062D01*
X161210000Y-74930000D02*
X161210000Y-73961000D01*
X161210000Y-73961000D02*
X160020000Y-72771000D01*
X160020000Y-72771000D02*
X160020000Y-70866000D01*
X160020000Y-70866000D02*
X160401000Y-70485000D01*
X160401000Y-70485000D02*
X162400000Y-70485000D01*
X177412552Y-79073299D02*
X177903912Y-78581940D01*
X165078016Y-96000000D02*
X164620134Y-95542118D01*
X165750000Y-96000000D02*
X165078016Y-96000000D01*
X169193629Y-81762611D02*
X172977327Y-81762611D01*
X172977327Y-81762611D02*
X175666639Y-79073299D01*
X164620134Y-95542118D02*
X164620134Y-95073465D01*
X164490389Y-94943720D02*
X164490389Y-86465851D01*
X175666639Y-79073299D02*
X177412552Y-79073299D01*
X177903912Y-73213957D02*
X176510003Y-71820048D01*
X176510003Y-71820048D02*
X176332204Y-71642249D01*
X164490389Y-86465851D02*
X169193629Y-81762611D01*
X164620134Y-95073465D02*
X164490389Y-94943720D01*
X177903912Y-78581940D02*
X177903912Y-73213957D01*
X175100000Y-69215000D02*
X176276000Y-69215000D01*
X175100000Y-69215000D02*
X172005000Y-69215000D01*
X172005000Y-69215000D02*
X171450000Y-69770000D01*
X164134778Y-95091018D02*
X164264523Y-95220763D01*
X164264523Y-95689415D02*
X165075108Y-96500000D01*
X174752000Y-74803000D02*
X176005942Y-74803000D01*
X173101000Y-73152000D02*
X174752000Y-74803000D01*
X177548301Y-76345359D02*
X177548301Y-78434642D01*
X174117000Y-70485000D02*
X173101000Y-71501000D01*
X173101000Y-71501000D02*
X173101000Y-73152000D01*
X176005942Y-74803000D02*
X177548301Y-76345359D01*
X177548301Y-78434642D02*
X177408052Y-78574891D01*
X169046331Y-81407000D02*
X164134778Y-86318553D01*
X175662138Y-78574891D02*
X172830029Y-81407000D01*
X172830029Y-81407000D02*
X169046331Y-81407000D01*
X164264523Y-95220763D02*
X164264523Y-95689415D01*
X164134778Y-86318553D02*
X164134778Y-95091018D01*
X165075108Y-96500000D02*
X165750000Y-96500000D01*
X175100000Y-70485000D02*
X174117000Y-70485000D01*
X177408052Y-78574891D02*
X175662138Y-78574891D01*
X176052800Y-70485000D02*
X175100000Y-70485000D01*
X185682200Y-72832200D02*
X180124340Y-72832200D01*
X177886364Y-70485000D02*
X176052800Y-70485000D01*
X186510000Y-73660000D02*
X185682200Y-72832200D01*
X178562002Y-71269862D02*
X178562002Y-71160638D01*
X186610000Y-73660000D02*
X186510000Y-73660000D01*
X180124340Y-72832200D02*
X178562002Y-71269862D01*
X178562002Y-71160638D02*
X177886364Y-70485000D01*
X175575000Y-70485000D02*
X175100000Y-70485000D01*
X166450000Y-63500000D02*
X167377800Y-63500000D01*
X176863793Y-64416701D02*
X179723791Y-67276699D01*
X167377800Y-63500000D02*
X168294501Y-64416701D01*
X181569641Y-67276699D02*
X181643301Y-67350359D01*
X180975000Y-69215000D02*
X180500000Y-69215000D01*
X168294501Y-64416701D02*
X176863793Y-64416701D01*
X179723791Y-67276699D02*
X181569641Y-67276699D01*
X181643301Y-67350359D02*
X181643301Y-68546699D01*
X181643301Y-68546699D02*
X180975000Y-69215000D01*
X167019200Y-62103000D02*
X168804846Y-62103000D01*
X166450000Y-63500000D02*
X166450000Y-62672200D01*
X166450000Y-62672200D02*
X167019200Y-62103000D01*
X167800000Y-69215000D02*
X168752800Y-69215000D01*
X168752800Y-69215000D02*
X169354499Y-68613301D01*
X169354499Y-68613301D02*
X178945501Y-68613301D01*
X178945501Y-68613301D02*
X179547200Y-69215000D01*
X179547200Y-69215000D02*
X180500000Y-69215000D01*
X180500000Y-70485000D02*
X180975000Y-70485000D01*
X180975000Y-70485000D02*
X181998912Y-69461088D01*
X181998912Y-69461088D02*
X181998912Y-67203061D01*
X179871088Y-66921088D02*
X177671501Y-64721501D01*
X181998912Y-67203061D02*
X181716939Y-66921088D01*
X181716939Y-66921088D02*
X179871088Y-66921088D01*
X177671501Y-64721501D02*
X176859217Y-63909217D01*
X168752800Y-70485000D02*
X167800000Y-70485000D01*
X173181763Y-69918299D02*
X172313361Y-70786701D01*
X180500000Y-70485000D02*
X179024273Y-70485000D01*
X177269428Y-69918299D02*
X173181763Y-69918299D01*
X178224160Y-69684887D02*
X177502840Y-69684887D01*
X169054501Y-70786701D02*
X168752800Y-70485000D01*
X172313361Y-70786701D02*
X169054501Y-70786701D01*
X179024273Y-70485000D02*
X178224160Y-69684887D01*
X177502840Y-69684887D02*
X177269428Y-69918299D01*
D35*
X176550000Y-63500000D02*
X176450000Y-63500000D01*
D34*
X176450000Y-57865000D02*
X176450000Y-62991990D01*
X140976366Y-127825500D02*
X141104524Y-127953658D01*
X135001000Y-127825500D02*
X140976366Y-127825500D01*
X141104524Y-127953658D02*
X141282323Y-128131457D01*
X152210787Y-129508587D02*
X149359511Y-129508587D01*
X154147200Y-131445000D02*
X152210787Y-129508587D01*
X155100000Y-131445000D02*
X154147200Y-131445000D01*
X149359511Y-129508587D02*
X149108064Y-129508587D01*
X174625000Y-138430000D02*
X175025000Y-138430000D01*
X175025000Y-138430000D02*
X177863500Y-135591500D01*
X177863500Y-135591500D02*
X177863500Y-135128000D01*
X134048500Y-127825500D02*
X132587700Y-127825500D01*
X132587700Y-127825500D02*
X129700000Y-124937800D01*
X129700000Y-124937800D02*
X129700000Y-124460000D01*
X124300000Y-119380000D02*
X124750000Y-119380000D01*
X124750000Y-119380000D02*
X126682500Y-121312500D01*
X126682500Y-121312500D02*
X126682500Y-121541553D01*
X126682500Y-121541553D02*
X126682500Y-121793000D01*
X127503547Y-122614047D02*
X127325748Y-122436248D01*
X129250000Y-124360500D02*
X127503547Y-122614047D01*
X129250000Y-124460000D02*
X129250000Y-124360500D01*
X128350000Y-130810000D02*
X128350000Y-125360000D01*
X128350000Y-125360000D02*
X129250000Y-124460000D01*
X129250000Y-124460000D02*
X129700000Y-124460000D01*
X167800000Y-131445000D02*
X163955062Y-131445000D01*
X163955062Y-131445000D02*
X163388361Y-130878299D01*
X163388361Y-130878299D02*
X156619501Y-130878299D01*
X156619501Y-130878299D02*
X156052800Y-131445000D01*
X156052800Y-131445000D02*
X155100000Y-131445000D01*
X180500000Y-131445000D02*
X179547200Y-131445000D01*
X179547200Y-131445000D02*
X178980499Y-130878299D01*
X178980499Y-130878299D02*
X169319501Y-130878299D01*
X169319501Y-130878299D02*
X168752800Y-131445000D01*
X168752800Y-131445000D02*
X167800000Y-131445000D01*
X193200000Y-131445000D02*
X189355062Y-131445000D01*
X189355062Y-131445000D02*
X188788361Y-130878299D01*
X188788361Y-130878299D02*
X182019501Y-130878299D01*
X182019501Y-130878299D02*
X181452800Y-131445000D01*
X181452800Y-131445000D02*
X180500000Y-131445000D01*
X193675000Y-131445000D02*
X193200000Y-131445000D01*
X180025000Y-131445000D02*
X180500000Y-131445000D01*
X154147200Y-133985000D02*
X155100000Y-133985000D01*
X153443901Y-133281701D02*
X154147200Y-133985000D01*
X146418276Y-124079001D02*
X146999318Y-124660043D01*
X146999318Y-124660043D02*
X146999318Y-132307956D01*
X146418276Y-121128465D02*
X146418276Y-124079001D01*
X152813299Y-118813299D02*
X148733442Y-118813299D01*
X148733442Y-118813299D02*
X146418276Y-121128465D01*
X155100000Y-120650000D02*
X154650000Y-120650000D01*
X146999318Y-132307956D02*
X147973063Y-133281701D01*
X147973063Y-133281701D02*
X153443901Y-133281701D01*
X154650000Y-120650000D02*
X152813299Y-118813299D01*
X156052800Y-133985000D02*
X155100000Y-133985000D01*
X156721101Y-134653301D02*
X156052800Y-133985000D01*
X166178899Y-134653301D02*
X156721101Y-134653301D01*
X166847200Y-133985000D02*
X166178899Y-134653301D01*
X167800000Y-133985000D02*
X166847200Y-133985000D01*
X168752800Y-133985000D02*
X167800000Y-133985000D01*
X169421101Y-134653301D02*
X168752800Y-133985000D01*
X179547200Y-133985000D02*
X178878899Y-134653301D01*
X178878899Y-134653301D02*
X169421101Y-134653301D01*
X180500000Y-133985000D02*
X179547200Y-133985000D01*
X191008000Y-135763000D02*
X190392000Y-135763000D01*
X190392000Y-135763000D02*
X187725000Y-138430000D01*
X187725000Y-138430000D02*
X187325000Y-138430000D01*
X191578899Y-135192101D02*
X191008000Y-135763000D01*
X191578899Y-134653301D02*
X191578899Y-135192101D01*
X155100000Y-120650000D02*
X156027800Y-120650000D01*
X156027800Y-120650000D02*
X157864501Y-118813299D01*
X157864501Y-118813299D02*
X165513299Y-118813299D01*
X165513299Y-118813299D02*
X167350000Y-120650000D01*
X167350000Y-120650000D02*
X167800000Y-120650000D01*
X193200000Y-133985000D02*
X192725000Y-133985000D01*
X187645000Y-138430000D02*
X187325000Y-138430000D01*
X193200000Y-133985000D02*
X192247200Y-133985000D01*
X192247200Y-133985000D02*
X191578899Y-134653301D01*
X182121101Y-134653301D02*
X181452800Y-133985000D01*
X181452800Y-133985000D02*
X180500000Y-133985000D01*
X191578899Y-134653301D02*
X182121101Y-134653301D01*
X147678136Y-121920000D02*
X148772200Y-121920000D01*
X147710540Y-129930540D02*
X147710540Y-124365446D01*
X149225000Y-131445000D02*
X147710540Y-129930540D01*
X148772200Y-121920000D02*
X149700000Y-121920000D01*
X149700000Y-131445000D02*
X149225000Y-131445000D01*
X147129498Y-122468638D02*
X147678136Y-121920000D01*
X147129498Y-123784404D02*
X147129498Y-122468638D01*
X147710540Y-124365446D02*
X147129498Y-123784404D01*
X150957271Y-131445000D02*
X150652800Y-131445000D01*
X160880499Y-132011701D02*
X151523972Y-132011701D01*
X150652800Y-131445000D02*
X149700000Y-131445000D01*
X161447200Y-131445000D02*
X160880499Y-132011701D01*
X151523972Y-132011701D02*
X150957271Y-131445000D01*
X162400000Y-131445000D02*
X161447200Y-131445000D01*
X194597311Y-132557249D02*
X194597311Y-135786889D01*
X194597311Y-135786889D02*
X192532000Y-137852200D01*
X192532000Y-137852200D02*
X192532000Y-138430000D01*
X194188361Y-132148299D02*
X194597311Y-132557249D01*
X149700000Y-121920000D02*
X150150000Y-121920000D01*
X150150000Y-121920000D02*
X150716701Y-122486701D01*
X150716701Y-122486701D02*
X160905499Y-122486701D01*
X161472200Y-121920000D02*
X162400000Y-121920000D01*
X160905499Y-122486701D02*
X161472200Y-121920000D01*
X188752800Y-131445000D02*
X189456099Y-132148299D01*
X187800000Y-131445000D02*
X188752800Y-131445000D01*
X189456099Y-132148299D02*
X194188361Y-132148299D01*
X175100000Y-131445000D02*
X174147200Y-131445000D01*
X174147200Y-131445000D02*
X173580499Y-132011701D01*
X173580499Y-132011701D02*
X163919501Y-132011701D01*
X163352800Y-131445000D02*
X162400000Y-131445000D01*
X163919501Y-132011701D02*
X163352800Y-131445000D01*
X187800000Y-131445000D02*
X186847200Y-131445000D01*
X186847200Y-131445000D02*
X186280499Y-132011701D01*
X186280499Y-132011701D02*
X176619501Y-132011701D01*
X176619501Y-132011701D02*
X176052800Y-131445000D01*
X176052800Y-131445000D02*
X175100000Y-131445000D01*
X138176000Y-72390000D02*
X137000000Y-72390000D01*
X139831000Y-93730000D02*
X139319000Y-93218000D01*
X140739924Y-74144076D02*
X140705261Y-74144076D01*
X141224000Y-73660000D02*
X140739924Y-74144076D01*
X142400000Y-73660000D02*
X141224000Y-73660000D01*
X140350000Y-94230000D02*
X141027800Y-94230000D01*
X141618566Y-93639234D02*
X141618566Y-93256147D01*
X141027800Y-94230000D02*
X141618566Y-93639234D01*
X141618566Y-93256147D02*
X141618566Y-93004700D01*
X141472200Y-68580000D02*
X142400000Y-68580000D01*
X140802364Y-72707498D02*
X141281699Y-72228163D01*
X139042136Y-74422000D02*
X140756638Y-72707498D01*
X140756638Y-72707498D02*
X140802364Y-72707498D01*
X129159000Y-74422000D02*
X139042136Y-74422000D01*
X141455138Y-68580000D02*
X141472200Y-68580000D01*
X125095000Y-78486000D02*
X129159000Y-74422000D01*
X125095000Y-99822000D02*
X125095000Y-78486000D01*
X128485888Y-105752888D02*
X126593611Y-103860611D01*
X138833859Y-102339141D02*
X135420112Y-105752888D01*
X135420112Y-105752888D02*
X128485888Y-105752888D01*
X138833859Y-98871141D02*
X138833859Y-102339141D01*
X126593611Y-103860611D02*
X126593610Y-101320610D01*
X140350000Y-97730000D02*
X139975000Y-97730000D01*
X139975000Y-97730000D02*
X138833859Y-98871141D01*
X126593610Y-101320610D02*
X125095000Y-99822000D01*
X141281699Y-72228163D02*
X141281699Y-68753439D01*
X141281699Y-68753439D02*
X141455138Y-68580000D01*
X140523129Y-102134671D02*
X142300000Y-100357800D01*
X140173707Y-102134671D02*
X140523129Y-102134671D01*
X142300000Y-100357800D02*
X142300000Y-99680000D01*
X135422639Y-106108499D02*
X136199879Y-106108499D01*
X134724138Y-106807000D02*
X135422639Y-106108499D01*
X126492000Y-106807000D02*
X134724138Y-106807000D01*
X137000000Y-68580000D02*
X134579362Y-68580000D01*
X126238000Y-101594908D02*
X126238000Y-106553000D01*
X124739389Y-78338702D02*
X124739389Y-100096297D01*
X136199879Y-106108499D02*
X140173707Y-102134671D01*
X134579362Y-68580000D02*
X133372861Y-69786501D01*
X133291590Y-69786501D02*
X124739389Y-78338702D01*
X133372861Y-69786501D02*
X133291590Y-69786501D01*
X126238000Y-106553000D02*
X126492000Y-106807000D01*
X124739389Y-100096297D02*
X126238000Y-101594908D01*
X146494512Y-92283365D02*
X146263372Y-92052225D01*
X138780359Y-86228301D02*
X138706699Y-86154641D01*
X138706699Y-83670301D02*
X139573000Y-82804000D01*
X138706699Y-86154641D02*
X138706699Y-83670301D01*
X140356243Y-86228301D02*
X138780359Y-86228301D01*
X143778466Y-92052225D02*
X140843000Y-89116759D01*
X146263372Y-92052225D02*
X143778466Y-92052225D01*
X146494512Y-92710089D02*
X146494512Y-92283365D01*
X143800000Y-95404601D02*
X146494512Y-92710089D01*
X140843000Y-89116759D02*
X140843000Y-86715058D01*
X140843000Y-86715058D02*
X140356243Y-86228301D01*
X143800000Y-99680000D02*
X143800000Y-95404601D01*
X141478000Y-82804000D02*
X145669000Y-78613000D01*
X139573000Y-82804000D02*
X141478000Y-82804000D01*
X145669000Y-69215000D02*
X145999201Y-68884799D01*
X145669000Y-78613000D02*
X145669000Y-69215000D01*
X147205734Y-91988769D02*
X146557968Y-91341003D01*
X141993025Y-89148301D02*
X141706611Y-88861887D01*
X142506074Y-89148301D02*
X141993025Y-89148301D01*
X144698776Y-91341003D02*
X142506074Y-89148301D01*
X147205734Y-93004685D02*
X147205734Y-91988769D01*
X144800000Y-99680000D02*
X144800000Y-95410419D01*
X144800000Y-95410419D02*
X147205734Y-93004685D01*
X146557968Y-91341003D02*
X144698776Y-91341003D01*
X141706611Y-88861887D02*
X141706611Y-86471793D01*
X143101857Y-104945201D02*
X141041699Y-107005359D01*
X141041699Y-107005359D02*
X141041699Y-108894641D01*
X145503891Y-104945201D02*
X143101857Y-104945201D01*
X145503891Y-101845229D02*
X145503891Y-104945201D01*
X143027389Y-110510297D02*
X143027389Y-112854747D01*
X146800000Y-100549120D02*
X145503891Y-101845229D01*
X146800000Y-99680000D02*
X146800000Y-100549120D01*
X141041699Y-108894641D02*
X142276356Y-110129298D01*
X141244491Y-114637645D02*
X141244491Y-114744490D01*
X143027389Y-112854747D02*
X141244491Y-114637645D01*
X142646390Y-110129298D02*
X143027389Y-110510297D01*
X142276356Y-110129298D02*
X142646390Y-110129298D01*
X136840000Y-118110000D02*
X138700899Y-118110000D01*
X138700899Y-118110000D02*
X139348590Y-117462309D01*
X139348590Y-117462309D02*
X139526389Y-117284510D01*
X138176000Y-121920000D02*
X136840000Y-121920000D01*
X143383000Y-113157000D02*
X141795500Y-114744500D01*
X143383000Y-107569000D02*
X143383000Y-113157000D01*
X145351500Y-105600500D02*
X143383000Y-107569000D01*
X145923000Y-105600500D02*
X145351500Y-105600500D01*
X145923000Y-101929029D02*
X145923000Y-105600500D01*
X147300000Y-99680000D02*
X147300000Y-100552029D01*
X147300000Y-100552029D02*
X145923000Y-101929029D01*
X150955359Y-89736699D02*
X152273000Y-89736699D01*
X152603201Y-89406498D02*
X152273000Y-89736699D01*
X148300000Y-99680000D02*
X148300000Y-92392058D01*
X148300000Y-92392058D02*
X150955359Y-89736699D01*
X152603201Y-88950799D02*
X152603201Y-89406498D01*
X152781000Y-88773000D02*
X152603201Y-88950799D01*
X146939000Y-114300000D02*
X146939000Y-115131000D01*
X146939000Y-115131000D02*
X142690000Y-119380000D01*
X142690000Y-119380000D02*
X142240000Y-119380000D01*
X151765000Y-98047800D02*
X151765000Y-100584000D01*
X151750000Y-97730000D02*
X151750000Y-98032800D01*
X151750000Y-98032800D02*
X151765000Y-98047800D01*
X152355062Y-97230000D02*
X151750000Y-97230000D01*
X148076909Y-116141500D02*
X147408887Y-115473478D01*
X153538301Y-98413239D02*
X152355062Y-97230000D01*
X153538301Y-103789641D02*
X153538301Y-98413239D01*
X147408887Y-115473478D02*
X147408887Y-107236295D01*
X150876000Y-116141500D02*
X148076909Y-116141500D01*
X151638001Y-117370861D02*
X151638001Y-116903501D01*
X149700000Y-118110000D02*
X150898862Y-118110000D01*
X153304760Y-104023182D02*
X153538301Y-103789641D01*
X150898862Y-118110000D02*
X151638001Y-117370861D01*
X151638001Y-116903501D02*
X150876000Y-116141500D01*
X147408887Y-107236295D02*
X150622000Y-104023182D01*
X150622000Y-104023182D02*
X153304760Y-104023182D01*
X148209000Y-115316000D02*
X148209000Y-115064553D01*
X148209000Y-115064553D02*
X147764498Y-114620051D01*
X147764498Y-114620051D02*
X147764498Y-107383593D01*
X147764498Y-107383593D02*
X150728702Y-104419389D01*
X156038301Y-103789641D02*
X156038301Y-100343409D01*
X150728702Y-104419389D02*
X155408553Y-104419389D01*
X155408553Y-104419389D02*
X156038301Y-103789641D01*
X156038301Y-100343409D02*
X152424892Y-96730000D01*
X152424892Y-96730000D02*
X151750000Y-96730000D01*
X149700000Y-123190000D02*
X148082000Y-123190000D01*
X148082000Y-123190000D02*
X147574000Y-122682000D01*
X154650000Y-119380000D02*
X155100000Y-119380000D01*
X149567889Y-115785889D02*
X151055889Y-115785889D01*
X148209000Y-114427000D02*
X149567889Y-115785889D01*
X158369000Y-100330000D02*
X158369000Y-104140000D01*
X148209000Y-107442000D02*
X148209000Y-114427000D01*
X150876000Y-104775000D02*
X148209000Y-107442000D01*
X157734000Y-104775000D02*
X150876000Y-104775000D01*
X158369000Y-104140000D02*
X157734000Y-104775000D01*
X154432012Y-96393012D02*
X158369000Y-100330000D01*
X151055889Y-115785889D02*
X154650000Y-119380000D01*
X154236187Y-96393012D02*
X154432012Y-96393012D01*
X154073175Y-96230000D02*
X154236187Y-96393012D01*
X151750000Y-96230000D02*
X154073175Y-96230000D01*
X150368000Y-99937338D02*
X151853912Y-101423250D01*
X151072200Y-92230000D02*
X150368000Y-92934200D01*
X151750000Y-92230000D02*
X151072200Y-92230000D01*
X150368000Y-92934200D02*
X150368000Y-99937338D01*
X151853912Y-101423250D02*
X152031711Y-101601049D01*
X153670000Y-123190000D02*
X155100000Y-123190000D01*
X146300000Y-88280000D02*
X146300000Y-89912010D01*
X146300000Y-89912010D02*
X146304000Y-89916010D01*
X125730000Y-121920000D02*
X124300000Y-121920000D01*
X145800000Y-88280000D02*
X145800000Y-89785010D01*
X145800000Y-89785010D02*
X145669000Y-89916010D01*
X125476000Y-118110000D02*
X124300000Y-118110000D01*
X145415852Y-90627222D02*
X145593651Y-90805021D01*
X143800000Y-89011370D02*
X145415852Y-90627222D01*
X143800000Y-88280000D02*
X143800000Y-89011370D01*
X140843000Y-123190000D02*
X142240000Y-123190000D01*
X159852300Y-89090510D02*
X162086588Y-91324798D01*
X162086588Y-91324798D02*
X162186333Y-91324798D01*
X156170406Y-88346040D02*
X156348205Y-88523839D01*
X155536889Y-87401389D02*
X155536889Y-87712523D01*
X155536889Y-87712523D02*
X156170406Y-88346040D01*
X151130000Y-82994500D02*
X155536889Y-87401389D01*
X171200000Y-100950000D02*
X171200000Y-95584211D01*
X171200000Y-95584211D02*
X166992299Y-91376510D01*
X166992299Y-91376510D02*
X166814500Y-91198711D01*
X147510500Y-72390000D02*
X149700000Y-72390000D01*
X155194000Y-80645000D02*
X155194000Y-73754000D01*
X155194000Y-73754000D02*
X155100000Y-73660000D01*
X157035500Y-88582500D02*
X155956000Y-87503000D01*
X155956000Y-87503000D02*
X155956000Y-82042000D01*
X160210500Y-88646000D02*
X159131000Y-88646000D01*
X162255201Y-90690701D02*
X160210500Y-88646000D01*
X162318701Y-90690701D02*
X162255201Y-90690701D01*
X162496500Y-90868500D02*
X162318701Y-90690701D01*
X171577000Y-100149200D02*
X171577000Y-95186500D01*
X171577000Y-95186500D02*
X167322500Y-90932000D01*
X171700000Y-100950000D02*
X171700000Y-100272200D01*
X171700000Y-100272200D02*
X171577000Y-100149200D01*
X183914436Y-92861700D02*
X185610555Y-91165581D01*
X180690359Y-92861699D02*
X183914436Y-92861700D01*
X183489490Y-83819945D02*
X182288081Y-83819945D01*
X176863507Y-100950000D02*
X180492444Y-97321063D01*
X175200000Y-100950000D02*
X176863507Y-100950000D01*
X180616699Y-93525755D02*
X180616699Y-92935359D01*
X180352732Y-76324447D02*
X180352732Y-76073000D01*
X185610555Y-85941010D02*
X183489490Y-83819945D01*
X185610555Y-91165581D02*
X185610555Y-85941010D01*
X180492444Y-97321063D02*
X180492444Y-93650010D01*
X180492444Y-93650010D02*
X180616699Y-93525755D01*
X180352732Y-81884596D02*
X180352732Y-76324447D01*
X182288081Y-83819945D02*
X180352732Y-81884596D01*
X180616699Y-92935359D02*
X180690359Y-92861699D01*
X155100000Y-68580000D02*
X155550000Y-68580000D01*
X156931695Y-73341230D02*
X156931695Y-73592677D01*
X156972000Y-70002000D02*
X156972000Y-73300925D01*
X155550000Y-68580000D02*
X156972000Y-70002000D01*
X156972000Y-73300925D02*
X156931695Y-73341230D01*
X177150000Y-99000000D02*
X178310598Y-99000000D01*
X179997283Y-75803790D02*
X179997283Y-75552343D01*
X182140782Y-84175556D02*
X179908224Y-81942998D01*
X178310598Y-99000000D02*
X180136833Y-97173765D01*
X185254944Y-91018283D02*
X185254944Y-86088308D01*
X179908224Y-81942998D02*
X179908224Y-75892849D01*
X183342192Y-84175556D02*
X182140782Y-84175556D01*
X185254944Y-86088308D02*
X183342192Y-84175556D01*
X183767138Y-92506089D02*
X185254944Y-91018283D01*
X180261088Y-93378455D02*
X180261088Y-92788061D01*
X180136833Y-93502710D02*
X180261088Y-93378455D01*
X180136833Y-97173765D02*
X180136833Y-93502710D01*
X180261088Y-92788061D02*
X180543062Y-92506089D01*
X179908224Y-75892849D02*
X179997283Y-75803790D01*
X180543062Y-92506089D02*
X183767138Y-92506089D01*
X153102656Y-68580000D02*
X153225510Y-68702854D01*
X149700000Y-68580000D02*
X153102656Y-68580000D01*
X181993483Y-84531167D02*
X179552613Y-82090296D01*
X182872422Y-76060333D02*
X191195894Y-76060333D01*
X188823599Y-50571401D02*
X187960000Y-51435000D01*
X191195894Y-76060333D02*
X193725833Y-73530394D01*
X179742476Y-93394155D02*
X179905477Y-93231154D01*
X193725833Y-54221424D02*
X191643000Y-52138591D01*
X179552613Y-82090296D02*
X179552613Y-75331296D01*
X191643000Y-52138591D02*
X191643000Y-50905154D01*
X179742476Y-96154842D02*
X179742476Y-93394155D01*
X193725833Y-73530394D02*
X193725833Y-54221424D01*
X179776076Y-75107833D02*
X181919922Y-75107833D01*
X179552613Y-75331296D02*
X179776076Y-75107833D01*
X183619840Y-92150478D02*
X184899333Y-90870985D01*
X180395764Y-92150478D02*
X183619840Y-92150478D01*
X179905477Y-92640763D02*
X180395764Y-92150478D01*
X179905477Y-93231154D02*
X179905477Y-92640763D01*
X178686096Y-97211222D02*
X179742476Y-96154842D01*
X178241595Y-97211222D02*
X178686096Y-97211222D01*
X177150000Y-97500000D02*
X177952817Y-97500000D01*
X191643000Y-50905154D02*
X191042545Y-50304699D01*
X181919922Y-75107833D02*
X182872422Y-76060333D01*
X184899333Y-86235606D02*
X183194894Y-84531167D01*
X183194894Y-84531167D02*
X181993483Y-84531167D01*
X177952817Y-97500000D02*
X178241595Y-97211222D01*
X189090301Y-50304699D02*
X188823599Y-50571401D01*
X191042545Y-50304699D02*
X189090301Y-50304699D01*
X184899333Y-90870985D02*
X184899333Y-86235606D01*
X182067220Y-74752222D02*
X183019720Y-75704722D01*
X184543722Y-86382904D02*
X183047596Y-84886778D01*
X193369220Y-73384098D02*
X193369220Y-55469655D01*
X191048596Y-75704722D02*
X193369220Y-73384098D01*
X183019720Y-75704722D02*
X191048596Y-75704722D01*
X179374778Y-74752222D02*
X182067220Y-74752222D01*
X179197002Y-82237594D02*
X179197002Y-74929998D01*
X181846184Y-84886777D02*
X179197002Y-82237594D01*
X183047596Y-84886778D02*
X181846184Y-84886777D01*
X184543722Y-90723687D02*
X184543722Y-86382904D01*
X180248466Y-91794867D02*
X183472542Y-91794867D01*
X179549866Y-92493465D02*
X180248466Y-91794867D01*
X179549866Y-93073572D02*
X179549866Y-92493465D01*
X179367488Y-93255950D02*
X179549866Y-93073572D01*
X179367488Y-96026921D02*
X179367488Y-93255950D01*
X178094297Y-96855611D02*
X178538798Y-96855611D01*
X177949908Y-97000000D02*
X178094297Y-96855611D01*
X177150000Y-97000000D02*
X177949908Y-97000000D01*
X179197002Y-74929998D02*
X179374778Y-74752222D01*
X178538798Y-96855611D02*
X179367488Y-96026921D01*
X193369220Y-55469655D02*
X193191421Y-55291856D01*
X183472542Y-91794867D02*
X184543722Y-90723687D01*
X190902846Y-52705000D02*
X192615798Y-54417952D01*
X179194255Y-92346167D02*
X179194255Y-92883251D01*
X184188111Y-86530202D02*
X184188111Y-90507798D01*
X182214518Y-74396611D02*
X179227480Y-74396611D01*
X192615798Y-54417952D02*
X192615798Y-55397389D01*
X178992501Y-95644999D02*
X178137500Y-96500000D01*
X192615798Y-55397389D02*
X192951111Y-55732702D01*
X180101167Y-91439257D02*
X179194255Y-92346167D01*
X183256653Y-91439256D02*
X180101167Y-91439257D01*
X184188111Y-90507798D02*
X183256653Y-91439256D01*
X182900298Y-85242389D02*
X184188111Y-86530202D01*
X178841391Y-82384892D02*
X181698887Y-85242388D01*
X178841391Y-74782700D02*
X178841391Y-82384892D01*
X179227480Y-74396611D02*
X178841391Y-74782700D01*
X190901298Y-75349111D02*
X183167018Y-75349111D01*
X192951111Y-73299298D02*
X190901298Y-75349111D01*
X192951111Y-55732702D02*
X192951111Y-73299298D01*
X183167018Y-75349111D02*
X182214518Y-74396611D01*
X179194255Y-92883251D02*
X178992501Y-93085005D01*
X181698887Y-85242388D02*
X182900298Y-85242389D01*
X178992501Y-93085005D02*
X178992501Y-95644999D01*
X178137500Y-96500000D02*
X178201000Y-96500000D01*
X177150000Y-96500000D02*
X178137500Y-96500000D01*
X191363599Y-54838599D02*
X190500000Y-53975000D01*
X178838644Y-92198869D02*
X179953868Y-91083645D01*
X178485780Y-82532190D02*
X178485780Y-74625220D01*
X192595500Y-56070500D02*
X191363599Y-54838599D01*
X190754000Y-74993500D02*
X192595500Y-73152000D01*
X181551589Y-85597998D02*
X178485780Y-82532190D01*
X182753000Y-85598000D02*
X181551589Y-85597998D01*
X178617513Y-92953924D02*
X178838644Y-92732793D01*
X183832500Y-86677500D02*
X182753000Y-85598000D01*
X183109355Y-91083645D02*
X183832500Y-90360500D01*
X179953868Y-91083645D02*
X183109355Y-91083645D01*
X178617513Y-95210287D02*
X178617513Y-92953924D01*
X182372000Y-74041000D02*
X183324500Y-74993500D01*
X178485780Y-74625220D02*
X179070000Y-74041000D01*
X192595500Y-73152000D02*
X192595500Y-56070500D01*
X178838644Y-92732793D02*
X178838644Y-92198869D01*
X183324500Y-74993500D02*
X190754000Y-74993500D01*
X177827800Y-96000000D02*
X178617513Y-95210287D01*
X179070000Y-74041000D02*
X182372000Y-74041000D01*
X177150000Y-96000000D02*
X177827800Y-96000000D01*
X183832500Y-90360500D02*
X183832500Y-86677500D01*
X176475108Y-94500000D02*
X175831811Y-95143297D01*
X177150000Y-94500000D02*
X176475108Y-94500000D01*
X175831811Y-98928662D02*
X176402951Y-99499802D01*
X176402951Y-99499802D02*
X176402951Y-99751249D01*
X175831811Y-95143297D02*
X175831811Y-98928662D01*
X176530000Y-118046500D02*
X175163500Y-118046500D01*
X175163500Y-118046500D02*
X175100000Y-118110000D01*
X176531198Y-121042129D02*
X176782645Y-121042129D01*
X176427871Y-121042129D02*
X176531198Y-121042129D01*
X175550000Y-121920000D02*
X176427871Y-121042129D01*
X175100000Y-121920000D02*
X175550000Y-121920000D01*
X175476200Y-94996000D02*
X175476200Y-99276200D01*
X175476200Y-99276200D02*
X175577500Y-99377500D01*
X177150000Y-94000000D02*
X176472200Y-94000000D01*
X176472200Y-94000000D02*
X175476200Y-94996000D01*
X159702500Y-81407000D02*
X161671000Y-81407000D01*
X161671000Y-81407000D02*
X162560000Y-82296000D01*
X162560000Y-82296000D02*
X162560000Y-83787844D01*
X162560000Y-83787844D02*
X163481156Y-84709000D01*
X163481156Y-84709000D02*
X164721553Y-84709000D01*
X164721553Y-84709000D02*
X164973000Y-84709000D01*
X177101500Y-90159817D02*
X177101500Y-86420947D01*
X177101500Y-86420947D02*
X177101500Y-86169500D01*
X175526722Y-92532222D02*
X175526722Y-91734595D01*
X175994500Y-93000000D02*
X175526722Y-92532222D01*
X177150000Y-93000000D02*
X175994500Y-93000000D01*
X175526722Y-91734595D02*
X177101500Y-90159817D01*
X148463000Y-57044846D02*
X148463000Y-55985154D01*
X148463000Y-55985154D02*
X147684747Y-55206901D01*
X147684747Y-55206901D02*
X133311901Y-55206901D01*
X133311901Y-55206901D02*
X132943599Y-54838599D01*
X132943599Y-54838599D02*
X132080000Y-53975000D01*
X146189699Y-58280301D02*
X146824699Y-57645301D01*
X146824699Y-57645301D02*
X147862545Y-57645301D01*
X147862545Y-57645301D02*
X148463000Y-57044846D01*
X151511000Y-65151000D02*
X146189699Y-59829699D01*
X146189699Y-59829699D02*
X146189699Y-58280301D01*
X151511000Y-66992500D02*
X151511000Y-65151000D01*
X179006500Y-119380000D02*
X180500000Y-119380000D01*
X174815500Y-91440001D02*
X174815500Y-99314000D01*
X174815500Y-99314000D02*
X174942500Y-99441000D01*
X175200000Y-91055501D02*
X174815500Y-91440001D01*
X175200000Y-89550000D02*
X175200000Y-91055501D01*
X174700000Y-90926868D02*
X174542689Y-91084179D01*
X174700000Y-89550000D02*
X174700000Y-90926868D01*
X162400000Y-118110000D02*
X163512490Y-118110000D01*
X163957000Y-119885447D02*
X163957000Y-119634000D01*
X162400000Y-123190000D02*
X162850000Y-123190000D01*
X162850000Y-123190000D02*
X163957000Y-122083000D01*
X163957000Y-122083000D02*
X163957000Y-119885447D01*
X174200000Y-91655106D02*
X174098187Y-91553293D01*
X174200000Y-90227800D02*
X174200000Y-89550000D01*
X174098187Y-90329613D02*
X174200000Y-90227800D01*
X174098187Y-91553293D02*
X174098187Y-90329613D01*
X174200000Y-91906553D02*
X174200000Y-91655106D01*
X164465000Y-118110000D02*
X164642799Y-118287799D01*
X164642799Y-118287799D02*
X166257799Y-118287799D01*
X166257799Y-118287799D02*
X167350000Y-119380000D01*
X167350000Y-119380000D02*
X167800000Y-119380000D01*
X173700000Y-89550000D02*
X173700000Y-93055000D01*
X173700000Y-93055000D02*
X173736000Y-93091000D01*
X148717000Y-60706000D02*
X148717000Y-60198000D01*
X148717000Y-60198000D02*
X149860000Y-59055000D01*
X149479000Y-61468000D02*
X148717000Y-60706000D01*
X150876000Y-61468000D02*
X149479000Y-61468000D01*
X145910301Y-57924699D02*
X147320000Y-56515000D01*
X164401510Y-120964927D02*
X164401510Y-120713480D01*
X166626583Y-123190000D02*
X164401510Y-120964927D01*
X167800000Y-123190000D02*
X166626583Y-123190000D01*
X169700000Y-89550000D02*
X169700000Y-91404500D01*
X169700000Y-91404500D02*
X171513500Y-93218000D01*
X148183599Y-60807599D02*
X148457909Y-61081909D01*
X147320000Y-59055000D02*
X148183599Y-59918599D01*
X148457909Y-61081909D02*
X148579817Y-61081909D01*
X148183599Y-59918599D02*
X148183599Y-60807599D01*
X148579817Y-61081909D02*
X152844499Y-65346591D01*
X152844499Y-65346591D02*
X152844499Y-67777361D01*
X146878181Y-113753905D02*
X146622602Y-113753905D01*
X141206229Y-115570002D02*
X133135317Y-115570002D01*
X144260396Y-116116111D02*
X141752338Y-116116111D01*
X133135317Y-115570002D02*
X133093437Y-115528122D01*
X146622602Y-113753905D02*
X144260396Y-116116111D01*
X141752338Y-116116111D02*
X141206229Y-115570002D01*
X133093437Y-115528122D02*
X132841990Y-115528122D01*
X148831299Y-114033299D02*
X148653500Y-113855500D01*
X150152111Y-115354111D02*
X148831299Y-114033299D01*
X162270442Y-115354111D02*
X150152111Y-115354111D01*
X162560000Y-115316000D02*
X162308553Y-115316000D01*
X162308553Y-115316000D02*
X162270442Y-115354111D01*
X167214056Y-96607804D02*
X167214056Y-96859251D01*
X167214056Y-95786256D02*
X167214056Y-96607804D01*
X166427800Y-95000000D02*
X167214056Y-95786256D01*
X165750000Y-95000000D02*
X166427800Y-95000000D01*
X131699000Y-116776500D02*
X131699000Y-117831000D01*
X131699000Y-117831000D02*
X130150000Y-119380000D01*
X130150000Y-119380000D02*
X129700000Y-119380000D01*
X129700000Y-123190000D02*
X131272058Y-123190000D01*
X134188361Y-121666701D02*
X134241701Y-121613361D01*
X131272058Y-123190000D02*
X132795357Y-121666701D01*
X134241701Y-121613361D02*
X134241701Y-118811201D01*
X132795357Y-121666701D02*
X134188361Y-121666701D01*
X134241701Y-118811201D02*
X132448299Y-117017799D01*
X132448299Y-117017799D02*
X132270500Y-116840000D01*
X141328136Y-115189000D02*
X133350000Y-115189000D01*
X144338051Y-115506502D02*
X141645638Y-115506502D01*
X146875500Y-113220500D02*
X146624053Y-113220500D01*
X133350000Y-115189000D02*
X133286500Y-115125500D01*
X141645638Y-115506502D02*
X141328136Y-115189000D01*
X146624053Y-113220500D02*
X144338051Y-115506502D01*
X150431500Y-114871500D02*
X148971000Y-113411000D01*
X162052000Y-114871500D02*
X150431500Y-114871500D01*
X165750000Y-95500000D02*
X166355062Y-95500000D01*
X166355062Y-95500000D02*
X166687500Y-95832438D01*
X166687500Y-95832438D02*
X166687500Y-96774000D01*
X165079880Y-97358178D02*
X164731677Y-97358178D01*
X164731677Y-97358178D02*
X164592000Y-97218500D01*
X165221702Y-97500000D02*
X165079880Y-97358178D01*
X165750000Y-97500000D02*
X165221702Y-97500000D01*
X165544500Y-121409437D02*
X165544500Y-121157990D01*
X166753563Y-122618500D02*
X165544500Y-121409437D01*
X179000700Y-122618500D02*
X166753563Y-122618500D01*
X179572200Y-123190000D02*
X179000700Y-122618500D01*
X180500000Y-123190000D02*
X179572200Y-123190000D01*
X155384500Y-94964033D02*
X158098768Y-97678301D01*
X163553301Y-95544801D02*
X163553301Y-97368767D01*
X158098768Y-97678301D02*
X160395697Y-97678301D01*
X160395697Y-97678301D02*
X160918998Y-97155000D01*
X160918998Y-97155000D02*
X160918998Y-96163060D01*
X161959058Y-95123000D02*
X163131500Y-95123000D01*
X160918998Y-96163060D02*
X161959058Y-95123000D01*
X163131500Y-95123000D02*
X163553301Y-95544801D01*
X163553301Y-97368767D02*
X163898323Y-97713789D01*
X163898323Y-97713789D02*
X164932582Y-97713789D01*
X164932582Y-97713789D02*
X165218793Y-98000000D01*
X165218793Y-98000000D02*
X165750000Y-98000000D01*
X137958562Y-68008500D02*
X136168438Y-68008500D01*
X136168438Y-68008500D02*
X133210301Y-65050363D01*
X132343147Y-55105301D02*
X131537455Y-55105301D01*
X133210301Y-65050363D02*
X133210301Y-55972455D01*
X130949699Y-54517545D02*
X130949699Y-52565301D01*
X133210301Y-55972455D02*
X132343147Y-55105301D01*
X131537455Y-55105301D02*
X130949699Y-54517545D01*
X130949699Y-52565301D02*
X131216401Y-52298599D01*
X131216401Y-52298599D02*
X132080000Y-51435000D01*
X139001500Y-70672947D02*
X139001500Y-69051438D01*
X139001500Y-69051438D02*
X137958562Y-68008500D01*
X140716000Y-72136000D02*
X140464553Y-72136000D01*
X140464553Y-72136000D02*
X139001500Y-70672947D01*
X185420000Y-59055000D02*
X185420000Y-60276314D01*
X141732000Y-72390000D02*
X140970000Y-73152000D01*
X142400000Y-72390000D02*
X141732000Y-72390000D01*
X147354929Y-130654991D02*
X147354929Y-124512744D01*
X148669650Y-119380000D02*
X148772200Y-119380000D01*
X148711639Y-132011701D02*
X147354929Y-130654991D01*
X146773887Y-121275763D02*
X148669650Y-119380000D01*
X147354929Y-124512744D02*
X146773887Y-123931703D01*
X151021063Y-132011701D02*
X148711639Y-132011701D01*
X151724362Y-132715000D02*
X151021063Y-132011701D01*
X148772200Y-119380000D02*
X149700000Y-119380000D01*
X155100000Y-132715000D02*
X151724362Y-132715000D01*
X146773887Y-123931703D02*
X146773887Y-121275763D01*
X156141701Y-133281701D02*
X155575000Y-132715000D01*
X155575000Y-132715000D02*
X155100000Y-132715000D01*
X163388361Y-133281701D02*
X156141701Y-133281701D01*
X163955062Y-132715000D02*
X163388361Y-133281701D01*
X167800000Y-132715000D02*
X163955062Y-132715000D01*
X194241701Y-133281701D02*
X194241701Y-134453299D01*
X194241701Y-134453299D02*
X190265000Y-138430000D01*
X190265000Y-138430000D02*
X189865000Y-138430000D01*
X149700000Y-119380000D02*
X150627800Y-119380000D01*
X161950000Y-119380000D02*
X162400000Y-119380000D01*
X150627800Y-119380000D02*
X152464501Y-121216701D01*
X152464501Y-121216701D02*
X160113299Y-121216701D01*
X160113299Y-121216701D02*
X161950000Y-119380000D01*
X193200000Y-132715000D02*
X193675000Y-132715000D01*
X193675000Y-132715000D02*
X194241701Y-133281701D01*
X180500000Y-132715000D02*
X179547200Y-132715000D01*
X179547200Y-132715000D02*
X178980499Y-133281701D01*
X178980499Y-133281701D02*
X169319501Y-133281701D01*
X169319501Y-133281701D02*
X168752800Y-132715000D01*
X168752800Y-132715000D02*
X167800000Y-132715000D01*
X193200000Y-132715000D02*
X192247200Y-132715000D01*
X192247200Y-132715000D02*
X191680499Y-133281701D01*
X191680499Y-133281701D02*
X182019501Y-133281701D01*
X182019501Y-133281701D02*
X181452800Y-132715000D01*
X181452800Y-132715000D02*
X180500000Y-132715000D01*
X152844499Y-67777361D02*
X153325491Y-68258353D01*
X153670011Y-68489493D02*
X153670011Y-68870011D01*
X153325491Y-68258353D02*
X153438871Y-68258353D01*
X153670011Y-68870011D02*
X154650000Y-69850000D01*
X153438871Y-68258353D02*
X153670011Y-68489493D01*
X154650000Y-69850000D02*
X155100000Y-69850000D01*
X155100000Y-69850000D02*
X153578667Y-69850000D01*
X152910366Y-69181699D02*
X147309563Y-69181699D01*
X143327800Y-69850000D02*
X142400000Y-69850000D01*
X147309563Y-69181699D02*
X146263362Y-68135498D01*
X146263362Y-68135498D02*
X145042302Y-68135498D01*
X145042302Y-68135498D02*
X143327800Y-69850000D01*
X153578667Y-69850000D02*
X152910366Y-69181699D01*
X155803599Y-57378599D02*
X154940000Y-56515000D01*
X153289000Y-62378846D02*
X156070301Y-59597545D01*
X156070301Y-57645301D02*
X155803599Y-57378599D01*
X153289000Y-67564000D02*
X153289000Y-62378846D01*
X156070301Y-59597545D02*
X156070301Y-57645301D01*
X146653884Y-69886917D02*
X146653884Y-69635470D01*
X146532611Y-70008190D02*
X146653884Y-69886917D01*
X146532611Y-78779447D02*
X146532611Y-70008190D01*
X141706611Y-86471793D02*
X141141699Y-85906881D01*
X141141699Y-84170359D02*
X146532611Y-78779447D01*
X141141699Y-85906881D02*
X141141699Y-84170359D01*
X145999201Y-68884799D02*
X146177000Y-68707000D01*
X153238201Y-60756799D02*
X149783799Y-60756799D01*
X149783799Y-60756799D02*
X149606000Y-60579000D01*
X154940000Y-59055000D02*
X153238201Y-60756799D01*
X193200000Y-119380000D02*
X193650000Y-119380000D01*
X193650000Y-119380000D02*
X194127800Y-119857800D01*
X194127800Y-119857800D02*
X196715108Y-119857800D01*
X196715108Y-119857800D02*
X197045610Y-119527298D01*
X197045610Y-119527298D02*
X197045610Y-119380000D01*
X193200000Y-118110000D02*
X196327800Y-118110000D01*
X196327800Y-118110000D02*
X196770000Y-117667800D01*
X196770000Y-117667800D02*
X196770000Y-116840000D01*
X193200000Y-123190000D02*
X196247800Y-123190000D01*
X196247800Y-123190000D02*
X196690000Y-123632200D01*
X196690000Y-123632200D02*
X196690000Y-124460000D01*
X196690000Y-119380000D02*
X196590000Y-119380000D01*
X193650000Y-123190000D02*
X193200000Y-123190000D01*
X165825000Y-92075000D02*
X165750000Y-92000000D01*
X193200000Y-121920000D02*
X196770000Y-121920000D01*
M02*
