M48
;DRILL file {KiCad 4.0.4-stable} date Tue Apr 25 21:09:16 2017
;FORMAT={-:-/ absolute / inch / decimal}
FMAT,2
INCH,TZ
T1C0.004
T2C0.008
T3C0.040
T4C0.125
%
G90
G05
M72
T1
X4.94Y-4.65
X4.9475Y-4.765
X4.95Y-4.8
X4.9875Y-4.735
X4.9875Y-4.795
X5.0128Y-4.8203
X5.0375Y-4.605
X5.06Y-4.6475
X5.0625Y-4.5575
X5.1Y-5.3
X5.1175Y-4.5325
X5.14Y-5.3725
X5.185Y-4.5975
X5.2075Y-4.6
X5.23Y-4.5484
X5.2425Y-2.73
X5.2475Y-4.5325
X5.2575Y-4.5975
X5.265Y-4.5175
X5.2725Y-2.7575
X5.2775Y-5.01
X5.2775Y-5.0325
X5.315Y-5.01
X5.315Y-5.0325
X5.44Y-2.85
X5.44Y-4.8
X5.485Y-3.67
X5.4932Y-4.6175
X5.515Y-2.8525
X5.5396Y-2.9191
X5.54Y-2.84
X5.545Y-4.85
X5.55Y-2.88
X5.5608Y-4.5175
X5.5623Y-5.0445
X5.5755Y-3.6616
X5.5825Y-4.5175
X5.6Y-3.6
X5.6135Y-4.3679
X5.645Y-5.3425
X5.6725Y-4.35
X5.68Y-5.3675
X5.7Y-5.05
X5.7Y-5.11
X5.732Y-3.575
X5.735Y-3.54
X5.755Y-2.705
X5.7566Y-2.7295
X5.76Y-3.54
X5.763Y-5.0693
X5.7649Y-5.0952
X5.7738Y-2.7416
X5.7775Y-5.225
X5.7825Y-4.35
X5.7825Y-4.4575
X5.7826Y-4.4785
X5.785Y-4.5
X5.79Y-2.765
X5.8075Y-2.85
X5.81Y-4.83
X5.833Y-5.0951
X5.835Y-4.54
X5.84Y-5.225
X5.8525Y-4.35
X5.8525Y-4.4825
X5.8536Y-5.0861
X5.865Y-4.465
X5.8704Y-5.0988
X5.89Y-2.385
X5.94Y-2.42
X5.9475Y-5.225
X5.95Y-3.2675
X5.9525Y-4.6125
X5.965Y-2.6375
X5.975Y-3.96
X5.9802Y-3.5154
X5.9855Y-4.
X6.005Y-4.35
X6.015Y-3.495
X6.02Y-3.605
X6.0325Y-2.7048
X6.035Y-2.66
X6.0375Y-4.615
X6.05Y-4.85
X6.0801Y-3.7448
X6.0807Y-3.7775
X6.1003Y-3.4925
X6.1033Y-3.4512
X6.11Y-3.175
X6.1175Y-3.7387
X6.125Y-5.08
X6.14Y-3.23
X6.15Y-4.65
X6.15Y-4.8
X6.1554Y-3.4852
X6.1575Y-5.2225
X6.165Y-5.12
X6.1784Y-2.8973
X6.1825Y-3.4875
X6.1925Y-4.59
X6.1958Y-3.4713
X6.2Y-3.57
X6.24Y-2.68
X6.245Y-3.4725
X6.265Y-3.49
X6.2875Y-3.205
X6.29Y-3.5525
X6.2934Y-3.5075
X6.315Y-4.8425
X6.3425Y-4.65
X6.3781Y-3.6152
X6.38Y-4.5225
X6.3853Y-3.5955
X6.3975Y-3.5775
X6.4Y-4.54
X6.42Y-3.29
X6.4253Y-3.5547
X6.4269Y-3.5321
X6.434Y-3.3068
X6.4375Y-4.65
X6.4475Y-2.7975
X6.455Y-4.71
X6.4725Y-4.7525
X6.475Y-4.65
X6.48Y-3.8275
X6.495Y-3.335
X6.5175Y-4.77
X6.5525Y-4.7875
X6.5625Y-3.81
X6.5675Y-3.5905
X6.58Y-3.63
X6.5832Y-3.8134
X6.5875Y-3.58
X6.605Y-5.0275
X6.665Y-4.7725
X6.7Y-3.565
X6.705Y-3.1775
X6.72Y-3.48
X6.7275Y-5.4175
X6.7525Y-3.67
X6.805Y-4.93
X6.84Y-3.665
X6.8425Y-4.675
X6.8583Y-3.6184
X6.8718Y-3.586
X6.8875Y-3.915
X6.9034Y-3.403
X6.9125Y-3.9125
X6.9254Y-3.3285
X6.94Y-2.725
X6.94Y-4.05
X6.9422Y-2.8206
X6.943Y-3.2598
X6.944Y-3.8777
X6.945Y-3.9272
X6.95Y-4.6475
X6.95Y-5.225
X6.9599Y-4.7654
X6.9624Y-3.2437
X6.9656Y-3.3067
X6.97Y-5.32
X6.9725Y-3.3925
X7.0025Y-5.32
X7.025Y-5.225
X7.0465Y-5.1527
X7.0475Y-4.7
X7.0865Y-2.9745
X7.0948Y-4.05
X7.1005Y-2.995
X7.1063Y-4.75
X7.1225Y-3.0875
X7.1225Y-4.9475
X7.1225Y-5.
X7.1235Y-3.13
X7.1325Y-3.2301
X7.1464Y-3.196
X7.1539Y-3.2327
X7.1585Y-3.1257
X7.1732Y-3.2244
X7.175Y-5.225
X7.1799Y-3.1225
X7.1808Y-3.2794
X7.1825Y-5.4175
X7.1854Y-3.1702
X7.1855Y-3.2589
X7.2084Y-4.5084
X7.2416Y-4.5416
X7.335Y-5.3225
X7.3375Y-5.125
X7.3475Y-4.75
X7.3725Y-4.4175
X7.4Y-5.025
X7.5353Y-4.3053
X7.606Y-2.1768
X7.7Y-4.53
X7.7Y-4.75
T2
X4.84Y-4.9
X5.33Y-4.9
X5.34Y-2.6
X5.34Y-2.75
X5.34Y-2.9
X5.5875Y-4.09
X5.66Y-2.8
X5.835Y-5.275
X5.84Y-2.75
X5.84Y-2.9
X5.8409Y-4.75
X5.8409Y-4.8999
X5.8925Y-4.0875
X5.8935Y-2.6
X5.9Y-2.99
X6.05Y-2.99
X6.1Y-4.005
X6.1545Y-2.8034
X6.1879Y-3.0012
X6.34Y-2.825
X6.34Y-4.9
X6.34Y-5.275
X6.35Y-5.05
X6.355Y-3.96
X6.3609Y-3.8456
X6.58Y-4.355
X6.75Y-3.4
X6.84Y-5.275
X6.8405Y-2.8255
X6.8434Y-4.8998
X6.85Y-5.05
X6.938Y-3.6216
X7.02Y-3.86
X7.025Y-3.5825
X7.085Y-3.89
X7.1925Y-3.7
X7.335Y-5.275
X7.34Y-4.9
X7.35Y-5.05
X7.4Y-3.2
X7.55Y-3.178
X7.6963Y-3.2037
X7.85Y-5.05
T3
X5.Y-2.025
X5.Y-2.125
X5.Y-2.225
X5.Y-2.325
X5.1Y-2.025
X5.1Y-2.125
X5.1Y-2.225
X5.1Y-2.325
X5.2Y-2.025
X5.2Y-2.125
X5.2Y-2.225
X5.2Y-2.325
X5.3Y-2.025
X5.3Y-2.125
X5.3Y-2.225
X5.3Y-2.325
X5.4Y-2.025
X5.4Y-2.125
X5.4Y-2.225
X5.4Y-2.325
X5.5Y-2.025
X5.5Y-2.125
X5.5Y-2.225
X5.5Y-2.325
X5.6Y-2.025
X5.6Y-2.125
X5.6Y-2.225
X5.6Y-2.325
X5.7Y-2.025
X5.7Y-2.125
X5.7Y-2.225
X5.7Y-2.325
X5.8Y-2.025
X5.8Y-2.125
X5.8Y-2.225
X5.8Y-2.325
X5.9Y-2.025
X5.9Y-2.125
X5.9Y-2.225
X5.9Y-2.325
X6.Y-2.025
X6.Y-2.125
X6.Y-2.225
X6.Y-2.325
X6.1Y-2.025
X6.1Y-2.125
X6.1Y-2.225
X6.1Y-2.325
X6.2Y-2.025
X6.2Y-2.125
X6.2Y-2.225
X6.2Y-2.325
X6.3Y-2.025
X6.3Y-2.125
X6.3Y-2.225
X6.3Y-2.325
X6.4Y-2.025
X6.4Y-2.125
X6.4Y-2.225
X6.4Y-2.325
X6.5Y-2.025
X6.5Y-2.125
X6.5Y-2.225
X6.5Y-2.325
X6.6Y-2.025
X6.6Y-2.125
X6.6Y-2.225
X6.6Y-2.325
X6.7Y-2.025
X6.7Y-2.125
X6.7Y-2.225
X6.7Y-2.325
X6.8Y-2.025
X6.8Y-2.125
X6.8Y-2.225
X6.8Y-2.325
X6.9Y-2.025
X6.9Y-2.125
X6.9Y-2.225
X6.9Y-2.325
X7.Y-2.025
X7.Y-2.125
X7.Y-2.225
X7.Y-2.325
X7.1Y-2.025
X7.1Y-2.125
X7.1Y-2.225
X7.1Y-2.325
X7.2Y-2.025
X7.2Y-2.125
X7.2Y-2.225
X7.2Y-2.325
X7.3Y-2.025
X7.3Y-2.125
X7.3Y-2.225
X7.3Y-2.325
X7.4Y-2.025
X7.4Y-2.125
X7.4Y-2.225
X7.4Y-2.325
X7.4Y-3.65
X7.4Y-3.75
X7.4Y-3.85
X7.4Y-3.95
X7.4Y-4.05
X7.4Y-4.15
X7.4Y-4.25
X7.4Y-4.35
X7.5Y-2.025
X7.5Y-2.125
X7.5Y-2.225
X7.5Y-2.325
X7.5Y-3.65
X7.5Y-3.75
X7.5Y-3.85
X7.5Y-3.95
X7.5Y-4.05
X7.5Y-4.15
X7.5Y-4.25
X7.5Y-4.35
T4
X4.65Y-5.4
X4.8Y-2.025
X7.7Y-2.025
X7.8Y-5.4
T0
M30
