%TF.GenerationSoftware,KiCad,Pcbnew,5.0.0*%
%TF.CreationDate,2018-07-28T16:51:02-05:00*%
%TF.ProjectId,motherboard,6D6F74686572626F6172642E6B696361,rev?*%
%TF.SameCoordinates,Original*%
%TF.FileFunction,Legend,Top*%
%TF.FilePolarity,Positive*%
%FSLAX46Y46*%
G04 Gerber Fmt 4.6, Leading zero omitted, Abs format (unit mm)*
G04 Created by KiCad (PCBNEW 5.0.0) date Sat Jul 28 16:51:02 2018*
%MOMM*%
%LPD*%
G01*
G04 APERTURE LIST*
%ADD10C,0.150000*%
%ADD11C,0.300000*%
%ADD12C,0.120000*%
%ADD13R,1.900000X1.000000*%
%ADD14R,0.650000X1.400000*%
%ADD15R,1.400000X0.650000*%
%ADD16R,2.100000X1.050000*%
%ADD17R,1.950000X1.000000*%
%ADD18R,1.900000X1.700000*%
%ADD19R,1.650000X1.900000*%
%ADD20R,2.000000X1.200000*%
%ADD21R,2.300000X1.700000*%
%ADD22R,1.900000X1.650000*%
%ADD23R,1.598880X2.998420*%
%ADD24R,1.598880X3.000960*%
%ADD25R,2.998420X1.598880*%
%ADD26R,3.000960X1.598880*%
%ADD27R,1.700000X1.900000*%
%ADD28R,1.200100X2.200860*%
%ADD29R,2.200000X2.200000*%
%ADD30R,1.700000X2.300000*%
%ADD31R,2.127200X2.127200*%
%ADD32O,2.127200X2.127200*%
%ADD33R,2.100000X2.100000*%
%ADD34O,2.100000X2.100000*%
%ADD35C,6.750000*%
G04 APERTURE END LIST*
D10*
X151000152Y-100680780D02*
X151000152Y-99680780D01*
X151381104Y-99680780D01*
X151476342Y-99728400D01*
X151523961Y-99776019D01*
X151571580Y-99871257D01*
X151571580Y-100014114D01*
X151523961Y-100109352D01*
X151476342Y-100156971D01*
X151381104Y-100204590D01*
X151000152Y-100204590D01*
X152000152Y-100680780D02*
X152000152Y-100014114D01*
X152000152Y-100204590D02*
X152047771Y-100109352D01*
X152095390Y-100061733D01*
X152190628Y-100014114D01*
X152285866Y-100014114D01*
X152619200Y-100680780D02*
X152619200Y-100014114D01*
X152619200Y-99680780D02*
X152571580Y-99728400D01*
X152619200Y-99776019D01*
X152666819Y-99728400D01*
X152619200Y-99680780D01*
X152619200Y-99776019D01*
X153095390Y-100680780D02*
X153095390Y-100014114D01*
X153095390Y-100109352D02*
X153143009Y-100061733D01*
X153238247Y-100014114D01*
X153381104Y-100014114D01*
X153476342Y-100061733D01*
X153523961Y-100156971D01*
X153523961Y-100680780D01*
X153523961Y-100156971D02*
X153571580Y-100061733D01*
X153666819Y-100014114D01*
X153809676Y-100014114D01*
X153904914Y-100061733D01*
X153952533Y-100156971D01*
X153952533Y-100680780D01*
X154857295Y-100680780D02*
X154857295Y-100156971D01*
X154809676Y-100061733D01*
X154714438Y-100014114D01*
X154523961Y-100014114D01*
X154428723Y-100061733D01*
X154857295Y-100633161D02*
X154762057Y-100680780D01*
X154523961Y-100680780D01*
X154428723Y-100633161D01*
X154381104Y-100537923D01*
X154381104Y-100442685D01*
X154428723Y-100347447D01*
X154523961Y-100299828D01*
X154762057Y-100299828D01*
X154857295Y-100252209D01*
X155333485Y-100680780D02*
X155333485Y-100014114D01*
X155333485Y-100204590D02*
X155381104Y-100109352D01*
X155428723Y-100061733D01*
X155523961Y-100014114D01*
X155619200Y-100014114D01*
X155857295Y-100014114D02*
X156095390Y-100680780D01*
X156333485Y-100014114D02*
X156095390Y-100680780D01*
X156000152Y-100918876D01*
X155952533Y-100966495D01*
X155857295Y-101014114D01*
D11*
X115034285Y-107411428D02*
X114962857Y-107340000D01*
X114891428Y-107125714D01*
X114891428Y-106982857D01*
X114962857Y-106768571D01*
X115105714Y-106625714D01*
X115248571Y-106554285D01*
X115534285Y-106482857D01*
X115748571Y-106482857D01*
X116034285Y-106554285D01*
X116177142Y-106625714D01*
X116320000Y-106768571D01*
X116391428Y-106982857D01*
X116391428Y-107125714D01*
X116320000Y-107340000D01*
X116248571Y-107411428D01*
X115891428Y-107911428D02*
X114891428Y-108268571D01*
X115891428Y-108625714D02*
X114891428Y-108268571D01*
X114534285Y-108125714D01*
X114462857Y-108054285D01*
X114391428Y-107911428D01*
X114962857Y-109125714D02*
X114891428Y-109340000D01*
X114891428Y-109697142D01*
X114962857Y-109840000D01*
X115034285Y-109911428D01*
X115177142Y-109982857D01*
X115320000Y-109982857D01*
X115462857Y-109911428D01*
X115534285Y-109840000D01*
X115605714Y-109697142D01*
X115677142Y-109411428D01*
X115748571Y-109268571D01*
X115820000Y-109197142D01*
X115962857Y-109125714D01*
X116105714Y-109125714D01*
X116248571Y-109197142D01*
X116320000Y-109268571D01*
X116391428Y-109411428D01*
X116391428Y-109768571D01*
X116320000Y-109982857D01*
X114891428Y-111268571D02*
X115677142Y-111268571D01*
X115820000Y-111197142D01*
X115891428Y-111054285D01*
X115891428Y-110768571D01*
X115820000Y-110625714D01*
X114962857Y-111268571D02*
X114891428Y-111125714D01*
X114891428Y-110768571D01*
X114962857Y-110625714D01*
X115105714Y-110554285D01*
X115248571Y-110554285D01*
X115391428Y-110625714D01*
X115462857Y-110768571D01*
X115462857Y-111125714D01*
X115534285Y-111268571D01*
X115891428Y-111768571D02*
X115891428Y-112340000D01*
X116391428Y-111982857D02*
X115105714Y-111982857D01*
X114962857Y-112054285D01*
X114891428Y-112197142D01*
X114891428Y-112340000D01*
X114891428Y-113982857D02*
X116391428Y-113982857D01*
X115320000Y-114482857D01*
X116391428Y-114982857D01*
X114891428Y-114982857D01*
X114891428Y-115911428D02*
X114962857Y-115768571D01*
X115034285Y-115697142D01*
X115177142Y-115625714D01*
X115605714Y-115625714D01*
X115748571Y-115697142D01*
X115820000Y-115768571D01*
X115891428Y-115911428D01*
X115891428Y-116125714D01*
X115820000Y-116268571D01*
X115748571Y-116340000D01*
X115605714Y-116411428D01*
X115177142Y-116411428D01*
X115034285Y-116340000D01*
X114962857Y-116268571D01*
X114891428Y-116125714D01*
X114891428Y-115911428D01*
X115891428Y-116840000D02*
X115891428Y-117411428D01*
X116391428Y-117054285D02*
X115105714Y-117054285D01*
X114962857Y-117125714D01*
X114891428Y-117268571D01*
X114891428Y-117411428D01*
X114891428Y-117911428D02*
X116391428Y-117911428D01*
X114891428Y-118554285D02*
X115677142Y-118554285D01*
X115820000Y-118482857D01*
X115891428Y-118339999D01*
X115891428Y-118125714D01*
X115820000Y-117982857D01*
X115748571Y-117911428D01*
X114962857Y-119839999D02*
X114891428Y-119697142D01*
X114891428Y-119411428D01*
X114962857Y-119268571D01*
X115105714Y-119197142D01*
X115677142Y-119197142D01*
X115820000Y-119268571D01*
X115891428Y-119411428D01*
X115891428Y-119697142D01*
X115820000Y-119839999D01*
X115677142Y-119911428D01*
X115534285Y-119911428D01*
X115391428Y-119197142D01*
X114891428Y-120554285D02*
X115891428Y-120554285D01*
X115605714Y-120554285D02*
X115748571Y-120625714D01*
X115820000Y-120697142D01*
X115891428Y-120839999D01*
X115891428Y-120982857D01*
X114891428Y-121482857D02*
X116391428Y-121482857D01*
X115820000Y-121482857D02*
X115891428Y-121625714D01*
X115891428Y-121911428D01*
X115820000Y-122054285D01*
X115748571Y-122125714D01*
X115605714Y-122197142D01*
X115177142Y-122197142D01*
X115034285Y-122125714D01*
X114962857Y-122054285D01*
X114891428Y-121911428D01*
X114891428Y-121625714D01*
X114962857Y-121482857D01*
X114891428Y-123054285D02*
X114962857Y-122911428D01*
X115034285Y-122839999D01*
X115177142Y-122768571D01*
X115605714Y-122768571D01*
X115748571Y-122839999D01*
X115820000Y-122911428D01*
X115891428Y-123054285D01*
X115891428Y-123268571D01*
X115820000Y-123411428D01*
X115748571Y-123482857D01*
X115605714Y-123554285D01*
X115177142Y-123554285D01*
X115034285Y-123482857D01*
X114962857Y-123411428D01*
X114891428Y-123268571D01*
X114891428Y-123054285D01*
X114891428Y-124839999D02*
X115677142Y-124839999D01*
X115820000Y-124768571D01*
X115891428Y-124625714D01*
X115891428Y-124339999D01*
X115820000Y-124197142D01*
X114962857Y-124839999D02*
X114891428Y-124697142D01*
X114891428Y-124339999D01*
X114962857Y-124197142D01*
X115105714Y-124125714D01*
X115248571Y-124125714D01*
X115391428Y-124197142D01*
X115462857Y-124339999D01*
X115462857Y-124697142D01*
X115534285Y-124839999D01*
X114891428Y-125554285D02*
X115891428Y-125554285D01*
X115605714Y-125554285D02*
X115748571Y-125625714D01*
X115820000Y-125697142D01*
X115891428Y-125839999D01*
X115891428Y-125982857D01*
X114891428Y-127125714D02*
X116391428Y-127125714D01*
X114962857Y-127125714D02*
X114891428Y-126982857D01*
X114891428Y-126697142D01*
X114962857Y-126554285D01*
X115034285Y-126482857D01*
X115177142Y-126411428D01*
X115605714Y-126411428D01*
X115748571Y-126482857D01*
X115820000Y-126554285D01*
X115891428Y-126697142D01*
X115891428Y-126982857D01*
X115820000Y-127125714D01*
X114665238Y-49591428D02*
X116665238Y-49591428D01*
X115236666Y-50091428D01*
X116665238Y-50591428D01*
X114665238Y-50591428D01*
X114665238Y-51948571D02*
X115712857Y-51948571D01*
X115903333Y-51877142D01*
X115998571Y-51734285D01*
X115998571Y-51448571D01*
X115903333Y-51305714D01*
X114760476Y-51948571D02*
X114665238Y-51805714D01*
X114665238Y-51448571D01*
X114760476Y-51305714D01*
X114950952Y-51234285D01*
X115141428Y-51234285D01*
X115331904Y-51305714D01*
X115427142Y-51448571D01*
X115427142Y-51805714D01*
X115522380Y-51948571D01*
X114665238Y-53305714D02*
X116665238Y-53305714D01*
X114760476Y-53305714D02*
X114665238Y-53162857D01*
X114665238Y-52877142D01*
X114760476Y-52734285D01*
X114855714Y-52662857D01*
X115046190Y-52591428D01*
X115617619Y-52591428D01*
X115808095Y-52662857D01*
X115903333Y-52734285D01*
X115998571Y-52877142D01*
X115998571Y-53162857D01*
X115903333Y-53305714D01*
X114760476Y-54591428D02*
X114665238Y-54448571D01*
X114665238Y-54162857D01*
X114760476Y-54020000D01*
X114950952Y-53948571D01*
X115712857Y-53948571D01*
X115903333Y-54020000D01*
X115998571Y-54162857D01*
X115998571Y-54448571D01*
X115903333Y-54591428D01*
X115712857Y-54662857D01*
X115522380Y-54662857D01*
X115331904Y-53948571D01*
X114665238Y-56662857D02*
X114760476Y-56520000D01*
X114855714Y-56448571D01*
X115046190Y-56377142D01*
X115617619Y-56377142D01*
X115808095Y-56448571D01*
X115903333Y-56520000D01*
X115998571Y-56662857D01*
X115998571Y-56877142D01*
X115903333Y-57020000D01*
X115808095Y-57091428D01*
X115617619Y-57162857D01*
X115046190Y-57162857D01*
X114855714Y-57091428D01*
X114760476Y-57020000D01*
X114665238Y-56877142D01*
X114665238Y-56662857D01*
X115998571Y-57805714D02*
X114665238Y-57805714D01*
X115808095Y-57805714D02*
X115903333Y-57877142D01*
X115998571Y-58020000D01*
X115998571Y-58234285D01*
X115903333Y-58377142D01*
X115712857Y-58448571D01*
X114665238Y-58448571D01*
X115712857Y-60305714D02*
X115712857Y-60805714D01*
X114665238Y-61020000D02*
X114665238Y-60305714D01*
X116665238Y-60305714D01*
X116665238Y-61020000D01*
X114665238Y-62305714D02*
X115712857Y-62305714D01*
X115903333Y-62234285D01*
X115998571Y-62091428D01*
X115998571Y-61805714D01*
X115903333Y-61662857D01*
X114760476Y-62305714D02*
X114665238Y-62162857D01*
X114665238Y-61805714D01*
X114760476Y-61662857D01*
X114950952Y-61591428D01*
X115141428Y-61591428D01*
X115331904Y-61662857D01*
X115427142Y-61805714D01*
X115427142Y-62162857D01*
X115522380Y-62305714D01*
X114665238Y-63020000D02*
X115998571Y-63020000D01*
X115617619Y-63020000D02*
X115808095Y-63091428D01*
X115903333Y-63162857D01*
X115998571Y-63305714D01*
X115998571Y-63448571D01*
X115998571Y-63734285D02*
X115998571Y-64305714D01*
X116665238Y-63948571D02*
X114950952Y-63948571D01*
X114760476Y-64020000D01*
X114665238Y-64162857D01*
X114665238Y-64305714D01*
X114665238Y-64805714D02*
X116665238Y-64805714D01*
X114665238Y-65448571D02*
X115712857Y-65448571D01*
X115903333Y-65377142D01*
X115998571Y-65234285D01*
X115998571Y-65020000D01*
X115903333Y-64877142D01*
X115808095Y-64805714D01*
X114665238Y-67305714D02*
X116665238Y-67305714D01*
X115903333Y-67305714D02*
X115998571Y-67448571D01*
X115998571Y-67734285D01*
X115903333Y-67877142D01*
X115808095Y-67948571D01*
X115617619Y-68020000D01*
X115046190Y-68020000D01*
X114855714Y-67948571D01*
X114760476Y-67877142D01*
X114665238Y-67734285D01*
X114665238Y-67448571D01*
X114760476Y-67305714D01*
X115998571Y-68520000D02*
X114665238Y-68877142D01*
X115998571Y-69234285D02*
X114665238Y-68877142D01*
X114189047Y-68734285D01*
X114093809Y-68662857D01*
X113998571Y-68520000D01*
X114760476Y-70877142D02*
X114665238Y-71091428D01*
X114665238Y-71448571D01*
X114760476Y-71591428D01*
X114855714Y-71662857D01*
X115046190Y-71734285D01*
X115236666Y-71734285D01*
X115427142Y-71662857D01*
X115522380Y-71591428D01*
X115617619Y-71448571D01*
X115712857Y-71162857D01*
X115808095Y-71020000D01*
X115903333Y-70948571D01*
X116093809Y-70877142D01*
X116284285Y-70877142D01*
X116474761Y-70948571D01*
X116570000Y-71020000D01*
X116665238Y-71162857D01*
X116665238Y-71520000D01*
X116570000Y-71734285D01*
X115998571Y-72162857D02*
X115998571Y-72734285D01*
X116665238Y-72377142D02*
X114950952Y-72377142D01*
X114760476Y-72448571D01*
X114665238Y-72591428D01*
X114665238Y-72734285D01*
X115998571Y-73877142D02*
X114665238Y-73877142D01*
X115998571Y-73234285D02*
X114950952Y-73234285D01*
X114760476Y-73305714D01*
X114665238Y-73448571D01*
X114665238Y-73662857D01*
X114760476Y-73805714D01*
X114855714Y-73877142D01*
X114665238Y-75234285D02*
X116665238Y-75234285D01*
X114760476Y-75234285D02*
X114665238Y-75091428D01*
X114665238Y-74805714D01*
X114760476Y-74662857D01*
X114855714Y-74591428D01*
X115046190Y-74520000D01*
X115617619Y-74520000D01*
X115808095Y-74591428D01*
X115903333Y-74662857D01*
X115998571Y-74805714D01*
X115998571Y-75091428D01*
X115903333Y-75234285D01*
X114760476Y-76520000D02*
X114665238Y-76377142D01*
X114665238Y-76091428D01*
X114760476Y-75948571D01*
X114950952Y-75877142D01*
X115712857Y-75877142D01*
X115903333Y-75948571D01*
X115998571Y-76091428D01*
X115998571Y-76377142D01*
X115903333Y-76520000D01*
X115712857Y-76591428D01*
X115522380Y-76591428D01*
X115331904Y-75877142D01*
X115998571Y-77234285D02*
X114665238Y-77234285D01*
X115808095Y-77234285D02*
X115903333Y-77305714D01*
X115998571Y-77448571D01*
X115998571Y-77662857D01*
X115903333Y-77805714D01*
X115712857Y-77877142D01*
X114665238Y-77877142D01*
X115998571Y-78377142D02*
X115998571Y-78948571D01*
X116665238Y-78591428D02*
X114950952Y-78591428D01*
X114760476Y-78662857D01*
X114665238Y-78805714D01*
X114665238Y-78948571D01*
X114760476Y-79377142D02*
X114665238Y-79520000D01*
X114665238Y-79805714D01*
X114760476Y-79948571D01*
X114950952Y-80020000D01*
X115046190Y-80020000D01*
X115236666Y-79948571D01*
X115331904Y-79805714D01*
X115331904Y-79591428D01*
X115427142Y-79448571D01*
X115617619Y-79377142D01*
X115712857Y-79377142D01*
X115903333Y-79448571D01*
X115998571Y-79591428D01*
X115998571Y-79805714D01*
X115903333Y-79948571D01*
X197274571Y-65674428D02*
X196560285Y-66174428D01*
X197274571Y-66531571D02*
X195774571Y-66531571D01*
X195774571Y-65960142D01*
X195846000Y-65817285D01*
X195917428Y-65745857D01*
X196060285Y-65674428D01*
X196274571Y-65674428D01*
X196417428Y-65745857D01*
X196488857Y-65817285D01*
X196560285Y-65960142D01*
X196560285Y-66531571D01*
X196488857Y-65031571D02*
X196488857Y-64531571D01*
X197274571Y-64317285D02*
X197274571Y-65031571D01*
X195774571Y-65031571D01*
X195774571Y-64317285D01*
X195774571Y-63888714D02*
X197274571Y-63388714D01*
X195774571Y-62888714D01*
X195774571Y-60960142D02*
X195774571Y-60817285D01*
X195846000Y-60674428D01*
X195917428Y-60603000D01*
X196060285Y-60531571D01*
X196346000Y-60460142D01*
X196703142Y-60460142D01*
X196988857Y-60531571D01*
X197131714Y-60603000D01*
X197203142Y-60674428D01*
X197274571Y-60817285D01*
X197274571Y-60960142D01*
X197203142Y-61103000D01*
X197131714Y-61174428D01*
X196988857Y-61245857D01*
X196703142Y-61317285D01*
X196346000Y-61317285D01*
X196060285Y-61245857D01*
X195917428Y-61174428D01*
X195846000Y-61103000D01*
X195774571Y-60960142D01*
X195774571Y-59531571D02*
X195774571Y-59388714D01*
X195846000Y-59245857D01*
X195917428Y-59174428D01*
X196060285Y-59103000D01*
X196346000Y-59031571D01*
X196703142Y-59031571D01*
X196988857Y-59103000D01*
X197131714Y-59174428D01*
X197203142Y-59245857D01*
X197274571Y-59388714D01*
X197274571Y-59531571D01*
X197203142Y-59674428D01*
X197131714Y-59745857D01*
X196988857Y-59817285D01*
X196703142Y-59888714D01*
X196346000Y-59888714D01*
X196060285Y-59817285D01*
X195917428Y-59745857D01*
X195846000Y-59674428D01*
X195774571Y-59531571D01*
X195917428Y-58460142D02*
X195846000Y-58388714D01*
X195774571Y-58245857D01*
X195774571Y-57888714D01*
X195846000Y-57745857D01*
X195917428Y-57674428D01*
X196060285Y-57603000D01*
X196203142Y-57603000D01*
X196417428Y-57674428D01*
X197274571Y-58531571D01*
X197274571Y-57603000D01*
D10*
X163025000Y-116200000D02*
X163025000Y-116225000D01*
X167175000Y-116200000D02*
X167175000Y-116315000D01*
X167175000Y-125100000D02*
X167175000Y-124985000D01*
X163025000Y-125100000D02*
X163025000Y-124985000D01*
X163025000Y-116200000D02*
X167175000Y-116200000D01*
X163025000Y-125100000D02*
X167175000Y-125100000D01*
X163025000Y-116225000D02*
X161650000Y-116225000D01*
X166275000Y-100425000D02*
X167275000Y-100425000D01*
X166275000Y-90075000D02*
X167350000Y-90075000D01*
X176625000Y-90075000D02*
X175550000Y-90075000D01*
X176625000Y-100425000D02*
X175550000Y-100425000D01*
X166275000Y-100425000D02*
X166275000Y-99350000D01*
X176625000Y-100425000D02*
X176625000Y-99350000D01*
X176625000Y-90075000D02*
X176625000Y-91150000D01*
X166275000Y-90075000D02*
X166275000Y-91150000D01*
X167275000Y-100425000D02*
X167275000Y-101450000D01*
X137465000Y-116200000D02*
X137465000Y-116225000D01*
X141615000Y-116200000D02*
X141615000Y-116315000D01*
X141615000Y-125100000D02*
X141615000Y-124985000D01*
X137465000Y-125100000D02*
X137465000Y-124985000D01*
X137465000Y-116200000D02*
X141615000Y-116200000D01*
X137465000Y-125100000D02*
X141615000Y-125100000D01*
X137465000Y-116225000D02*
X136090000Y-116225000D01*
X185210000Y-130595000D02*
X185210000Y-130800000D01*
X190710000Y-130595000D02*
X190710000Y-130895000D01*
X190710000Y-136105000D02*
X190710000Y-135805000D01*
X185210000Y-136105000D02*
X185210000Y-135805000D01*
X185210000Y-130595000D02*
X190710000Y-130595000D01*
X185210000Y-136105000D02*
X190710000Y-136105000D01*
X185210000Y-130800000D02*
X183460000Y-130800000D01*
X175725000Y-67275000D02*
X175725000Y-67325000D01*
X179875000Y-67275000D02*
X179875000Y-67420000D01*
X179875000Y-72425000D02*
X179875000Y-72280000D01*
X175725000Y-72425000D02*
X175725000Y-72280000D01*
X175725000Y-67275000D02*
X179875000Y-67275000D01*
X175725000Y-72425000D02*
X179875000Y-72425000D01*
X175725000Y-67325000D02*
X174325000Y-67325000D01*
X163025000Y-67275000D02*
X163025000Y-67325000D01*
X167175000Y-67275000D02*
X167175000Y-67420000D01*
X167175000Y-72425000D02*
X167175000Y-72280000D01*
X163025000Y-72425000D02*
X163025000Y-72280000D01*
X163025000Y-67275000D02*
X167175000Y-67275000D01*
X163025000Y-72425000D02*
X167175000Y-72425000D01*
X163025000Y-67325000D02*
X161625000Y-67325000D01*
X150325000Y-65400000D02*
X150325000Y-65425000D01*
X154475000Y-65400000D02*
X154475000Y-65515000D01*
X154475000Y-74300000D02*
X154475000Y-74185000D01*
X150325000Y-74300000D02*
X150325000Y-74185000D01*
X150325000Y-65400000D02*
X154475000Y-65400000D01*
X150325000Y-74300000D02*
X154475000Y-74300000D01*
X150325000Y-65425000D02*
X148950000Y-65425000D01*
X140875000Y-88805000D02*
X140875000Y-89805000D01*
X151225000Y-88805000D02*
X151225000Y-89880000D01*
X151225000Y-99155000D02*
X151225000Y-98080000D01*
X140875000Y-99155000D02*
X140875000Y-98080000D01*
X140875000Y-88805000D02*
X141950000Y-88805000D01*
X140875000Y-99155000D02*
X141950000Y-99155000D01*
X151225000Y-99155000D02*
X150150000Y-99155000D01*
X151225000Y-88805000D02*
X150150000Y-88805000D01*
X140875000Y-89805000D02*
X139850000Y-89805000D01*
X188560000Y-74535000D02*
X187360000Y-74535000D01*
X187360000Y-72785000D02*
X188560000Y-72785000D01*
X127420000Y-94750000D02*
X127420000Y-95750000D01*
X129120000Y-95750000D02*
X129120000Y-94750000D01*
X134347000Y-83322000D02*
X134347000Y-82922000D01*
X134747000Y-83722000D02*
X134347000Y-83322000D01*
X135147000Y-83322000D02*
X134747000Y-83722000D01*
X135147000Y-82922000D02*
X135147000Y-83322000D01*
X137697000Y-82922000D02*
X136647000Y-82922000D01*
X137697000Y-83922000D02*
X137697000Y-82922000D01*
X136697000Y-82922000D02*
X131797000Y-82922000D01*
X131797000Y-82922000D02*
X131797000Y-91322000D01*
X131797000Y-91322000D02*
X137697000Y-91322000D01*
X137697000Y-91322000D02*
X137697000Y-83922000D01*
X170950000Y-129120000D02*
X171950000Y-129120000D01*
X171950000Y-127420000D02*
X170950000Y-127420000D01*
X140550000Y-86860000D02*
X140550000Y-85860000D01*
X138850000Y-85860000D02*
X138850000Y-86860000D01*
X143629000Y-102020000D02*
X142629000Y-102020000D01*
X142629000Y-103720000D02*
X143629000Y-103720000D01*
X148090000Y-103720000D02*
X149090000Y-103720000D01*
X149090000Y-102020000D02*
X148090000Y-102020000D01*
X153170000Y-103720000D02*
X154170000Y-103720000D01*
X154170000Y-102020000D02*
X153170000Y-102020000D01*
X154090000Y-90940000D02*
X154090000Y-91940000D01*
X155790000Y-91940000D02*
X155790000Y-90940000D01*
X129452000Y-83955000D02*
X129452000Y-84955000D01*
X131152000Y-84955000D02*
X131152000Y-83955000D01*
X131152000Y-90035000D02*
X131152000Y-89035000D01*
X129452000Y-89035000D02*
X129452000Y-90035000D01*
X143010000Y-85940000D02*
X144010000Y-85940000D01*
X144010000Y-84240000D02*
X143010000Y-84240000D01*
X136056000Y-94750000D02*
X136056000Y-95750000D01*
X137756000Y-95750000D02*
X137756000Y-94750000D01*
X187110000Y-83300000D02*
X187110000Y-84300000D01*
X188810000Y-84300000D02*
X188810000Y-83300000D01*
X194730000Y-83300000D02*
X194730000Y-84300000D01*
X196430000Y-84300000D02*
X196430000Y-83300000D01*
X164330000Y-100750000D02*
X163330000Y-100750000D01*
X163330000Y-102450000D02*
X164330000Y-102450000D01*
X180760000Y-99830000D02*
X180760000Y-100830000D01*
X182460000Y-100830000D02*
X182460000Y-99830000D01*
X182460000Y-88765000D02*
X182460000Y-87765000D01*
X180760000Y-87765000D02*
X180760000Y-88765000D01*
X180760000Y-94730000D02*
X180760000Y-95730000D01*
X182460000Y-95730000D02*
X182460000Y-94730000D01*
X168390000Y-87210000D02*
X169390000Y-87210000D01*
X169390000Y-85510000D02*
X168390000Y-85510000D01*
X164092000Y-111467000D02*
X165092000Y-111467000D01*
X165092000Y-109767000D02*
X164092000Y-109767000D01*
X170172000Y-109767000D02*
X169172000Y-109767000D01*
X169172000Y-111467000D02*
X170172000Y-111467000D01*
X163410000Y-98310000D02*
X163410000Y-97310000D01*
X161710000Y-97310000D02*
X161710000Y-98310000D01*
X174506000Y-113499000D02*
X175506000Y-113499000D01*
X175506000Y-111799000D02*
X174506000Y-111799000D01*
X174506000Y-104990000D02*
X175506000Y-104990000D01*
X175506000Y-103290000D02*
X174506000Y-103290000D01*
X158250000Y-129120000D02*
X159250000Y-129120000D01*
X159250000Y-127420000D02*
X158250000Y-127420000D01*
X183650000Y-129120000D02*
X184650000Y-129120000D01*
X184650000Y-127420000D02*
X183650000Y-127420000D01*
X196350000Y-129120000D02*
X197350000Y-129120000D01*
X197350000Y-127420000D02*
X196350000Y-127420000D01*
X138264900Y-102318820D02*
X138264900Y-103370380D01*
X139865100Y-103421180D02*
X139865100Y-102369620D01*
X181058820Y-104940100D02*
X182110380Y-104940100D01*
X182161180Y-103339900D02*
X181109620Y-103339900D01*
X177405000Y-78140000D02*
X177405000Y-79340000D01*
X175655000Y-79340000D02*
X175655000Y-78140000D01*
X142910000Y-107075000D02*
X144110000Y-107075000D01*
X144110000Y-108825000D02*
X142910000Y-108825000D01*
X185025000Y-117510000D02*
X185025000Y-118710000D01*
X183275000Y-118710000D02*
X183275000Y-117510000D01*
X185025000Y-123860000D02*
X185025000Y-125060000D01*
X183275000Y-125060000D02*
X183275000Y-123860000D01*
X162165000Y-84570000D02*
X162165000Y-85770000D01*
X160415000Y-85770000D02*
X160415000Y-84570000D01*
X158355000Y-84570000D02*
X158355000Y-85770000D01*
X156605000Y-85770000D02*
X156605000Y-84570000D01*
X158355000Y-78140000D02*
X158355000Y-79340000D01*
X156605000Y-79340000D02*
X156605000Y-78140000D01*
X154545000Y-78060000D02*
X154545000Y-79260000D01*
X152795000Y-79260000D02*
X152795000Y-78060000D01*
X150735000Y-78060000D02*
X150735000Y-79260000D01*
X148985000Y-79260000D02*
X148985000Y-78060000D01*
X127600000Y-135495000D02*
X126400000Y-135495000D01*
X126400000Y-133745000D02*
X127600000Y-133745000D01*
X135087137Y-131633947D02*
X133887137Y-131633947D01*
X133887137Y-129883947D02*
X135087137Y-129883947D01*
X135007137Y-135443947D02*
X133807137Y-135443947D01*
X133807137Y-133693947D02*
X135007137Y-133693947D01*
X142707137Y-131633947D02*
X141507137Y-131633947D01*
X141507137Y-129883947D02*
X142707137Y-129883947D01*
X142627137Y-135443947D02*
X141427137Y-135443947D01*
X141427137Y-133693947D02*
X142627137Y-133693947D01*
X127600000Y-131685000D02*
X126400000Y-131685000D01*
X126400000Y-129935000D02*
X127600000Y-129935000D01*
X162165000Y-78140000D02*
X162165000Y-79340000D01*
X160415000Y-79340000D02*
X160415000Y-78140000D01*
X188560000Y-66915000D02*
X187360000Y-66915000D01*
X187360000Y-65165000D02*
X188560000Y-65165000D01*
X157875000Y-71720000D02*
X157875000Y-70520000D01*
X159625000Y-70520000D02*
X159625000Y-71720000D01*
X163160000Y-75805000D02*
X161960000Y-75805000D01*
X161960000Y-74055000D02*
X163160000Y-74055000D01*
X170575000Y-71720000D02*
X170575000Y-70520000D01*
X172325000Y-70520000D02*
X172325000Y-71720000D01*
X165700000Y-64375000D02*
X164500000Y-64375000D01*
X164500000Y-62625000D02*
X165700000Y-62625000D01*
X177200000Y-62625000D02*
X178400000Y-62625000D01*
X178400000Y-64375000D02*
X177200000Y-64375000D01*
X190270180Y-83639660D02*
X190270180Y-82938620D01*
X190270180Y-82938620D02*
X190519100Y-82938620D01*
X193069160Y-82938620D02*
X193269820Y-82938620D01*
X193269820Y-82938620D02*
X193269820Y-83639660D01*
X188425000Y-116200000D02*
X188425000Y-116225000D01*
X192575000Y-116200000D02*
X192575000Y-116315000D01*
X192575000Y-125100000D02*
X192575000Y-124985000D01*
X188425000Y-125100000D02*
X188425000Y-124985000D01*
X188425000Y-116200000D02*
X192575000Y-116200000D01*
X188425000Y-125100000D02*
X192575000Y-125100000D01*
X188425000Y-116225000D02*
X187050000Y-116225000D01*
X137625000Y-65400000D02*
X137625000Y-65425000D01*
X141775000Y-65400000D02*
X141775000Y-65515000D01*
X141775000Y-74300000D02*
X141775000Y-74185000D01*
X137625000Y-74300000D02*
X137625000Y-74185000D01*
X137625000Y-65400000D02*
X141775000Y-65400000D01*
X137625000Y-74300000D02*
X141775000Y-74300000D01*
X137625000Y-65425000D02*
X136250000Y-65425000D01*
X150325000Y-116200000D02*
X150325000Y-116225000D01*
X154475000Y-116200000D02*
X154475000Y-116315000D01*
X154475000Y-125100000D02*
X154475000Y-124985000D01*
X150325000Y-125100000D02*
X150325000Y-124985000D01*
X150325000Y-116200000D02*
X154475000Y-116200000D01*
X150325000Y-125100000D02*
X154475000Y-125100000D01*
X150325000Y-116225000D02*
X148950000Y-116225000D01*
X124925000Y-116200000D02*
X124925000Y-116225000D01*
X129075000Y-116200000D02*
X129075000Y-116315000D01*
X129075000Y-125100000D02*
X129075000Y-124985000D01*
X124925000Y-125100000D02*
X124925000Y-124985000D01*
X124925000Y-116200000D02*
X129075000Y-116200000D01*
X124925000Y-125100000D02*
X129075000Y-125100000D01*
X124925000Y-116225000D02*
X123550000Y-116225000D01*
X175725000Y-116200000D02*
X175725000Y-116225000D01*
X179875000Y-116200000D02*
X179875000Y-116315000D01*
X179875000Y-125100000D02*
X179875000Y-124985000D01*
X175725000Y-125100000D02*
X175725000Y-124985000D01*
X175725000Y-116200000D02*
X179875000Y-116200000D01*
X175725000Y-125100000D02*
X179875000Y-125100000D01*
X175725000Y-116225000D02*
X174350000Y-116225000D01*
X132015000Y-94233000D02*
X133415000Y-94233000D01*
X132715000Y-93233000D02*
X133115000Y-92833000D01*
X133015000Y-92933000D02*
X132715000Y-93233000D01*
X132315000Y-92833000D02*
X132715000Y-93233000D01*
X132315000Y-92833000D02*
X132315000Y-92533000D01*
X133115000Y-92533000D02*
X133115000Y-92833000D01*
X135615000Y-92533000D02*
X135615000Y-93633000D01*
X134615000Y-92533000D02*
X135615000Y-92533000D01*
X134615000Y-92533000D02*
X129815000Y-92533000D01*
X129815000Y-92533000D02*
X129815000Y-105333000D01*
X129815000Y-105333000D02*
X135615000Y-105333000D01*
X135615000Y-105333000D02*
X135615000Y-93533000D01*
X163122000Y-106417000D02*
X162722000Y-106417000D01*
X163522000Y-106017000D02*
X163122000Y-106417000D01*
X163122000Y-105617000D02*
X163522000Y-106017000D01*
X162722000Y-105617000D02*
X163122000Y-105617000D01*
X162722000Y-103067000D02*
X162722000Y-104117000D01*
X163722000Y-103067000D02*
X162722000Y-103067000D01*
X162722000Y-104067000D02*
X162722000Y-108967000D01*
X162722000Y-108967000D02*
X171122000Y-108967000D01*
X171122000Y-108967000D02*
X171122000Y-103067000D01*
X171122000Y-103067000D02*
X163722000Y-103067000D01*
X174497000Y-109031000D02*
X174497000Y-107631000D01*
X173497000Y-108331000D02*
X173097000Y-107931000D01*
X173197000Y-108031000D02*
X173497000Y-108331000D01*
X173097000Y-108731000D02*
X173497000Y-108331000D01*
X173097000Y-108731000D02*
X172797000Y-108731000D01*
X172797000Y-107931000D02*
X173097000Y-107931000D01*
X172797000Y-105431000D02*
X173897000Y-105431000D01*
X172797000Y-106431000D02*
X172797000Y-105431000D01*
X172797000Y-106431000D02*
X172797000Y-111231000D01*
X172797000Y-111231000D02*
X185597000Y-111231000D01*
X185597000Y-111231000D02*
X185597000Y-105431000D01*
X185597000Y-105431000D02*
X173797000Y-105431000D01*
X189484000Y-110744000D02*
X188976000Y-110744000D01*
X189484000Y-110236000D02*
X188976000Y-110236000D01*
X189484000Y-105156000D02*
X188976000Y-105156000D01*
X189484000Y-105664000D02*
X188976000Y-105664000D01*
X189484000Y-107696000D02*
X188976000Y-107696000D01*
X189484000Y-108204000D02*
X188976000Y-108204000D01*
X189484000Y-103124000D02*
X188976000Y-103124000D01*
X189484000Y-102616000D02*
X188976000Y-102616000D01*
X189484000Y-100584000D02*
X188976000Y-100584000D01*
X189484000Y-100076000D02*
X188976000Y-100076000D01*
X189484000Y-92456000D02*
X188976000Y-92456000D01*
X189484000Y-92964000D02*
X188976000Y-92964000D01*
X189484000Y-98044000D02*
X188976000Y-98044000D01*
X189484000Y-97536000D02*
X188976000Y-97536000D01*
X189484000Y-95504000D02*
X188976000Y-95504000D01*
X189484000Y-94996000D02*
X188976000Y-94996000D01*
X192024000Y-107696000D02*
X191516000Y-107696000D01*
X192024000Y-108204000D02*
X191516000Y-108204000D01*
X192024000Y-110236000D02*
X191516000Y-110236000D01*
X192024000Y-110744000D02*
X191516000Y-110744000D01*
X192024000Y-105664000D02*
X191516000Y-105664000D01*
X192024000Y-105156000D02*
X191516000Y-105156000D01*
X192024000Y-103124000D02*
X191516000Y-103124000D01*
X192024000Y-102616000D02*
X191516000Y-102616000D01*
X192024000Y-92456000D02*
X191516000Y-92456000D01*
X192024000Y-92964000D02*
X191516000Y-92964000D01*
X192024000Y-94996000D02*
X191516000Y-94996000D01*
X192024000Y-95504000D02*
X191516000Y-95504000D01*
X192024000Y-100584000D02*
X191516000Y-100584000D01*
X192024000Y-100076000D02*
X191516000Y-100076000D01*
X192024000Y-98044000D02*
X191516000Y-98044000D01*
X192024000Y-97536000D02*
X191516000Y-97536000D01*
X187960000Y-91160000D02*
X186810000Y-91160000D01*
X186810000Y-91160000D02*
X186810000Y-92710000D01*
X194564000Y-92583000D02*
X200533000Y-92583000D01*
X200533000Y-92583000D02*
X200533000Y-92837000D01*
X200533000Y-92837000D02*
X194691000Y-92837000D01*
X194691000Y-92837000D02*
X194691000Y-92710000D01*
X194691000Y-92710000D02*
X200533000Y-92710000D01*
X192024000Y-101600000D02*
X194564000Y-101600000D01*
X192024000Y-101600000D02*
X192024000Y-104140000D01*
X192024000Y-104140000D02*
X194564000Y-104140000D01*
X194564000Y-102616000D02*
X200660000Y-102616000D01*
X200660000Y-102616000D02*
X200660000Y-103124000D01*
X200660000Y-103124000D02*
X194564000Y-103124000D01*
X194564000Y-104140000D02*
X194564000Y-101600000D01*
X194564000Y-106680000D02*
X194564000Y-104140000D01*
X200660000Y-105664000D02*
X194564000Y-105664000D01*
X200660000Y-105156000D02*
X200660000Y-105664000D01*
X194564000Y-105156000D02*
X200660000Y-105156000D01*
X192024000Y-106680000D02*
X194564000Y-106680000D01*
X192024000Y-104140000D02*
X192024000Y-106680000D01*
X192024000Y-104140000D02*
X194564000Y-104140000D01*
X192024000Y-109220000D02*
X194564000Y-109220000D01*
X192024000Y-109220000D02*
X192024000Y-111760000D01*
X192024000Y-111760000D02*
X194564000Y-111760000D01*
X194564000Y-110236000D02*
X200660000Y-110236000D01*
X200660000Y-110236000D02*
X200660000Y-110744000D01*
X200660000Y-110744000D02*
X194564000Y-110744000D01*
X194564000Y-111760000D02*
X194564000Y-109220000D01*
X194564000Y-109220000D02*
X194564000Y-106680000D01*
X200660000Y-108204000D02*
X194564000Y-108204000D01*
X200660000Y-107696000D02*
X200660000Y-108204000D01*
X194564000Y-107696000D02*
X200660000Y-107696000D01*
X192024000Y-109220000D02*
X194564000Y-109220000D01*
X192024000Y-106680000D02*
X192024000Y-109220000D01*
X192024000Y-106680000D02*
X194564000Y-106680000D01*
X192024000Y-96520000D02*
X194564000Y-96520000D01*
X192024000Y-96520000D02*
X192024000Y-99060000D01*
X192024000Y-99060000D02*
X194564000Y-99060000D01*
X194564000Y-97536000D02*
X200660000Y-97536000D01*
X200660000Y-97536000D02*
X200660000Y-98044000D01*
X200660000Y-98044000D02*
X194564000Y-98044000D01*
X194564000Y-99060000D02*
X194564000Y-96520000D01*
X194564000Y-101600000D02*
X194564000Y-99060000D01*
X200660000Y-100584000D02*
X194564000Y-100584000D01*
X200660000Y-100076000D02*
X200660000Y-100584000D01*
X194564000Y-100076000D02*
X200660000Y-100076000D01*
X192024000Y-101600000D02*
X194564000Y-101600000D01*
X192024000Y-99060000D02*
X192024000Y-101600000D01*
X192024000Y-99060000D02*
X194564000Y-99060000D01*
X192024000Y-93980000D02*
X194564000Y-93980000D01*
X192024000Y-93980000D02*
X192024000Y-96520000D01*
X192024000Y-96520000D02*
X194564000Y-96520000D01*
X194564000Y-94996000D02*
X200660000Y-94996000D01*
X200660000Y-94996000D02*
X200660000Y-95504000D01*
X200660000Y-95504000D02*
X194564000Y-95504000D01*
X194564000Y-96520000D02*
X194564000Y-93980000D01*
X194564000Y-93980000D02*
X194564000Y-91440000D01*
X200660000Y-92964000D02*
X194564000Y-92964000D01*
X200660000Y-92456000D02*
X200660000Y-92964000D01*
X194564000Y-92456000D02*
X200660000Y-92456000D01*
X192024000Y-93980000D02*
X194564000Y-93980000D01*
X192024000Y-91440000D02*
X192024000Y-93980000D01*
X192024000Y-91440000D02*
X194564000Y-91440000D01*
D12*
X158270000Y-92290000D02*
X159270000Y-92290000D01*
X159270000Y-90590000D02*
X158270000Y-90590000D01*
X159270000Y-93130000D02*
X158270000Y-93130000D01*
X158270000Y-94830000D02*
X159270000Y-94830000D01*
X190020000Y-115150000D02*
X191020000Y-115150000D01*
X191020000Y-113450000D02*
X190020000Y-113450000D01*
X122770000Y-123710000D02*
X122770000Y-122710000D01*
X121070000Y-122710000D02*
X121070000Y-123710000D01*
X169410000Y-65190000D02*
X168410000Y-65190000D01*
X168410000Y-66890000D02*
X169410000Y-66890000D01*
X173470000Y-66890000D02*
X174470000Y-66890000D01*
X174470000Y-65190000D02*
X173470000Y-65190000D01*
X134200000Y-122400000D02*
X134200000Y-121400000D01*
X132500000Y-121400000D02*
X132500000Y-122400000D01*
X198640000Y-125340000D02*
X197440000Y-125340000D01*
X197440000Y-123580000D02*
X198640000Y-123580000D01*
X198720000Y-122800000D02*
X197520000Y-122800000D01*
X197520000Y-121040000D02*
X198720000Y-121040000D01*
X198720000Y-120260000D02*
X197520000Y-120260000D01*
X197520000Y-118500000D02*
X198720000Y-118500000D01*
X198720000Y-117720000D02*
X197520000Y-117720000D01*
X197520000Y-115960000D02*
X198720000Y-115960000D01*
X132600000Y-80890000D02*
X131400000Y-80890000D01*
X131400000Y-79130000D02*
X132600000Y-79130000D01*
X132600000Y-77080000D02*
X131400000Y-77080000D01*
X131400000Y-75320000D02*
X132600000Y-75320000D01*
X139180000Y-64350000D02*
X140180000Y-64350000D01*
X140180000Y-62650000D02*
X139180000Y-62650000D01*
X133870000Y-62650000D02*
X132870000Y-62650000D01*
X132870000Y-64350000D02*
X133870000Y-64350000D01*
D10*
X150920000Y-130595000D02*
X150920000Y-130800000D01*
X156420000Y-130595000D02*
X156420000Y-130895000D01*
X156420000Y-136105000D02*
X156420000Y-135805000D01*
X150920000Y-136105000D02*
X150920000Y-135805000D01*
X150920000Y-130595000D02*
X156420000Y-130595000D01*
X150920000Y-136105000D02*
X156420000Y-136105000D01*
X150920000Y-130800000D02*
X149170000Y-130800000D01*
X162350000Y-130595000D02*
X162350000Y-130800000D01*
X167850000Y-130595000D02*
X167850000Y-130895000D01*
X167850000Y-136105000D02*
X167850000Y-135805000D01*
X162350000Y-136105000D02*
X162350000Y-135805000D01*
X162350000Y-130595000D02*
X167850000Y-130595000D01*
X162350000Y-136105000D02*
X167850000Y-136105000D01*
X162350000Y-130800000D02*
X160600000Y-130800000D01*
X173780000Y-130595000D02*
X173780000Y-130800000D01*
X179280000Y-130595000D02*
X179280000Y-130895000D01*
X179280000Y-136105000D02*
X179280000Y-135805000D01*
X173780000Y-136105000D02*
X173780000Y-135805000D01*
X173780000Y-130595000D02*
X179280000Y-130595000D01*
X173780000Y-136105000D02*
X179280000Y-136105000D01*
X173780000Y-130800000D02*
X172030000Y-130800000D01*
X162083904Y-114717580D02*
X162083904Y-115527104D01*
X162131523Y-115622342D01*
X162179142Y-115669961D01*
X162274380Y-115717580D01*
X162464857Y-115717580D01*
X162560095Y-115669961D01*
X162607714Y-115622342D01*
X162655333Y-115527104D01*
X162655333Y-114717580D01*
X163655333Y-115717580D02*
X163083904Y-115717580D01*
X163369619Y-115717580D02*
X163369619Y-114717580D01*
X163274380Y-114860438D01*
X163179142Y-114955676D01*
X163083904Y-115003295D01*
X164036285Y-114812819D02*
X164083904Y-114765200D01*
X164179142Y-114717580D01*
X164417238Y-114717580D01*
X164512476Y-114765200D01*
X164560095Y-114812819D01*
X164607714Y-114908057D01*
X164607714Y-115003295D01*
X164560095Y-115146152D01*
X163988666Y-115717580D01*
X164607714Y-115717580D01*
X177139695Y-99680780D02*
X177139695Y-100490304D01*
X177187314Y-100585542D01*
X177234933Y-100633161D01*
X177330171Y-100680780D01*
X177520647Y-100680780D01*
X177615885Y-100633161D01*
X177663504Y-100585542D01*
X177711123Y-100490304D01*
X177711123Y-99680780D01*
X178139695Y-99776019D02*
X178187314Y-99728400D01*
X178282552Y-99680780D01*
X178520647Y-99680780D01*
X178615885Y-99728400D01*
X178663504Y-99776019D01*
X178711123Y-99871257D01*
X178711123Y-99966495D01*
X178663504Y-100109352D01*
X178092076Y-100680780D01*
X178711123Y-100680780D01*
X136429904Y-115022380D02*
X136429904Y-115831904D01*
X136477523Y-115927142D01*
X136525142Y-115974761D01*
X136620380Y-116022380D01*
X136810857Y-116022380D01*
X136906095Y-115974761D01*
X136953714Y-115927142D01*
X137001333Y-115831904D01*
X137001333Y-115022380D01*
X138001333Y-116022380D02*
X137429904Y-116022380D01*
X137715619Y-116022380D02*
X137715619Y-115022380D01*
X137620380Y-115165238D01*
X137525142Y-115260476D01*
X137429904Y-115308095D01*
X138334666Y-115022380D02*
X139001333Y-115022380D01*
X138572761Y-116022380D01*
X187198095Y-129122380D02*
X187198095Y-129931904D01*
X187245714Y-130027142D01*
X187293333Y-130074761D01*
X187388571Y-130122380D01*
X187579047Y-130122380D01*
X187674285Y-130074761D01*
X187721904Y-130027142D01*
X187769523Y-129931904D01*
X187769523Y-129122380D01*
X188293333Y-130122380D02*
X188483809Y-130122380D01*
X188579047Y-130074761D01*
X188626666Y-130027142D01*
X188721904Y-129884285D01*
X188769523Y-129693809D01*
X188769523Y-129312857D01*
X188721904Y-129217619D01*
X188674285Y-129170000D01*
X188579047Y-129122380D01*
X188388571Y-129122380D01*
X188293333Y-129170000D01*
X188245714Y-129217619D01*
X188198095Y-129312857D01*
X188198095Y-129550952D01*
X188245714Y-129646190D01*
X188293333Y-129693809D01*
X188388571Y-129741428D01*
X188579047Y-129741428D01*
X188674285Y-129693809D01*
X188721904Y-129646190D01*
X188769523Y-129550952D01*
X175545904Y-72705980D02*
X175545904Y-73515504D01*
X175593523Y-73610742D01*
X175641142Y-73658361D01*
X175736380Y-73705980D01*
X175926857Y-73705980D01*
X176022095Y-73658361D01*
X176069714Y-73610742D01*
X176117333Y-73515504D01*
X176117333Y-72705980D01*
X177117333Y-73705980D02*
X176545904Y-73705980D01*
X176831619Y-73705980D02*
X176831619Y-72705980D01*
X176736380Y-72848838D01*
X176641142Y-72944076D01*
X176545904Y-72991695D01*
X178022095Y-72705980D02*
X177545904Y-72705980D01*
X177498285Y-73182171D01*
X177545904Y-73134552D01*
X177641142Y-73086933D01*
X177879238Y-73086933D01*
X177974476Y-73134552D01*
X178022095Y-73182171D01*
X178069714Y-73277409D01*
X178069714Y-73515504D01*
X178022095Y-73610742D01*
X177974476Y-73658361D01*
X177879238Y-73705980D01*
X177641142Y-73705980D01*
X177545904Y-73658361D01*
X177498285Y-73610742D01*
X162795104Y-65949580D02*
X162795104Y-66759104D01*
X162842723Y-66854342D01*
X162890342Y-66901961D01*
X162985580Y-66949580D01*
X163176057Y-66949580D01*
X163271295Y-66901961D01*
X163318914Y-66854342D01*
X163366533Y-66759104D01*
X163366533Y-65949580D01*
X164366533Y-66949580D02*
X163795104Y-66949580D01*
X164080819Y-66949580D02*
X164080819Y-65949580D01*
X163985580Y-66092438D01*
X163890342Y-66187676D01*
X163795104Y-66235295D01*
X165223676Y-66282914D02*
X165223676Y-66949580D01*
X164985580Y-65901961D02*
X164747485Y-66616247D01*
X165366533Y-66616247D01*
X149587104Y-74534780D02*
X149587104Y-75344304D01*
X149634723Y-75439542D01*
X149682342Y-75487161D01*
X149777580Y-75534780D01*
X149968057Y-75534780D01*
X150063295Y-75487161D01*
X150110914Y-75439542D01*
X150158533Y-75344304D01*
X150158533Y-74534780D01*
X151158533Y-75534780D02*
X150587104Y-75534780D01*
X150872819Y-75534780D02*
X150872819Y-74534780D01*
X150777580Y-74677638D01*
X150682342Y-74772876D01*
X150587104Y-74820495D01*
X151777580Y-74534780D02*
X151872819Y-74534780D01*
X151968057Y-74582400D01*
X152015676Y-74630019D01*
X152063295Y-74725257D01*
X152110914Y-74915733D01*
X152110914Y-75153828D01*
X152063295Y-75344304D01*
X152015676Y-75439542D01*
X151968057Y-75487161D01*
X151872819Y-75534780D01*
X151777580Y-75534780D01*
X151682342Y-75487161D01*
X151634723Y-75439542D01*
X151587104Y-75344304D01*
X151539485Y-75153828D01*
X151539485Y-74915733D01*
X151587104Y-74725257D01*
X151634723Y-74630019D01*
X151682342Y-74582400D01*
X151777580Y-74534780D01*
X151942895Y-98410780D02*
X151942895Y-99220304D01*
X151990514Y-99315542D01*
X152038133Y-99363161D01*
X152133371Y-99410780D01*
X152323847Y-99410780D01*
X152419085Y-99363161D01*
X152466704Y-99315542D01*
X152514323Y-99220304D01*
X152514323Y-98410780D01*
X153514323Y-99410780D02*
X152942895Y-99410780D01*
X153228609Y-99410780D02*
X153228609Y-98410780D01*
X153133371Y-98553638D01*
X153038133Y-98648876D01*
X152942895Y-98696495D01*
X187266342Y-72486780D02*
X186933009Y-72010590D01*
X186694914Y-72486780D02*
X186694914Y-71486780D01*
X187075866Y-71486780D01*
X187171104Y-71534400D01*
X187218723Y-71582019D01*
X187266342Y-71677257D01*
X187266342Y-71820114D01*
X187218723Y-71915352D01*
X187171104Y-71962971D01*
X187075866Y-72010590D01*
X186694914Y-72010590D01*
X187647295Y-71582019D02*
X187694914Y-71534400D01*
X187790152Y-71486780D01*
X188028247Y-71486780D01*
X188123485Y-71534400D01*
X188171104Y-71582019D01*
X188218723Y-71677257D01*
X188218723Y-71772495D01*
X188171104Y-71915352D01*
X187599676Y-72486780D01*
X188218723Y-72486780D01*
X188599676Y-71582019D02*
X188647295Y-71534400D01*
X188742533Y-71486780D01*
X188980628Y-71486780D01*
X189075866Y-71534400D01*
X189123485Y-71582019D01*
X189171104Y-71677257D01*
X189171104Y-71772495D01*
X189123485Y-71915352D01*
X188552057Y-72486780D01*
X189171104Y-72486780D01*
X127001542Y-96127866D02*
X127049161Y-96175485D01*
X127096780Y-96318342D01*
X127096780Y-96413580D01*
X127049161Y-96556438D01*
X126953923Y-96651676D01*
X126858685Y-96699295D01*
X126668209Y-96746914D01*
X126525352Y-96746914D01*
X126334876Y-96699295D01*
X126239638Y-96651676D01*
X126144400Y-96556438D01*
X126096780Y-96413580D01*
X126096780Y-96318342D01*
X126144400Y-96175485D01*
X126192019Y-96127866D01*
X127096780Y-95651676D02*
X127096780Y-95461200D01*
X127049161Y-95365961D01*
X127001542Y-95318342D01*
X126858685Y-95223104D01*
X126668209Y-95175485D01*
X126287257Y-95175485D01*
X126192019Y-95223104D01*
X126144400Y-95270723D01*
X126096780Y-95365961D01*
X126096780Y-95556438D01*
X126144400Y-95651676D01*
X126192019Y-95699295D01*
X126287257Y-95746914D01*
X126525352Y-95746914D01*
X126620590Y-95699295D01*
X126668209Y-95651676D01*
X126715828Y-95556438D01*
X126715828Y-95365961D01*
X126668209Y-95270723D01*
X126620590Y-95223104D01*
X126525352Y-95175485D01*
X188719571Y-139203180D02*
X189087800Y-139203180D01*
X188903685Y-140203180D02*
X188903685Y-139203180D01*
X189302600Y-140203180D02*
X189302600Y-139203180D01*
X189548085Y-139203180D01*
X189609457Y-139250800D01*
X189640142Y-139298419D01*
X189670828Y-139393657D01*
X189670828Y-139536514D01*
X189640142Y-139631752D01*
X189609457Y-139679371D01*
X189548085Y-139726990D01*
X189302600Y-139726990D01*
X190284542Y-140203180D02*
X189916314Y-140203180D01*
X190100428Y-140203180D02*
X190100428Y-139203180D01*
X190039057Y-139346038D01*
X189977685Y-139441276D01*
X189916314Y-139488895D01*
X190867571Y-139203180D02*
X190560714Y-139203180D01*
X190530028Y-139679371D01*
X190560714Y-139631752D01*
X190622085Y-139584133D01*
X190775514Y-139584133D01*
X190836885Y-139631752D01*
X190867571Y-139679371D01*
X190898257Y-139774609D01*
X190898257Y-140012704D01*
X190867571Y-140107942D01*
X190836885Y-140155561D01*
X190775514Y-140203180D01*
X190622085Y-140203180D01*
X190560714Y-140155561D01*
X190530028Y-140107942D01*
X132016571Y-82115028D02*
X132016571Y-82686457D01*
X131616571Y-81486457D02*
X132016571Y-82115028D01*
X132416571Y-81486457D01*
X133445142Y-82686457D02*
X132759428Y-82686457D01*
X133102285Y-82686457D02*
X133102285Y-81486457D01*
X132988000Y-81657885D01*
X132873714Y-81772171D01*
X132759428Y-81829314D01*
X170756342Y-127001542D02*
X170708723Y-127049161D01*
X170565866Y-127096780D01*
X170470628Y-127096780D01*
X170327771Y-127049161D01*
X170232533Y-126953923D01*
X170184914Y-126858685D01*
X170137295Y-126668209D01*
X170137295Y-126525352D01*
X170184914Y-126334876D01*
X170232533Y-126239638D01*
X170327771Y-126144400D01*
X170470628Y-126096780D01*
X170565866Y-126096780D01*
X170708723Y-126144400D01*
X170756342Y-126192019D01*
X171137295Y-126192019D02*
X171184914Y-126144400D01*
X171280152Y-126096780D01*
X171518247Y-126096780D01*
X171613485Y-126144400D01*
X171661104Y-126192019D01*
X171708723Y-126287257D01*
X171708723Y-126382495D01*
X171661104Y-126525352D01*
X171089676Y-127096780D01*
X171708723Y-127096780D01*
X172565866Y-126430114D02*
X172565866Y-127096780D01*
X172327771Y-126049161D02*
X172089676Y-126763447D01*
X172708723Y-126763447D01*
X139904742Y-83173866D02*
X139952361Y-83221485D01*
X139999980Y-83364342D01*
X139999980Y-83459580D01*
X139952361Y-83602438D01*
X139857123Y-83697676D01*
X139761885Y-83745295D01*
X139571409Y-83792914D01*
X139428552Y-83792914D01*
X139238076Y-83745295D01*
X139142838Y-83697676D01*
X139047600Y-83602438D01*
X138999980Y-83459580D01*
X138999980Y-83364342D01*
X139047600Y-83221485D01*
X139095219Y-83173866D01*
X139999980Y-82221485D02*
X139999980Y-82792914D01*
X139999980Y-82507200D02*
X138999980Y-82507200D01*
X139142838Y-82602438D01*
X139238076Y-82697676D01*
X139285695Y-82792914D01*
X142886133Y-104954342D02*
X142838514Y-105001961D01*
X142695657Y-105049580D01*
X142600419Y-105049580D01*
X142457561Y-105001961D01*
X142362323Y-104906723D01*
X142314704Y-104811485D01*
X142267085Y-104621009D01*
X142267085Y-104478152D01*
X142314704Y-104287676D01*
X142362323Y-104192438D01*
X142457561Y-104097200D01*
X142600419Y-104049580D01*
X142695657Y-104049580D01*
X142838514Y-104097200D01*
X142886133Y-104144819D01*
X143267085Y-104144819D02*
X143314704Y-104097200D01*
X143409942Y-104049580D01*
X143648038Y-104049580D01*
X143743276Y-104097200D01*
X143790895Y-104144819D01*
X143838514Y-104240057D01*
X143838514Y-104335295D01*
X143790895Y-104478152D01*
X143219466Y-105049580D01*
X143838514Y-105049580D01*
X148423333Y-104954342D02*
X148375714Y-105001961D01*
X148232857Y-105049580D01*
X148137619Y-105049580D01*
X147994761Y-105001961D01*
X147899523Y-104906723D01*
X147851904Y-104811485D01*
X147804285Y-104621009D01*
X147804285Y-104478152D01*
X147851904Y-104287676D01*
X147899523Y-104192438D01*
X147994761Y-104097200D01*
X148137619Y-104049580D01*
X148232857Y-104049580D01*
X148375714Y-104097200D01*
X148423333Y-104144819D01*
X148756666Y-104049580D02*
X149375714Y-104049580D01*
X149042380Y-104430533D01*
X149185238Y-104430533D01*
X149280476Y-104478152D01*
X149328095Y-104525771D01*
X149375714Y-104621009D01*
X149375714Y-104859104D01*
X149328095Y-104954342D01*
X149280476Y-105001961D01*
X149185238Y-105049580D01*
X148899523Y-105049580D01*
X148804285Y-105001961D01*
X148756666Y-104954342D01*
X153198533Y-105005142D02*
X153150914Y-105052761D01*
X153008057Y-105100380D01*
X152912819Y-105100380D01*
X152769961Y-105052761D01*
X152674723Y-104957523D01*
X152627104Y-104862285D01*
X152579485Y-104671809D01*
X152579485Y-104528952D01*
X152627104Y-104338476D01*
X152674723Y-104243238D01*
X152769961Y-104148000D01*
X152912819Y-104100380D01*
X153008057Y-104100380D01*
X153150914Y-104148000D01*
X153198533Y-104195619D01*
X154055676Y-104433714D02*
X154055676Y-105100380D01*
X153817580Y-104052761D02*
X153579485Y-104767047D01*
X154198533Y-104767047D01*
X153773142Y-91911466D02*
X153820761Y-91959085D01*
X153868380Y-92101942D01*
X153868380Y-92197180D01*
X153820761Y-92340038D01*
X153725523Y-92435276D01*
X153630285Y-92482895D01*
X153439809Y-92530514D01*
X153296952Y-92530514D01*
X153106476Y-92482895D01*
X153011238Y-92435276D01*
X152916000Y-92340038D01*
X152868380Y-92197180D01*
X152868380Y-92101942D01*
X152916000Y-91959085D01*
X152963619Y-91911466D01*
X152868380Y-91006704D02*
X152868380Y-91482895D01*
X153344571Y-91530514D01*
X153296952Y-91482895D01*
X153249333Y-91387657D01*
X153249333Y-91149561D01*
X153296952Y-91054323D01*
X153344571Y-91006704D01*
X153439809Y-90959085D01*
X153677904Y-90959085D01*
X153773142Y-91006704D01*
X153820761Y-91054323D01*
X153868380Y-91149561D01*
X153868380Y-91387657D01*
X153820761Y-91482895D01*
X153773142Y-91530514D01*
X129185942Y-85764666D02*
X129233561Y-85812285D01*
X129281180Y-85955142D01*
X129281180Y-86050380D01*
X129233561Y-86193238D01*
X129138323Y-86288476D01*
X129043085Y-86336095D01*
X128852609Y-86383714D01*
X128709752Y-86383714D01*
X128519276Y-86336095D01*
X128424038Y-86288476D01*
X128328800Y-86193238D01*
X128281180Y-86050380D01*
X128281180Y-85955142D01*
X128328800Y-85812285D01*
X128376419Y-85764666D01*
X128281180Y-84907523D02*
X128281180Y-85098000D01*
X128328800Y-85193238D01*
X128376419Y-85240857D01*
X128519276Y-85336095D01*
X128709752Y-85383714D01*
X129090704Y-85383714D01*
X129185942Y-85336095D01*
X129233561Y-85288476D01*
X129281180Y-85193238D01*
X129281180Y-85002761D01*
X129233561Y-84907523D01*
X129185942Y-84859904D01*
X129090704Y-84812285D01*
X128852609Y-84812285D01*
X128757371Y-84859904D01*
X128709752Y-84907523D01*
X128662133Y-85002761D01*
X128662133Y-85193238D01*
X128709752Y-85288476D01*
X128757371Y-85336095D01*
X128852609Y-85383714D01*
X129185942Y-90641466D02*
X129233561Y-90689085D01*
X129281180Y-90831942D01*
X129281180Y-90927180D01*
X129233561Y-91070038D01*
X129138323Y-91165276D01*
X129043085Y-91212895D01*
X128852609Y-91260514D01*
X128709752Y-91260514D01*
X128519276Y-91212895D01*
X128424038Y-91165276D01*
X128328800Y-91070038D01*
X128281180Y-90927180D01*
X128281180Y-90831942D01*
X128328800Y-90689085D01*
X128376419Y-90641466D01*
X128281180Y-90308133D02*
X128281180Y-89641466D01*
X129281180Y-90070038D01*
X142174933Y-83923142D02*
X142127314Y-83970761D01*
X141984457Y-84018380D01*
X141889219Y-84018380D01*
X141746361Y-83970761D01*
X141651123Y-83875523D01*
X141603504Y-83780285D01*
X141555885Y-83589809D01*
X141555885Y-83446952D01*
X141603504Y-83256476D01*
X141651123Y-83161238D01*
X141746361Y-83066000D01*
X141889219Y-83018380D01*
X141984457Y-83018380D01*
X142127314Y-83066000D01*
X142174933Y-83113619D01*
X142746361Y-83446952D02*
X142651123Y-83399333D01*
X142603504Y-83351714D01*
X142555885Y-83256476D01*
X142555885Y-83208857D01*
X142603504Y-83113619D01*
X142651123Y-83066000D01*
X142746361Y-83018380D01*
X142936838Y-83018380D01*
X143032076Y-83066000D01*
X143079695Y-83113619D01*
X143127314Y-83208857D01*
X143127314Y-83256476D01*
X143079695Y-83351714D01*
X143032076Y-83399333D01*
X142936838Y-83446952D01*
X142746361Y-83446952D01*
X142651123Y-83494571D01*
X142603504Y-83542190D01*
X142555885Y-83637428D01*
X142555885Y-83827904D01*
X142603504Y-83923142D01*
X142651123Y-83970761D01*
X142746361Y-84018380D01*
X142936838Y-84018380D01*
X143032076Y-83970761D01*
X143079695Y-83923142D01*
X143127314Y-83827904D01*
X143127314Y-83637428D01*
X143079695Y-83542190D01*
X143032076Y-83494571D01*
X142936838Y-83446952D01*
X138990342Y-96604057D02*
X139037961Y-96651676D01*
X139085580Y-96794533D01*
X139085580Y-96889771D01*
X139037961Y-97032628D01*
X138942723Y-97127866D01*
X138847485Y-97175485D01*
X138657009Y-97223104D01*
X138514152Y-97223104D01*
X138323676Y-97175485D01*
X138228438Y-97127866D01*
X138133200Y-97032628D01*
X138085580Y-96889771D01*
X138085580Y-96794533D01*
X138133200Y-96651676D01*
X138180819Y-96604057D01*
X139085580Y-95651676D02*
X139085580Y-96223104D01*
X139085580Y-95937390D02*
X138085580Y-95937390D01*
X138228438Y-96032628D01*
X138323676Y-96127866D01*
X138371295Y-96223104D01*
X138085580Y-95032628D02*
X138085580Y-94937390D01*
X138133200Y-94842152D01*
X138180819Y-94794533D01*
X138276057Y-94746914D01*
X138466533Y-94699295D01*
X138704628Y-94699295D01*
X138895104Y-94746914D01*
X138990342Y-94794533D01*
X139037961Y-94842152D01*
X139085580Y-94937390D01*
X139085580Y-95032628D01*
X139037961Y-95127866D01*
X138990342Y-95175485D01*
X138895104Y-95223104D01*
X138704628Y-95270723D01*
X138466533Y-95270723D01*
X138276057Y-95223104D01*
X138180819Y-95175485D01*
X138133200Y-95127866D01*
X138085580Y-95032628D01*
X186640742Y-84564457D02*
X186688361Y-84612076D01*
X186735980Y-84754933D01*
X186735980Y-84850171D01*
X186688361Y-84993028D01*
X186593123Y-85088266D01*
X186497885Y-85135885D01*
X186307409Y-85183504D01*
X186164552Y-85183504D01*
X185974076Y-85135885D01*
X185878838Y-85088266D01*
X185783600Y-84993028D01*
X185735980Y-84850171D01*
X185735980Y-84754933D01*
X185783600Y-84612076D01*
X185831219Y-84564457D01*
X186735980Y-83612076D02*
X186735980Y-84183504D01*
X186735980Y-83897790D02*
X185735980Y-83897790D01*
X185878838Y-83993028D01*
X185974076Y-84088266D01*
X186021695Y-84183504D01*
X186735980Y-82659695D02*
X186735980Y-83231123D01*
X186735980Y-82945409D02*
X185735980Y-82945409D01*
X185878838Y-83040647D01*
X185974076Y-83135885D01*
X186021695Y-83231123D01*
X197562742Y-84564457D02*
X197610361Y-84612076D01*
X197657980Y-84754933D01*
X197657980Y-84850171D01*
X197610361Y-84993028D01*
X197515123Y-85088266D01*
X197419885Y-85135885D01*
X197229409Y-85183504D01*
X197086552Y-85183504D01*
X196896076Y-85135885D01*
X196800838Y-85088266D01*
X196705600Y-84993028D01*
X196657980Y-84850171D01*
X196657980Y-84754933D01*
X196705600Y-84612076D01*
X196753219Y-84564457D01*
X197657980Y-83612076D02*
X197657980Y-84183504D01*
X197657980Y-83897790D02*
X196657980Y-83897790D01*
X196800838Y-83993028D01*
X196896076Y-84088266D01*
X196943695Y-84183504D01*
X196753219Y-83231123D02*
X196705600Y-83183504D01*
X196657980Y-83088266D01*
X196657980Y-82850171D01*
X196705600Y-82754933D01*
X196753219Y-82707314D01*
X196848457Y-82659695D01*
X196943695Y-82659695D01*
X197086552Y-82707314D01*
X197657980Y-83278742D01*
X197657980Y-82659695D01*
X159478742Y-102261942D02*
X159431123Y-102309561D01*
X159288266Y-102357180D01*
X159193028Y-102357180D01*
X159050171Y-102309561D01*
X158954933Y-102214323D01*
X158907314Y-102119085D01*
X158859695Y-101928609D01*
X158859695Y-101785752D01*
X158907314Y-101595276D01*
X158954933Y-101500038D01*
X159050171Y-101404800D01*
X159193028Y-101357180D01*
X159288266Y-101357180D01*
X159431123Y-101404800D01*
X159478742Y-101452419D01*
X160431123Y-102357180D02*
X159859695Y-102357180D01*
X160145409Y-102357180D02*
X160145409Y-101357180D01*
X160050171Y-101500038D01*
X159954933Y-101595276D01*
X159859695Y-101642895D01*
X160764457Y-101357180D02*
X161383504Y-101357180D01*
X161050171Y-101738133D01*
X161193028Y-101738133D01*
X161288266Y-101785752D01*
X161335885Y-101833371D01*
X161383504Y-101928609D01*
X161383504Y-102166704D01*
X161335885Y-102261942D01*
X161288266Y-102309561D01*
X161193028Y-102357180D01*
X160907314Y-102357180D01*
X160812076Y-102309561D01*
X160764457Y-102261942D01*
X183354742Y-102058742D02*
X183307123Y-102106361D01*
X183164266Y-102153980D01*
X183069028Y-102153980D01*
X182926171Y-102106361D01*
X182830933Y-102011123D01*
X182783314Y-101915885D01*
X182735695Y-101725409D01*
X182735695Y-101582552D01*
X182783314Y-101392076D01*
X182830933Y-101296838D01*
X182926171Y-101201600D01*
X183069028Y-101153980D01*
X183164266Y-101153980D01*
X183307123Y-101201600D01*
X183354742Y-101249219D01*
X184307123Y-102153980D02*
X183735695Y-102153980D01*
X184021409Y-102153980D02*
X184021409Y-101153980D01*
X183926171Y-101296838D01*
X183830933Y-101392076D01*
X183735695Y-101439695D01*
X185164266Y-101487314D02*
X185164266Y-102153980D01*
X184926171Y-101106361D02*
X184688076Y-101820647D01*
X185307123Y-101820647D01*
X183253142Y-90222342D02*
X183205523Y-90269961D01*
X183062666Y-90317580D01*
X182967428Y-90317580D01*
X182824571Y-90269961D01*
X182729333Y-90174723D01*
X182681714Y-90079485D01*
X182634095Y-89889009D01*
X182634095Y-89746152D01*
X182681714Y-89555676D01*
X182729333Y-89460438D01*
X182824571Y-89365200D01*
X182967428Y-89317580D01*
X183062666Y-89317580D01*
X183205523Y-89365200D01*
X183253142Y-89412819D01*
X184205523Y-90317580D02*
X183634095Y-90317580D01*
X183919809Y-90317580D02*
X183919809Y-89317580D01*
X183824571Y-89460438D01*
X183729333Y-89555676D01*
X183634095Y-89603295D01*
X185110285Y-89317580D02*
X184634095Y-89317580D01*
X184586476Y-89793771D01*
X184634095Y-89746152D01*
X184729333Y-89698533D01*
X184967428Y-89698533D01*
X185062666Y-89746152D01*
X185110285Y-89793771D01*
X185157904Y-89889009D01*
X185157904Y-90127104D01*
X185110285Y-90222342D01*
X185062666Y-90269961D01*
X184967428Y-90317580D01*
X184729333Y-90317580D01*
X184634095Y-90269961D01*
X184586476Y-90222342D01*
X183405542Y-97181942D02*
X183357923Y-97229561D01*
X183215066Y-97277180D01*
X183119828Y-97277180D01*
X182976971Y-97229561D01*
X182881733Y-97134323D01*
X182834114Y-97039085D01*
X182786495Y-96848609D01*
X182786495Y-96705752D01*
X182834114Y-96515276D01*
X182881733Y-96420038D01*
X182976971Y-96324800D01*
X183119828Y-96277180D01*
X183215066Y-96277180D01*
X183357923Y-96324800D01*
X183405542Y-96372419D01*
X184357923Y-97277180D02*
X183786495Y-97277180D01*
X184072209Y-97277180D02*
X184072209Y-96277180D01*
X183976971Y-96420038D01*
X183881733Y-96515276D01*
X183786495Y-96562895D01*
X185215066Y-96277180D02*
X185024590Y-96277180D01*
X184929352Y-96324800D01*
X184881733Y-96372419D01*
X184786495Y-96515276D01*
X184738876Y-96705752D01*
X184738876Y-97086704D01*
X184786495Y-97181942D01*
X184834114Y-97229561D01*
X184929352Y-97277180D01*
X185119828Y-97277180D01*
X185215066Y-97229561D01*
X185262685Y-97181942D01*
X185310304Y-97086704D01*
X185310304Y-96848609D01*
X185262685Y-96753371D01*
X185215066Y-96705752D01*
X185119828Y-96658133D01*
X184929352Y-96658133D01*
X184834114Y-96705752D01*
X184786495Y-96753371D01*
X184738876Y-96848609D01*
X167962342Y-88291942D02*
X167914723Y-88339561D01*
X167771866Y-88387180D01*
X167676628Y-88387180D01*
X167533771Y-88339561D01*
X167438533Y-88244323D01*
X167390914Y-88149085D01*
X167343295Y-87958609D01*
X167343295Y-87815752D01*
X167390914Y-87625276D01*
X167438533Y-87530038D01*
X167533771Y-87434800D01*
X167676628Y-87387180D01*
X167771866Y-87387180D01*
X167914723Y-87434800D01*
X167962342Y-87482419D01*
X168914723Y-88387180D02*
X168343295Y-88387180D01*
X168629009Y-88387180D02*
X168629009Y-87387180D01*
X168533771Y-87530038D01*
X168438533Y-87625276D01*
X168343295Y-87672895D01*
X169248057Y-87387180D02*
X169914723Y-87387180D01*
X169486152Y-88387180D01*
X163847542Y-112523542D02*
X163799923Y-112571161D01*
X163657066Y-112618780D01*
X163561828Y-112618780D01*
X163418971Y-112571161D01*
X163323733Y-112475923D01*
X163276114Y-112380685D01*
X163228495Y-112190209D01*
X163228495Y-112047352D01*
X163276114Y-111856876D01*
X163323733Y-111761638D01*
X163418971Y-111666400D01*
X163561828Y-111618780D01*
X163657066Y-111618780D01*
X163799923Y-111666400D01*
X163847542Y-111714019D01*
X164799923Y-112618780D02*
X164228495Y-112618780D01*
X164514209Y-112618780D02*
X164514209Y-111618780D01*
X164418971Y-111761638D01*
X164323733Y-111856876D01*
X164228495Y-111904495D01*
X165371352Y-112047352D02*
X165276114Y-111999733D01*
X165228495Y-111952114D01*
X165180876Y-111856876D01*
X165180876Y-111809257D01*
X165228495Y-111714019D01*
X165276114Y-111666400D01*
X165371352Y-111618780D01*
X165561828Y-111618780D01*
X165657066Y-111666400D01*
X165704685Y-111714019D01*
X165752304Y-111809257D01*
X165752304Y-111856876D01*
X165704685Y-111952114D01*
X165657066Y-111999733D01*
X165561828Y-112047352D01*
X165371352Y-112047352D01*
X165276114Y-112094971D01*
X165228495Y-112142590D01*
X165180876Y-112237828D01*
X165180876Y-112428304D01*
X165228495Y-112523542D01*
X165276114Y-112571161D01*
X165371352Y-112618780D01*
X165561828Y-112618780D01*
X165657066Y-112571161D01*
X165704685Y-112523542D01*
X165752304Y-112428304D01*
X165752304Y-112237828D01*
X165704685Y-112142590D01*
X165657066Y-112094971D01*
X165561828Y-112047352D01*
X168775142Y-112625142D02*
X168727523Y-112672761D01*
X168584666Y-112720380D01*
X168489428Y-112720380D01*
X168346571Y-112672761D01*
X168251333Y-112577523D01*
X168203714Y-112482285D01*
X168156095Y-112291809D01*
X168156095Y-112148952D01*
X168203714Y-111958476D01*
X168251333Y-111863238D01*
X168346571Y-111768000D01*
X168489428Y-111720380D01*
X168584666Y-111720380D01*
X168727523Y-111768000D01*
X168775142Y-111815619D01*
X169727523Y-112720380D02*
X169156095Y-112720380D01*
X169441809Y-112720380D02*
X169441809Y-111720380D01*
X169346571Y-111863238D01*
X169251333Y-111958476D01*
X169156095Y-112006095D01*
X170203714Y-112720380D02*
X170394190Y-112720380D01*
X170489428Y-112672761D01*
X170537047Y-112625142D01*
X170632285Y-112482285D01*
X170679904Y-112291809D01*
X170679904Y-111910857D01*
X170632285Y-111815619D01*
X170584666Y-111768000D01*
X170489428Y-111720380D01*
X170298952Y-111720380D01*
X170203714Y-111768000D01*
X170156095Y-111815619D01*
X170108476Y-111910857D01*
X170108476Y-112148952D01*
X170156095Y-112244190D01*
X170203714Y-112291809D01*
X170298952Y-112339428D01*
X170489428Y-112339428D01*
X170584666Y-112291809D01*
X170632285Y-112244190D01*
X170679904Y-112148952D01*
X161240742Y-98686857D02*
X161288361Y-98734476D01*
X161335980Y-98877333D01*
X161335980Y-98972571D01*
X161288361Y-99115428D01*
X161193123Y-99210666D01*
X161097885Y-99258285D01*
X160907409Y-99305904D01*
X160764552Y-99305904D01*
X160574076Y-99258285D01*
X160478838Y-99210666D01*
X160383600Y-99115428D01*
X160335980Y-98972571D01*
X160335980Y-98877333D01*
X160383600Y-98734476D01*
X160431219Y-98686857D01*
X160431219Y-98305904D02*
X160383600Y-98258285D01*
X160335980Y-98163047D01*
X160335980Y-97924952D01*
X160383600Y-97829714D01*
X160431219Y-97782095D01*
X160526457Y-97734476D01*
X160621695Y-97734476D01*
X160764552Y-97782095D01*
X161335980Y-98353523D01*
X161335980Y-97734476D01*
X160335980Y-97115428D02*
X160335980Y-97020190D01*
X160383600Y-96924952D01*
X160431219Y-96877333D01*
X160526457Y-96829714D01*
X160716933Y-96782095D01*
X160955028Y-96782095D01*
X161145504Y-96829714D01*
X161240742Y-96877333D01*
X161288361Y-96924952D01*
X161335980Y-97020190D01*
X161335980Y-97115428D01*
X161288361Y-97210666D01*
X161240742Y-97258285D01*
X161145504Y-97305904D01*
X160955028Y-97353523D01*
X160716933Y-97353523D01*
X160526457Y-97305904D01*
X160431219Y-97258285D01*
X160383600Y-97210666D01*
X160335980Y-97115428D01*
X174261542Y-114504742D02*
X174213923Y-114552361D01*
X174071066Y-114599980D01*
X173975828Y-114599980D01*
X173832971Y-114552361D01*
X173737733Y-114457123D01*
X173690114Y-114361885D01*
X173642495Y-114171409D01*
X173642495Y-114028552D01*
X173690114Y-113838076D01*
X173737733Y-113742838D01*
X173832971Y-113647600D01*
X173975828Y-113599980D01*
X174071066Y-113599980D01*
X174213923Y-113647600D01*
X174261542Y-113695219D01*
X174642495Y-113695219D02*
X174690114Y-113647600D01*
X174785352Y-113599980D01*
X175023447Y-113599980D01*
X175118685Y-113647600D01*
X175166304Y-113695219D01*
X175213923Y-113790457D01*
X175213923Y-113885695D01*
X175166304Y-114028552D01*
X174594876Y-114599980D01*
X175213923Y-114599980D01*
X176166304Y-114599980D02*
X175594876Y-114599980D01*
X175880590Y-114599980D02*
X175880590Y-113599980D01*
X175785352Y-113742838D01*
X175690114Y-113838076D01*
X175594876Y-113885695D01*
X174007542Y-103023942D02*
X173959923Y-103071561D01*
X173817066Y-103119180D01*
X173721828Y-103119180D01*
X173578971Y-103071561D01*
X173483733Y-102976323D01*
X173436114Y-102881085D01*
X173388495Y-102690609D01*
X173388495Y-102547752D01*
X173436114Y-102357276D01*
X173483733Y-102262038D01*
X173578971Y-102166800D01*
X173721828Y-102119180D01*
X173817066Y-102119180D01*
X173959923Y-102166800D01*
X174007542Y-102214419D01*
X174388495Y-102214419D02*
X174436114Y-102166800D01*
X174531352Y-102119180D01*
X174769447Y-102119180D01*
X174864685Y-102166800D01*
X174912304Y-102214419D01*
X174959923Y-102309657D01*
X174959923Y-102404895D01*
X174912304Y-102547752D01*
X174340876Y-103119180D01*
X174959923Y-103119180D01*
X175340876Y-102214419D02*
X175388495Y-102166800D01*
X175483733Y-102119180D01*
X175721828Y-102119180D01*
X175817066Y-102166800D01*
X175864685Y-102214419D01*
X175912304Y-102309657D01*
X175912304Y-102404895D01*
X175864685Y-102547752D01*
X175293257Y-103119180D01*
X175912304Y-103119180D01*
X158107142Y-127103142D02*
X158059523Y-127150761D01*
X157916666Y-127198380D01*
X157821428Y-127198380D01*
X157678571Y-127150761D01*
X157583333Y-127055523D01*
X157535714Y-126960285D01*
X157488095Y-126769809D01*
X157488095Y-126626952D01*
X157535714Y-126436476D01*
X157583333Y-126341238D01*
X157678571Y-126246000D01*
X157821428Y-126198380D01*
X157916666Y-126198380D01*
X158059523Y-126246000D01*
X158107142Y-126293619D01*
X158488095Y-126293619D02*
X158535714Y-126246000D01*
X158630952Y-126198380D01*
X158869047Y-126198380D01*
X158964285Y-126246000D01*
X159011904Y-126293619D01*
X159059523Y-126388857D01*
X159059523Y-126484095D01*
X159011904Y-126626952D01*
X158440476Y-127198380D01*
X159059523Y-127198380D01*
X159392857Y-126198380D02*
X160011904Y-126198380D01*
X159678571Y-126579333D01*
X159821428Y-126579333D01*
X159916666Y-126626952D01*
X159964285Y-126674571D01*
X160011904Y-126769809D01*
X160011904Y-127007904D01*
X159964285Y-127103142D01*
X159916666Y-127150761D01*
X159821428Y-127198380D01*
X159535714Y-127198380D01*
X159440476Y-127150761D01*
X159392857Y-127103142D01*
X183557942Y-127103142D02*
X183510323Y-127150761D01*
X183367466Y-127198380D01*
X183272228Y-127198380D01*
X183129371Y-127150761D01*
X183034133Y-127055523D01*
X182986514Y-126960285D01*
X182938895Y-126769809D01*
X182938895Y-126626952D01*
X182986514Y-126436476D01*
X183034133Y-126341238D01*
X183129371Y-126246000D01*
X183272228Y-126198380D01*
X183367466Y-126198380D01*
X183510323Y-126246000D01*
X183557942Y-126293619D01*
X183938895Y-126293619D02*
X183986514Y-126246000D01*
X184081752Y-126198380D01*
X184319847Y-126198380D01*
X184415085Y-126246000D01*
X184462704Y-126293619D01*
X184510323Y-126388857D01*
X184510323Y-126484095D01*
X184462704Y-126626952D01*
X183891276Y-127198380D01*
X184510323Y-127198380D01*
X185415085Y-126198380D02*
X184938895Y-126198380D01*
X184891276Y-126674571D01*
X184938895Y-126626952D01*
X185034133Y-126579333D01*
X185272228Y-126579333D01*
X185367466Y-126626952D01*
X185415085Y-126674571D01*
X185462704Y-126769809D01*
X185462704Y-127007904D01*
X185415085Y-127103142D01*
X185367466Y-127150761D01*
X185272228Y-127198380D01*
X185034133Y-127198380D01*
X184938895Y-127150761D01*
X184891276Y-127103142D01*
X196359542Y-130252742D02*
X196311923Y-130300361D01*
X196169066Y-130347980D01*
X196073828Y-130347980D01*
X195930971Y-130300361D01*
X195835733Y-130205123D01*
X195788114Y-130109885D01*
X195740495Y-129919409D01*
X195740495Y-129776552D01*
X195788114Y-129586076D01*
X195835733Y-129490838D01*
X195930971Y-129395600D01*
X196073828Y-129347980D01*
X196169066Y-129347980D01*
X196311923Y-129395600D01*
X196359542Y-129443219D01*
X196740495Y-129443219D02*
X196788114Y-129395600D01*
X196883352Y-129347980D01*
X197121447Y-129347980D01*
X197216685Y-129395600D01*
X197264304Y-129443219D01*
X197311923Y-129538457D01*
X197311923Y-129633695D01*
X197264304Y-129776552D01*
X196692876Y-130347980D01*
X197311923Y-130347980D01*
X198169066Y-129347980D02*
X197978590Y-129347980D01*
X197883352Y-129395600D01*
X197835733Y-129443219D01*
X197740495Y-129586076D01*
X197692876Y-129776552D01*
X197692876Y-130157504D01*
X197740495Y-130252742D01*
X197788114Y-130300361D01*
X197883352Y-130347980D01*
X198073828Y-130347980D01*
X198169066Y-130300361D01*
X198216685Y-130252742D01*
X198264304Y-130157504D01*
X198264304Y-129919409D01*
X198216685Y-129824171D01*
X198169066Y-129776552D01*
X198073828Y-129728933D01*
X197883352Y-129728933D01*
X197788114Y-129776552D01*
X197740495Y-129824171D01*
X197692876Y-129919409D01*
X137145733Y-106624380D02*
X136669542Y-106624380D01*
X136669542Y-105624380D01*
X138002876Y-106624380D02*
X137431447Y-106624380D01*
X137717161Y-106624380D02*
X137717161Y-105624380D01*
X137621923Y-105767238D01*
X137526685Y-105862476D01*
X137431447Y-105910095D01*
X181443333Y-102052380D02*
X180967142Y-102052380D01*
X180967142Y-101052380D01*
X181729047Y-101147619D02*
X181776666Y-101100000D01*
X181871904Y-101052380D01*
X182110000Y-101052380D01*
X182205238Y-101100000D01*
X182252857Y-101147619D01*
X182300476Y-101242857D01*
X182300476Y-101338095D01*
X182252857Y-101480952D01*
X181681428Y-102052380D01*
X182300476Y-102052380D01*
X175407580Y-79262266D02*
X174931390Y-79595600D01*
X175407580Y-79833695D02*
X174407580Y-79833695D01*
X174407580Y-79452742D01*
X174455200Y-79357504D01*
X174502819Y-79309885D01*
X174598057Y-79262266D01*
X174740914Y-79262266D01*
X174836152Y-79309885D01*
X174883771Y-79357504D01*
X174931390Y-79452742D01*
X174931390Y-79833695D01*
X175407580Y-78309885D02*
X175407580Y-78881314D01*
X175407580Y-78595600D02*
X174407580Y-78595600D01*
X174550438Y-78690838D01*
X174645676Y-78786076D01*
X174693295Y-78881314D01*
X143241733Y-110027980D02*
X142908400Y-109551790D01*
X142670304Y-110027980D02*
X142670304Y-109027980D01*
X143051257Y-109027980D01*
X143146495Y-109075600D01*
X143194114Y-109123219D01*
X143241733Y-109218457D01*
X143241733Y-109361314D01*
X143194114Y-109456552D01*
X143146495Y-109504171D01*
X143051257Y-109551790D01*
X142670304Y-109551790D01*
X143622685Y-109123219D02*
X143670304Y-109075600D01*
X143765542Y-109027980D01*
X144003638Y-109027980D01*
X144098876Y-109075600D01*
X144146495Y-109123219D01*
X144194114Y-109218457D01*
X144194114Y-109313695D01*
X144146495Y-109456552D01*
X143575066Y-110027980D01*
X144194114Y-110027980D01*
X183078380Y-118683066D02*
X182602190Y-119016400D01*
X183078380Y-119254495D02*
X182078380Y-119254495D01*
X182078380Y-118873542D01*
X182126000Y-118778304D01*
X182173619Y-118730685D01*
X182268857Y-118683066D01*
X182411714Y-118683066D01*
X182506952Y-118730685D01*
X182554571Y-118778304D01*
X182602190Y-118873542D01*
X182602190Y-119254495D01*
X182078380Y-118349733D02*
X182078380Y-117730685D01*
X182459333Y-118064019D01*
X182459333Y-117921161D01*
X182506952Y-117825923D01*
X182554571Y-117778304D01*
X182649809Y-117730685D01*
X182887904Y-117730685D01*
X182983142Y-117778304D01*
X183030761Y-117825923D01*
X183078380Y-117921161D01*
X183078380Y-118206876D01*
X183030761Y-118302114D01*
X182983142Y-118349733D01*
X183027580Y-125033066D02*
X182551390Y-125366400D01*
X183027580Y-125604495D02*
X182027580Y-125604495D01*
X182027580Y-125223542D01*
X182075200Y-125128304D01*
X182122819Y-125080685D01*
X182218057Y-125033066D01*
X182360914Y-125033066D01*
X182456152Y-125080685D01*
X182503771Y-125128304D01*
X182551390Y-125223542D01*
X182551390Y-125604495D01*
X182360914Y-124175923D02*
X183027580Y-124175923D01*
X181979961Y-124414019D02*
X182694247Y-124652114D01*
X182694247Y-124033066D01*
X160218380Y-86018666D02*
X159742190Y-86352000D01*
X160218380Y-86590095D02*
X159218380Y-86590095D01*
X159218380Y-86209142D01*
X159266000Y-86113904D01*
X159313619Y-86066285D01*
X159408857Y-86018666D01*
X159551714Y-86018666D01*
X159646952Y-86066285D01*
X159694571Y-86113904D01*
X159742190Y-86209142D01*
X159742190Y-86590095D01*
X159218380Y-85113904D02*
X159218380Y-85590095D01*
X159694571Y-85637714D01*
X159646952Y-85590095D01*
X159599333Y-85494857D01*
X159599333Y-85256761D01*
X159646952Y-85161523D01*
X159694571Y-85113904D01*
X159789809Y-85066285D01*
X160027904Y-85066285D01*
X160123142Y-85113904D01*
X160170761Y-85161523D01*
X160218380Y-85256761D01*
X160218380Y-85494857D01*
X160170761Y-85590095D01*
X160123142Y-85637714D01*
X156306780Y-86018666D02*
X155830590Y-86352000D01*
X156306780Y-86590095D02*
X155306780Y-86590095D01*
X155306780Y-86209142D01*
X155354400Y-86113904D01*
X155402019Y-86066285D01*
X155497257Y-86018666D01*
X155640114Y-86018666D01*
X155735352Y-86066285D01*
X155782971Y-86113904D01*
X155830590Y-86209142D01*
X155830590Y-86590095D01*
X155306780Y-85161523D02*
X155306780Y-85352000D01*
X155354400Y-85447238D01*
X155402019Y-85494857D01*
X155544876Y-85590095D01*
X155735352Y-85637714D01*
X156116304Y-85637714D01*
X156211542Y-85590095D01*
X156259161Y-85542476D01*
X156306780Y-85447238D01*
X156306780Y-85256761D01*
X156259161Y-85161523D01*
X156211542Y-85113904D01*
X156116304Y-85066285D01*
X155878209Y-85066285D01*
X155782971Y-85113904D01*
X155735352Y-85161523D01*
X155687733Y-85256761D01*
X155687733Y-85447238D01*
X155735352Y-85542476D01*
X155782971Y-85590095D01*
X155878209Y-85637714D01*
X156408380Y-79313066D02*
X155932190Y-79646400D01*
X156408380Y-79884495D02*
X155408380Y-79884495D01*
X155408380Y-79503542D01*
X155456000Y-79408304D01*
X155503619Y-79360685D01*
X155598857Y-79313066D01*
X155741714Y-79313066D01*
X155836952Y-79360685D01*
X155884571Y-79408304D01*
X155932190Y-79503542D01*
X155932190Y-79884495D01*
X155408380Y-78979733D02*
X155408380Y-78313066D01*
X156408380Y-78741638D01*
X152649180Y-79262266D02*
X152172990Y-79595600D01*
X152649180Y-79833695D02*
X151649180Y-79833695D01*
X151649180Y-79452742D01*
X151696800Y-79357504D01*
X151744419Y-79309885D01*
X151839657Y-79262266D01*
X151982514Y-79262266D01*
X152077752Y-79309885D01*
X152125371Y-79357504D01*
X152172990Y-79452742D01*
X152172990Y-79833695D01*
X152077752Y-78690838D02*
X152030133Y-78786076D01*
X151982514Y-78833695D01*
X151887276Y-78881314D01*
X151839657Y-78881314D01*
X151744419Y-78833695D01*
X151696800Y-78786076D01*
X151649180Y-78690838D01*
X151649180Y-78500361D01*
X151696800Y-78405123D01*
X151744419Y-78357504D01*
X151839657Y-78309885D01*
X151887276Y-78309885D01*
X151982514Y-78357504D01*
X152030133Y-78405123D01*
X152077752Y-78500361D01*
X152077752Y-78690838D01*
X152125371Y-78786076D01*
X152172990Y-78833695D01*
X152268228Y-78881314D01*
X152458704Y-78881314D01*
X152553942Y-78833695D01*
X152601561Y-78786076D01*
X152649180Y-78690838D01*
X152649180Y-78500361D01*
X152601561Y-78405123D01*
X152553942Y-78357504D01*
X152458704Y-78309885D01*
X152268228Y-78309885D01*
X152172990Y-78357504D01*
X152125371Y-78405123D01*
X152077752Y-78500361D01*
X148737580Y-79313066D02*
X148261390Y-79646400D01*
X148737580Y-79884495D02*
X147737580Y-79884495D01*
X147737580Y-79503542D01*
X147785200Y-79408304D01*
X147832819Y-79360685D01*
X147928057Y-79313066D01*
X148070914Y-79313066D01*
X148166152Y-79360685D01*
X148213771Y-79408304D01*
X148261390Y-79503542D01*
X148261390Y-79884495D01*
X148737580Y-78836876D02*
X148737580Y-78646400D01*
X148689961Y-78551161D01*
X148642342Y-78503542D01*
X148499485Y-78408304D01*
X148309009Y-78360685D01*
X147928057Y-78360685D01*
X147832819Y-78408304D01*
X147785200Y-78455923D01*
X147737580Y-78551161D01*
X147737580Y-78741638D01*
X147785200Y-78836876D01*
X147832819Y-78884495D01*
X147928057Y-78932114D01*
X148166152Y-78932114D01*
X148261390Y-78884495D01*
X148309009Y-78836876D01*
X148356628Y-78741638D01*
X148356628Y-78551161D01*
X148309009Y-78455923D01*
X148261390Y-78408304D01*
X148166152Y-78360685D01*
X126407942Y-133446780D02*
X126074609Y-132970590D01*
X125836514Y-133446780D02*
X125836514Y-132446780D01*
X126217466Y-132446780D01*
X126312704Y-132494400D01*
X126360323Y-132542019D01*
X126407942Y-132637257D01*
X126407942Y-132780114D01*
X126360323Y-132875352D01*
X126312704Y-132922971D01*
X126217466Y-132970590D01*
X125836514Y-132970590D01*
X127360323Y-133446780D02*
X126788895Y-133446780D01*
X127074609Y-133446780D02*
X127074609Y-132446780D01*
X126979371Y-132589638D01*
X126884133Y-132684876D01*
X126788895Y-132732495D01*
X127979371Y-132446780D02*
X128074609Y-132446780D01*
X128169847Y-132494400D01*
X128217466Y-132542019D01*
X128265085Y-132637257D01*
X128312704Y-132827733D01*
X128312704Y-133065828D01*
X128265085Y-133256304D01*
X128217466Y-133351542D01*
X128169847Y-133399161D01*
X128074609Y-133446780D01*
X127979371Y-133446780D01*
X127884133Y-133399161D01*
X127836514Y-133351542D01*
X127788895Y-133256304D01*
X127741276Y-133065828D01*
X127741276Y-132827733D01*
X127788895Y-132637257D01*
X127836514Y-132542019D01*
X127884133Y-132494400D01*
X127979371Y-132446780D01*
X133926342Y-129636780D02*
X133593009Y-129160590D01*
X133354914Y-129636780D02*
X133354914Y-128636780D01*
X133735866Y-128636780D01*
X133831104Y-128684400D01*
X133878723Y-128732019D01*
X133926342Y-128827257D01*
X133926342Y-128970114D01*
X133878723Y-129065352D01*
X133831104Y-129112971D01*
X133735866Y-129160590D01*
X133354914Y-129160590D01*
X134878723Y-129636780D02*
X134307295Y-129636780D01*
X134593009Y-129636780D02*
X134593009Y-128636780D01*
X134497771Y-128779638D01*
X134402533Y-128874876D01*
X134307295Y-128922495D01*
X135831104Y-129636780D02*
X135259676Y-129636780D01*
X135545390Y-129636780D02*
X135545390Y-128636780D01*
X135450152Y-128779638D01*
X135354914Y-128874876D01*
X135259676Y-128922495D01*
X133824742Y-133446780D02*
X133491409Y-132970590D01*
X133253314Y-133446780D02*
X133253314Y-132446780D01*
X133634266Y-132446780D01*
X133729504Y-132494400D01*
X133777123Y-132542019D01*
X133824742Y-132637257D01*
X133824742Y-132780114D01*
X133777123Y-132875352D01*
X133729504Y-132922971D01*
X133634266Y-132970590D01*
X133253314Y-132970590D01*
X134777123Y-133446780D02*
X134205695Y-133446780D01*
X134491409Y-133446780D02*
X134491409Y-132446780D01*
X134396171Y-132589638D01*
X134300933Y-132684876D01*
X134205695Y-132732495D01*
X135158076Y-132542019D02*
X135205695Y-132494400D01*
X135300933Y-132446780D01*
X135539028Y-132446780D01*
X135634266Y-132494400D01*
X135681885Y-132542019D01*
X135729504Y-132637257D01*
X135729504Y-132732495D01*
X135681885Y-132875352D01*
X135110457Y-133446780D01*
X135729504Y-133446780D01*
X141444742Y-129738380D02*
X141111409Y-129262190D01*
X140873314Y-129738380D02*
X140873314Y-128738380D01*
X141254266Y-128738380D01*
X141349504Y-128786000D01*
X141397123Y-128833619D01*
X141444742Y-128928857D01*
X141444742Y-129071714D01*
X141397123Y-129166952D01*
X141349504Y-129214571D01*
X141254266Y-129262190D01*
X140873314Y-129262190D01*
X142397123Y-129738380D02*
X141825695Y-129738380D01*
X142111409Y-129738380D02*
X142111409Y-128738380D01*
X142016171Y-128881238D01*
X141920933Y-128976476D01*
X141825695Y-129024095D01*
X142730457Y-128738380D02*
X143349504Y-128738380D01*
X143016171Y-129119333D01*
X143159028Y-129119333D01*
X143254266Y-129166952D01*
X143301885Y-129214571D01*
X143349504Y-129309809D01*
X143349504Y-129547904D01*
X143301885Y-129643142D01*
X143254266Y-129690761D01*
X143159028Y-129738380D01*
X142873314Y-129738380D01*
X142778076Y-129690761D01*
X142730457Y-129643142D01*
X141393942Y-133446780D02*
X141060609Y-132970590D01*
X140822514Y-133446780D02*
X140822514Y-132446780D01*
X141203466Y-132446780D01*
X141298704Y-132494400D01*
X141346323Y-132542019D01*
X141393942Y-132637257D01*
X141393942Y-132780114D01*
X141346323Y-132875352D01*
X141298704Y-132922971D01*
X141203466Y-132970590D01*
X140822514Y-132970590D01*
X142346323Y-133446780D02*
X141774895Y-133446780D01*
X142060609Y-133446780D02*
X142060609Y-132446780D01*
X141965371Y-132589638D01*
X141870133Y-132684876D01*
X141774895Y-132732495D01*
X143203466Y-132780114D02*
X143203466Y-133446780D01*
X142965371Y-132399161D02*
X142727276Y-133113447D01*
X143346323Y-133113447D01*
X126357142Y-129687580D02*
X126023809Y-129211390D01*
X125785714Y-129687580D02*
X125785714Y-128687580D01*
X126166666Y-128687580D01*
X126261904Y-128735200D01*
X126309523Y-128782819D01*
X126357142Y-128878057D01*
X126357142Y-129020914D01*
X126309523Y-129116152D01*
X126261904Y-129163771D01*
X126166666Y-129211390D01*
X125785714Y-129211390D01*
X127309523Y-129687580D02*
X126738095Y-129687580D01*
X127023809Y-129687580D02*
X127023809Y-128687580D01*
X126928571Y-128830438D01*
X126833333Y-128925676D01*
X126738095Y-128973295D01*
X128214285Y-128687580D02*
X127738095Y-128687580D01*
X127690476Y-129163771D01*
X127738095Y-129116152D01*
X127833333Y-129068533D01*
X128071428Y-129068533D01*
X128166666Y-129116152D01*
X128214285Y-129163771D01*
X128261904Y-129259009D01*
X128261904Y-129497104D01*
X128214285Y-129592342D01*
X128166666Y-129639961D01*
X128071428Y-129687580D01*
X127833333Y-129687580D01*
X127738095Y-129639961D01*
X127690476Y-129592342D01*
X160167580Y-79332057D02*
X159691390Y-79665390D01*
X160167580Y-79903485D02*
X159167580Y-79903485D01*
X159167580Y-79522533D01*
X159215200Y-79427295D01*
X159262819Y-79379676D01*
X159358057Y-79332057D01*
X159500914Y-79332057D01*
X159596152Y-79379676D01*
X159643771Y-79427295D01*
X159691390Y-79522533D01*
X159691390Y-79903485D01*
X160167580Y-78379676D02*
X160167580Y-78951104D01*
X160167580Y-78665390D02*
X159167580Y-78665390D01*
X159310438Y-78760628D01*
X159405676Y-78855866D01*
X159453295Y-78951104D01*
X159167580Y-77522533D02*
X159167580Y-77713009D01*
X159215200Y-77808247D01*
X159262819Y-77855866D01*
X159405676Y-77951104D01*
X159596152Y-77998723D01*
X159977104Y-77998723D01*
X160072342Y-77951104D01*
X160119961Y-77903485D01*
X160167580Y-77808247D01*
X160167580Y-77617771D01*
X160119961Y-77522533D01*
X160072342Y-77474914D01*
X159977104Y-77427295D01*
X159739009Y-77427295D01*
X159643771Y-77474914D01*
X159596152Y-77522533D01*
X159548533Y-77617771D01*
X159548533Y-77808247D01*
X159596152Y-77903485D01*
X159643771Y-77951104D01*
X159739009Y-77998723D01*
X187266342Y-64917580D02*
X186933009Y-64441390D01*
X186694914Y-64917580D02*
X186694914Y-63917580D01*
X187075866Y-63917580D01*
X187171104Y-63965200D01*
X187218723Y-64012819D01*
X187266342Y-64108057D01*
X187266342Y-64250914D01*
X187218723Y-64346152D01*
X187171104Y-64393771D01*
X187075866Y-64441390D01*
X186694914Y-64441390D01*
X188218723Y-64917580D02*
X187647295Y-64917580D01*
X187933009Y-64917580D02*
X187933009Y-63917580D01*
X187837771Y-64060438D01*
X187742533Y-64155676D01*
X187647295Y-64203295D01*
X188552057Y-63917580D02*
X189218723Y-63917580D01*
X188790152Y-64917580D01*
X157678380Y-71915257D02*
X157202190Y-72248590D01*
X157678380Y-72486685D02*
X156678380Y-72486685D01*
X156678380Y-72105733D01*
X156726000Y-72010495D01*
X156773619Y-71962876D01*
X156868857Y-71915257D01*
X157011714Y-71915257D01*
X157106952Y-71962876D01*
X157154571Y-72010495D01*
X157202190Y-72105733D01*
X157202190Y-72486685D01*
X157678380Y-70962876D02*
X157678380Y-71534304D01*
X157678380Y-71248590D02*
X156678380Y-71248590D01*
X156821238Y-71343828D01*
X156916476Y-71439066D01*
X156964095Y-71534304D01*
X157678380Y-70486685D02*
X157678380Y-70296209D01*
X157630761Y-70200971D01*
X157583142Y-70153352D01*
X157440285Y-70058114D01*
X157249809Y-70010495D01*
X156868857Y-70010495D01*
X156773619Y-70058114D01*
X156726000Y-70105733D01*
X156678380Y-70200971D01*
X156678380Y-70391447D01*
X156726000Y-70486685D01*
X156773619Y-70534304D01*
X156868857Y-70581923D01*
X157106952Y-70581923D01*
X157202190Y-70534304D01*
X157249809Y-70486685D01*
X157297428Y-70391447D01*
X157297428Y-70200971D01*
X157249809Y-70105733D01*
X157202190Y-70058114D01*
X157106952Y-70010495D01*
X161917142Y-73858380D02*
X161583809Y-73382190D01*
X161345714Y-73858380D02*
X161345714Y-72858380D01*
X161726666Y-72858380D01*
X161821904Y-72906000D01*
X161869523Y-72953619D01*
X161917142Y-73048857D01*
X161917142Y-73191714D01*
X161869523Y-73286952D01*
X161821904Y-73334571D01*
X161726666Y-73382190D01*
X161345714Y-73382190D01*
X162298095Y-72953619D02*
X162345714Y-72906000D01*
X162440952Y-72858380D01*
X162679047Y-72858380D01*
X162774285Y-72906000D01*
X162821904Y-72953619D01*
X162869523Y-73048857D01*
X162869523Y-73144095D01*
X162821904Y-73286952D01*
X162250476Y-73858380D01*
X162869523Y-73858380D01*
X163488571Y-72858380D02*
X163583809Y-72858380D01*
X163679047Y-72906000D01*
X163726666Y-72953619D01*
X163774285Y-73048857D01*
X163821904Y-73239333D01*
X163821904Y-73477428D01*
X163774285Y-73667904D01*
X163726666Y-73763142D01*
X163679047Y-73810761D01*
X163583809Y-73858380D01*
X163488571Y-73858380D01*
X163393333Y-73810761D01*
X163345714Y-73763142D01*
X163298095Y-73667904D01*
X163250476Y-73477428D01*
X163250476Y-73239333D01*
X163298095Y-73048857D01*
X163345714Y-72953619D01*
X163393333Y-72906000D01*
X163488571Y-72858380D01*
X173578780Y-72270857D02*
X173102590Y-72604190D01*
X173578780Y-72842285D02*
X172578780Y-72842285D01*
X172578780Y-72461333D01*
X172626400Y-72366095D01*
X172674019Y-72318476D01*
X172769257Y-72270857D01*
X172912114Y-72270857D01*
X173007352Y-72318476D01*
X173054971Y-72366095D01*
X173102590Y-72461333D01*
X173102590Y-72842285D01*
X172674019Y-71889904D02*
X172626400Y-71842285D01*
X172578780Y-71747047D01*
X172578780Y-71508952D01*
X172626400Y-71413714D01*
X172674019Y-71366095D01*
X172769257Y-71318476D01*
X172864495Y-71318476D01*
X173007352Y-71366095D01*
X173578780Y-71937523D01*
X173578780Y-71318476D01*
X173578780Y-70366095D02*
X173578780Y-70937523D01*
X173578780Y-70651809D02*
X172578780Y-70651809D01*
X172721638Y-70747047D01*
X172816876Y-70842285D01*
X172864495Y-70937523D01*
X164406342Y-62377580D02*
X164073009Y-61901390D01*
X163834914Y-62377580D02*
X163834914Y-61377580D01*
X164215866Y-61377580D01*
X164311104Y-61425200D01*
X164358723Y-61472819D01*
X164406342Y-61568057D01*
X164406342Y-61710914D01*
X164358723Y-61806152D01*
X164311104Y-61853771D01*
X164215866Y-61901390D01*
X163834914Y-61901390D01*
X164787295Y-61472819D02*
X164834914Y-61425200D01*
X164930152Y-61377580D01*
X165168247Y-61377580D01*
X165263485Y-61425200D01*
X165311104Y-61472819D01*
X165358723Y-61568057D01*
X165358723Y-61663295D01*
X165311104Y-61806152D01*
X164739676Y-62377580D01*
X165358723Y-62377580D01*
X165692057Y-61377580D02*
X166311104Y-61377580D01*
X165977771Y-61758533D01*
X166120628Y-61758533D01*
X166215866Y-61806152D01*
X166263485Y-61853771D01*
X166311104Y-61949009D01*
X166311104Y-62187104D01*
X166263485Y-62282342D01*
X166215866Y-62329961D01*
X166120628Y-62377580D01*
X165834914Y-62377580D01*
X165739676Y-62329961D01*
X165692057Y-62282342D01*
X177157142Y-65628780D02*
X176823809Y-65152590D01*
X176585714Y-65628780D02*
X176585714Y-64628780D01*
X176966666Y-64628780D01*
X177061904Y-64676400D01*
X177109523Y-64724019D01*
X177157142Y-64819257D01*
X177157142Y-64962114D01*
X177109523Y-65057352D01*
X177061904Y-65104971D01*
X176966666Y-65152590D01*
X176585714Y-65152590D01*
X177538095Y-64724019D02*
X177585714Y-64676400D01*
X177680952Y-64628780D01*
X177919047Y-64628780D01*
X178014285Y-64676400D01*
X178061904Y-64724019D01*
X178109523Y-64819257D01*
X178109523Y-64914495D01*
X178061904Y-65057352D01*
X177490476Y-65628780D01*
X178109523Y-65628780D01*
X178966666Y-64962114D02*
X178966666Y-65628780D01*
X178728571Y-64581161D02*
X178490476Y-65295447D01*
X179109523Y-65295447D01*
X193496828Y-112482380D02*
X193865057Y-112482380D01*
X193680942Y-113482380D02*
X193680942Y-112482380D01*
X194079857Y-113482380D02*
X194079857Y-112482380D01*
X194325342Y-112482380D01*
X194386714Y-112530000D01*
X194417400Y-112577619D01*
X194448085Y-112672857D01*
X194448085Y-112815714D01*
X194417400Y-112910952D01*
X194386714Y-112958571D01*
X194325342Y-113006190D01*
X194079857Y-113006190D01*
X195061800Y-113482380D02*
X194693571Y-113482380D01*
X194877685Y-113482380D02*
X194877685Y-112482380D01*
X194816314Y-112625238D01*
X194754942Y-112720476D01*
X194693571Y-112768095D01*
X196036828Y-112482380D02*
X196405057Y-112482380D01*
X196220942Y-113482380D02*
X196220942Y-112482380D01*
X196619857Y-113482380D02*
X196619857Y-112482380D01*
X196865342Y-112482380D01*
X196926714Y-112530000D01*
X196957400Y-112577619D01*
X196988085Y-112672857D01*
X196988085Y-112815714D01*
X196957400Y-112910952D01*
X196926714Y-112958571D01*
X196865342Y-113006190D01*
X196619857Y-113006190D01*
X197233571Y-112577619D02*
X197264257Y-112530000D01*
X197325628Y-112482380D01*
X197479057Y-112482380D01*
X197540428Y-112530000D01*
X197571114Y-112577619D01*
X197601800Y-112672857D01*
X197601800Y-112768095D01*
X197571114Y-112910952D01*
X197202885Y-113482380D01*
X197601800Y-113482380D01*
X198576828Y-112482380D02*
X198945057Y-112482380D01*
X198760942Y-113482380D02*
X198760942Y-112482380D01*
X199159857Y-113482380D02*
X199159857Y-112482380D01*
X199405342Y-112482380D01*
X199466714Y-112530000D01*
X199497400Y-112577619D01*
X199528085Y-112672857D01*
X199528085Y-112815714D01*
X199497400Y-112910952D01*
X199466714Y-112958571D01*
X199405342Y-113006190D01*
X199159857Y-113006190D01*
X199742885Y-112482380D02*
X200141800Y-112482380D01*
X199927000Y-112863333D01*
X200019057Y-112863333D01*
X200080428Y-112910952D01*
X200111114Y-112958571D01*
X200141800Y-113053809D01*
X200141800Y-113291904D01*
X200111114Y-113387142D01*
X200080428Y-113434761D01*
X200019057Y-113482380D01*
X199834942Y-113482380D01*
X199773571Y-113434761D01*
X199742885Y-113387142D01*
X195782828Y-88504780D02*
X196151057Y-88504780D01*
X195966942Y-89504780D02*
X195966942Y-88504780D01*
X196365857Y-89504780D02*
X196365857Y-88504780D01*
X196611342Y-88504780D01*
X196672714Y-88552400D01*
X196703400Y-88600019D01*
X196734085Y-88695257D01*
X196734085Y-88838114D01*
X196703400Y-88933352D01*
X196672714Y-88980971D01*
X196611342Y-89028590D01*
X196365857Y-89028590D01*
X197286428Y-88838114D02*
X197286428Y-89504780D01*
X197133000Y-88457161D02*
X196979571Y-89171447D01*
X197378485Y-89171447D01*
X132037295Y-108773980D02*
X132608723Y-108773980D01*
X132323009Y-109773980D02*
X132323009Y-108773980D01*
X132942057Y-109773980D02*
X132942057Y-108773980D01*
X133323009Y-108773980D01*
X133418247Y-108821600D01*
X133465866Y-108869219D01*
X133513485Y-108964457D01*
X133513485Y-109107314D01*
X133465866Y-109202552D01*
X133418247Y-109250171D01*
X133323009Y-109297790D01*
X132942057Y-109297790D01*
X134418247Y-108773980D02*
X133942057Y-108773980D01*
X133894438Y-109250171D01*
X133942057Y-109202552D01*
X134037295Y-109154933D01*
X134275390Y-109154933D01*
X134370628Y-109202552D01*
X134418247Y-109250171D01*
X134465866Y-109345409D01*
X134465866Y-109583504D01*
X134418247Y-109678742D01*
X134370628Y-109726361D01*
X134275390Y-109773980D01*
X134037295Y-109773980D01*
X133942057Y-109726361D01*
X133894438Y-109678742D01*
X132037295Y-111364780D02*
X132608723Y-111364780D01*
X132323009Y-112364780D02*
X132323009Y-111364780D01*
X132942057Y-112364780D02*
X132942057Y-111364780D01*
X133323009Y-111364780D01*
X133418247Y-111412400D01*
X133465866Y-111460019D01*
X133513485Y-111555257D01*
X133513485Y-111698114D01*
X133465866Y-111793352D01*
X133418247Y-111840971D01*
X133323009Y-111888590D01*
X132942057Y-111888590D01*
X134370628Y-111364780D02*
X134180152Y-111364780D01*
X134084914Y-111412400D01*
X134037295Y-111460019D01*
X133942057Y-111602876D01*
X133894438Y-111793352D01*
X133894438Y-112174304D01*
X133942057Y-112269542D01*
X133989676Y-112317161D01*
X134084914Y-112364780D01*
X134275390Y-112364780D01*
X134370628Y-112317161D01*
X134418247Y-112269542D01*
X134465866Y-112174304D01*
X134465866Y-111936209D01*
X134418247Y-111840971D01*
X134370628Y-111793352D01*
X134275390Y-111745733D01*
X134084914Y-111745733D01*
X133989676Y-111793352D01*
X133942057Y-111840971D01*
X133894438Y-111936209D01*
X171195628Y-139253980D02*
X171563857Y-139253980D01*
X171379742Y-140253980D02*
X171379742Y-139253980D01*
X171778657Y-140253980D02*
X171778657Y-139253980D01*
X172024142Y-139253980D01*
X172085514Y-139301600D01*
X172116200Y-139349219D01*
X172146885Y-139444457D01*
X172146885Y-139587314D01*
X172116200Y-139682552D01*
X172085514Y-139730171D01*
X172024142Y-139777790D01*
X171778657Y-139777790D01*
X172361685Y-139253980D02*
X172791285Y-139253980D01*
X172515114Y-140253980D01*
X173786428Y-139253980D02*
X174154657Y-139253980D01*
X173970542Y-140253980D02*
X173970542Y-139253980D01*
X174369457Y-140253980D02*
X174369457Y-139253980D01*
X174614942Y-139253980D01*
X174676314Y-139301600D01*
X174707000Y-139349219D01*
X174737685Y-139444457D01*
X174737685Y-139587314D01*
X174707000Y-139682552D01*
X174676314Y-139730171D01*
X174614942Y-139777790D01*
X174369457Y-139777790D01*
X175105914Y-139682552D02*
X175044542Y-139634933D01*
X175013857Y-139587314D01*
X174983171Y-139492076D01*
X174983171Y-139444457D01*
X175013857Y-139349219D01*
X175044542Y-139301600D01*
X175105914Y-139253980D01*
X175228657Y-139253980D01*
X175290028Y-139301600D01*
X175320714Y-139349219D01*
X175351400Y-139444457D01*
X175351400Y-139492076D01*
X175320714Y-139587314D01*
X175290028Y-139634933D01*
X175228657Y-139682552D01*
X175105914Y-139682552D01*
X175044542Y-139730171D01*
X175013857Y-139777790D01*
X174983171Y-139873028D01*
X174983171Y-140063504D01*
X175013857Y-140158742D01*
X175044542Y-140206361D01*
X175105914Y-140253980D01*
X175228657Y-140253980D01*
X175290028Y-140206361D01*
X175320714Y-140158742D01*
X175351400Y-140063504D01*
X175351400Y-139873028D01*
X175320714Y-139777790D01*
X175290028Y-139730171D01*
X175228657Y-139682552D01*
X183895628Y-139203180D02*
X184263857Y-139203180D01*
X184079742Y-140203180D02*
X184079742Y-139203180D01*
X184478657Y-140203180D02*
X184478657Y-139203180D01*
X184724142Y-139203180D01*
X184785514Y-139250800D01*
X184816200Y-139298419D01*
X184846885Y-139393657D01*
X184846885Y-139536514D01*
X184816200Y-139631752D01*
X184785514Y-139679371D01*
X184724142Y-139726990D01*
X184478657Y-139726990D01*
X185153742Y-140203180D02*
X185276485Y-140203180D01*
X185337857Y-140155561D01*
X185368542Y-140107942D01*
X185429914Y-139965085D01*
X185460600Y-139774609D01*
X185460600Y-139393657D01*
X185429914Y-139298419D01*
X185399228Y-139250800D01*
X185337857Y-139203180D01*
X185215114Y-139203180D01*
X185153742Y-139250800D01*
X185123057Y-139298419D01*
X185092371Y-139393657D01*
X185092371Y-139631752D01*
X185123057Y-139726990D01*
X185153742Y-139774609D01*
X185215114Y-139822228D01*
X185337857Y-139822228D01*
X185399228Y-139774609D01*
X185429914Y-139726990D01*
X185460600Y-139631752D01*
X178508771Y-139253980D02*
X178877000Y-139253980D01*
X178692885Y-140253980D02*
X178692885Y-139253980D01*
X179091800Y-140253980D02*
X179091800Y-139253980D01*
X179337285Y-139253980D01*
X179398657Y-139301600D01*
X179429342Y-139349219D01*
X179460028Y-139444457D01*
X179460028Y-139587314D01*
X179429342Y-139682552D01*
X179398657Y-139730171D01*
X179337285Y-139777790D01*
X179091800Y-139777790D01*
X180073742Y-140253980D02*
X179705514Y-140253980D01*
X179889628Y-140253980D02*
X179889628Y-139253980D01*
X179828257Y-139396838D01*
X179766885Y-139492076D01*
X179705514Y-139539695D01*
X180472657Y-139253980D02*
X180534028Y-139253980D01*
X180595400Y-139301600D01*
X180626085Y-139349219D01*
X180656771Y-139444457D01*
X180687457Y-139634933D01*
X180687457Y-139873028D01*
X180656771Y-140063504D01*
X180626085Y-140158742D01*
X180595400Y-140206361D01*
X180534028Y-140253980D01*
X180472657Y-140253980D01*
X180411285Y-140206361D01*
X180380600Y-140158742D01*
X180349914Y-140063504D01*
X180319228Y-139873028D01*
X180319228Y-139634933D01*
X180349914Y-139444457D01*
X180380600Y-139349219D01*
X180411285Y-139301600D01*
X180472657Y-139253980D01*
X181150371Y-139203180D02*
X181518600Y-139203180D01*
X181334485Y-140203180D02*
X181334485Y-139203180D01*
X181733400Y-140203180D02*
X181733400Y-139203180D01*
X181978885Y-139203180D01*
X182040257Y-139250800D01*
X182070942Y-139298419D01*
X182101628Y-139393657D01*
X182101628Y-139536514D01*
X182070942Y-139631752D01*
X182040257Y-139679371D01*
X181978885Y-139726990D01*
X181733400Y-139726990D01*
X182715342Y-140203180D02*
X182347114Y-140203180D01*
X182531228Y-140203180D02*
X182531228Y-139203180D01*
X182469857Y-139346038D01*
X182408485Y-139441276D01*
X182347114Y-139488895D01*
X183329057Y-140203180D02*
X182960828Y-140203180D01*
X183144942Y-140203180D02*
X183144942Y-139203180D01*
X183083571Y-139346038D01*
X183022200Y-139441276D01*
X182960828Y-139488895D01*
X175917971Y-139253980D02*
X176286200Y-139253980D01*
X176102085Y-140253980D02*
X176102085Y-139253980D01*
X176501000Y-140253980D02*
X176501000Y-139253980D01*
X176746485Y-139253980D01*
X176807857Y-139301600D01*
X176838542Y-139349219D01*
X176869228Y-139444457D01*
X176869228Y-139587314D01*
X176838542Y-139682552D01*
X176807857Y-139730171D01*
X176746485Y-139777790D01*
X176501000Y-139777790D01*
X177482942Y-140253980D02*
X177114714Y-140253980D01*
X177298828Y-140253980D02*
X177298828Y-139253980D01*
X177237457Y-139396838D01*
X177176085Y-139492076D01*
X177114714Y-139539695D01*
X177728428Y-139349219D02*
X177759114Y-139301600D01*
X177820485Y-139253980D01*
X177973914Y-139253980D01*
X178035285Y-139301600D01*
X178065971Y-139349219D01*
X178096657Y-139444457D01*
X178096657Y-139539695D01*
X178065971Y-139682552D01*
X177697742Y-140253980D01*
X178096657Y-140253980D01*
X186077971Y-139253980D02*
X186446200Y-139253980D01*
X186262085Y-140253980D02*
X186262085Y-139253980D01*
X186661000Y-140253980D02*
X186661000Y-139253980D01*
X186906485Y-139253980D01*
X186967857Y-139301600D01*
X186998542Y-139349219D01*
X187029228Y-139444457D01*
X187029228Y-139587314D01*
X186998542Y-139682552D01*
X186967857Y-139730171D01*
X186906485Y-139777790D01*
X186661000Y-139777790D01*
X187642942Y-140253980D02*
X187274714Y-140253980D01*
X187458828Y-140253980D02*
X187458828Y-139253980D01*
X187397457Y-139396838D01*
X187336085Y-139492076D01*
X187274714Y-139539695D01*
X187857742Y-139253980D02*
X188256657Y-139253980D01*
X188041857Y-139634933D01*
X188133914Y-139634933D01*
X188195285Y-139682552D01*
X188225971Y-139730171D01*
X188256657Y-139825409D01*
X188256657Y-140063504D01*
X188225971Y-140158742D01*
X188195285Y-140206361D01*
X188133914Y-140253980D01*
X187949800Y-140253980D01*
X187888428Y-140206361D01*
X187857742Y-140158742D01*
X191462771Y-139203180D02*
X191831000Y-139203180D01*
X191646885Y-140203180D02*
X191646885Y-139203180D01*
X192045800Y-140203180D02*
X192045800Y-139203180D01*
X192291285Y-139203180D01*
X192352657Y-139250800D01*
X192383342Y-139298419D01*
X192414028Y-139393657D01*
X192414028Y-139536514D01*
X192383342Y-139631752D01*
X192352657Y-139679371D01*
X192291285Y-139726990D01*
X192045800Y-139726990D01*
X193027742Y-140203180D02*
X192659514Y-140203180D01*
X192843628Y-140203180D02*
X192843628Y-139203180D01*
X192782257Y-139346038D01*
X192720885Y-139441276D01*
X192659514Y-139488895D01*
X193580085Y-139536514D02*
X193580085Y-140203180D01*
X193426657Y-139155561D02*
X193273228Y-139869847D01*
X193672142Y-139869847D01*
X190296895Y-86523580D02*
X190296895Y-87333104D01*
X190344514Y-87428342D01*
X190392133Y-87475961D01*
X190487371Y-87523580D01*
X190677847Y-87523580D01*
X190773085Y-87475961D01*
X190820704Y-87428342D01*
X190868323Y-87333104D01*
X190868323Y-86523580D01*
X191249276Y-86523580D02*
X191868323Y-86523580D01*
X191534990Y-86904533D01*
X191677847Y-86904533D01*
X191773085Y-86952152D01*
X191820704Y-86999771D01*
X191868323Y-87095009D01*
X191868323Y-87333104D01*
X191820704Y-87428342D01*
X191773085Y-87475961D01*
X191677847Y-87523580D01*
X191392133Y-87523580D01*
X191296895Y-87475961D01*
X191249276Y-87428342D01*
X186791695Y-125334780D02*
X186791695Y-126144304D01*
X186839314Y-126239542D01*
X186886933Y-126287161D01*
X186982171Y-126334780D01*
X187172647Y-126334780D01*
X187267885Y-126287161D01*
X187315504Y-126239542D01*
X187363123Y-126144304D01*
X187363123Y-125334780D01*
X188267885Y-125668114D02*
X188267885Y-126334780D01*
X188029790Y-125287161D02*
X187791695Y-126001447D01*
X188410742Y-126001447D01*
X137109295Y-74534780D02*
X137109295Y-75344304D01*
X137156914Y-75439542D01*
X137204533Y-75487161D01*
X137299771Y-75534780D01*
X137490247Y-75534780D01*
X137585485Y-75487161D01*
X137633104Y-75439542D01*
X137680723Y-75344304D01*
X137680723Y-74534780D01*
X138633104Y-74534780D02*
X138156914Y-74534780D01*
X138109295Y-75010971D01*
X138156914Y-74963352D01*
X138252152Y-74915733D01*
X138490247Y-74915733D01*
X138585485Y-74963352D01*
X138633104Y-75010971D01*
X138680723Y-75106209D01*
X138680723Y-75344304D01*
X138633104Y-75439542D01*
X138585485Y-75487161D01*
X138490247Y-75534780D01*
X138252152Y-75534780D01*
X138156914Y-75487161D01*
X138109295Y-75439542D01*
X149485504Y-114920780D02*
X149485504Y-115730304D01*
X149533123Y-115825542D01*
X149580742Y-115873161D01*
X149675980Y-115920780D01*
X149866457Y-115920780D01*
X149961695Y-115873161D01*
X150009314Y-115825542D01*
X150056933Y-115730304D01*
X150056933Y-114920780D01*
X151056933Y-115920780D02*
X150485504Y-115920780D01*
X150771219Y-115920780D02*
X150771219Y-114920780D01*
X150675980Y-115063638D01*
X150580742Y-115158876D01*
X150485504Y-115206495D01*
X152009314Y-115920780D02*
X151437885Y-115920780D01*
X151723600Y-115920780D02*
X151723600Y-114920780D01*
X151628361Y-115063638D01*
X151533123Y-115158876D01*
X151437885Y-115206495D01*
X123679104Y-114869980D02*
X123679104Y-115679504D01*
X123726723Y-115774742D01*
X123774342Y-115822361D01*
X123869580Y-115869980D01*
X124060057Y-115869980D01*
X124155295Y-115822361D01*
X124202914Y-115774742D01*
X124250533Y-115679504D01*
X124250533Y-114869980D01*
X125250533Y-115869980D02*
X124679104Y-115869980D01*
X124964819Y-115869980D02*
X124964819Y-114869980D01*
X124869580Y-115012838D01*
X124774342Y-115108076D01*
X124679104Y-115155695D01*
X125583866Y-114869980D02*
X126202914Y-114869980D01*
X125869580Y-115250933D01*
X126012438Y-115250933D01*
X126107676Y-115298552D01*
X126155295Y-115346171D01*
X126202914Y-115441409D01*
X126202914Y-115679504D01*
X126155295Y-115774742D01*
X126107676Y-115822361D01*
X126012438Y-115869980D01*
X125726723Y-115869980D01*
X125631485Y-115822361D01*
X125583866Y-115774742D01*
X174529904Y-125283980D02*
X174529904Y-126093504D01*
X174577523Y-126188742D01*
X174625142Y-126236361D01*
X174720380Y-126283980D01*
X174910857Y-126283980D01*
X175006095Y-126236361D01*
X175053714Y-126188742D01*
X175101333Y-126093504D01*
X175101333Y-125283980D01*
X176101333Y-126283980D02*
X175529904Y-126283980D01*
X175815619Y-126283980D02*
X175815619Y-125283980D01*
X175720380Y-125426838D01*
X175625142Y-125522076D01*
X175529904Y-125569695D01*
X176958476Y-125283980D02*
X176768000Y-125283980D01*
X176672761Y-125331600D01*
X176625142Y-125379219D01*
X176529904Y-125522076D01*
X176482285Y-125712552D01*
X176482285Y-126093504D01*
X176529904Y-126188742D01*
X176577523Y-126236361D01*
X176672761Y-126283980D01*
X176863238Y-126283980D01*
X176958476Y-126236361D01*
X177006095Y-126188742D01*
X177053714Y-126093504D01*
X177053714Y-125855409D01*
X177006095Y-125760171D01*
X176958476Y-125712552D01*
X176863238Y-125664933D01*
X176672761Y-125664933D01*
X176577523Y-125712552D01*
X176529904Y-125760171D01*
X176482285Y-125855409D01*
X128003371Y-104314628D02*
X128003371Y-104886057D01*
X127603371Y-103686057D02*
X128003371Y-104314628D01*
X128403371Y-103686057D01*
X128746228Y-103800342D02*
X128803371Y-103743200D01*
X128917657Y-103686057D01*
X129203371Y-103686057D01*
X129317657Y-103743200D01*
X129374800Y-103800342D01*
X129431942Y-103914628D01*
X129431942Y-104028914D01*
X129374800Y-104200342D01*
X128689085Y-104886057D01*
X129431942Y-104886057D01*
X160921771Y-108124628D02*
X160921771Y-108696057D01*
X160521771Y-107496057D02*
X160921771Y-108124628D01*
X161321771Y-107496057D01*
X161607485Y-107496057D02*
X162350342Y-107496057D01*
X161950342Y-107953200D01*
X162121771Y-107953200D01*
X162236057Y-108010342D01*
X162293200Y-108067485D01*
X162350342Y-108181771D01*
X162350342Y-108467485D01*
X162293200Y-108581771D01*
X162236057Y-108638914D01*
X162121771Y-108696057D01*
X161778914Y-108696057D01*
X161664628Y-108638914D01*
X161607485Y-108581771D01*
X183832571Y-112239428D02*
X183832571Y-112810857D01*
X183432571Y-111610857D02*
X183832571Y-112239428D01*
X184232571Y-111610857D01*
X185146857Y-112010857D02*
X185146857Y-112810857D01*
X184861142Y-111553714D02*
X184575428Y-112410857D01*
X185318285Y-112410857D01*
X187171104Y-90927180D02*
X187171104Y-89927180D01*
X187552057Y-89927180D01*
X187647295Y-89974800D01*
X187694914Y-90022419D01*
X187742533Y-90117657D01*
X187742533Y-90260514D01*
X187694914Y-90355752D01*
X187647295Y-90403371D01*
X187552057Y-90450990D01*
X187171104Y-90450990D01*
X188694914Y-90927180D02*
X188123485Y-90927180D01*
X188409200Y-90927180D02*
X188409200Y-89927180D01*
X188313961Y-90070038D01*
X188218723Y-90165276D01*
X188123485Y-90212895D01*
X158005542Y-96013542D02*
X157957923Y-96061161D01*
X157815066Y-96108780D01*
X157719828Y-96108780D01*
X157576971Y-96061161D01*
X157481733Y-95965923D01*
X157434114Y-95870685D01*
X157386495Y-95680209D01*
X157386495Y-95537352D01*
X157434114Y-95346876D01*
X157481733Y-95251638D01*
X157576971Y-95156400D01*
X157719828Y-95108780D01*
X157815066Y-95108780D01*
X157957923Y-95156400D01*
X158005542Y-95204019D01*
X158386495Y-95204019D02*
X158434114Y-95156400D01*
X158529352Y-95108780D01*
X158767447Y-95108780D01*
X158862685Y-95156400D01*
X158910304Y-95204019D01*
X158957923Y-95299257D01*
X158957923Y-95394495D01*
X158910304Y-95537352D01*
X158338876Y-96108780D01*
X158957923Y-96108780D01*
X159291257Y-95108780D02*
X159957923Y-95108780D01*
X159529352Y-96108780D01*
X157903942Y-90273142D02*
X157856323Y-90320761D01*
X157713466Y-90368380D01*
X157618228Y-90368380D01*
X157475371Y-90320761D01*
X157380133Y-90225523D01*
X157332514Y-90130285D01*
X157284895Y-89939809D01*
X157284895Y-89796952D01*
X157332514Y-89606476D01*
X157380133Y-89511238D01*
X157475371Y-89416000D01*
X157618228Y-89368380D01*
X157713466Y-89368380D01*
X157856323Y-89416000D01*
X157903942Y-89463619D01*
X158284895Y-89463619D02*
X158332514Y-89416000D01*
X158427752Y-89368380D01*
X158665847Y-89368380D01*
X158761085Y-89416000D01*
X158808704Y-89463619D01*
X158856323Y-89558857D01*
X158856323Y-89654095D01*
X158808704Y-89796952D01*
X158237276Y-90368380D01*
X158856323Y-90368380D01*
X159427752Y-89796952D02*
X159332514Y-89749333D01*
X159284895Y-89701714D01*
X159237276Y-89606476D01*
X159237276Y-89558857D01*
X159284895Y-89463619D01*
X159332514Y-89416000D01*
X159427752Y-89368380D01*
X159618228Y-89368380D01*
X159713466Y-89416000D01*
X159761085Y-89463619D01*
X159808704Y-89558857D01*
X159808704Y-89606476D01*
X159761085Y-89701714D01*
X159713466Y-89749333D01*
X159618228Y-89796952D01*
X159427752Y-89796952D01*
X159332514Y-89844571D01*
X159284895Y-89892190D01*
X159237276Y-89987428D01*
X159237276Y-90177904D01*
X159284895Y-90273142D01*
X159332514Y-90320761D01*
X159427752Y-90368380D01*
X159618228Y-90368380D01*
X159713466Y-90320761D01*
X159761085Y-90273142D01*
X159808704Y-90177904D01*
X159808704Y-89987428D01*
X159761085Y-89892190D01*
X159713466Y-89844571D01*
X159618228Y-89796952D01*
X189806342Y-113234742D02*
X189758723Y-113282361D01*
X189615866Y-113329980D01*
X189520628Y-113329980D01*
X189377771Y-113282361D01*
X189282533Y-113187123D01*
X189234914Y-113091885D01*
X189187295Y-112901409D01*
X189187295Y-112758552D01*
X189234914Y-112568076D01*
X189282533Y-112472838D01*
X189377771Y-112377600D01*
X189520628Y-112329980D01*
X189615866Y-112329980D01*
X189758723Y-112377600D01*
X189806342Y-112425219D01*
X190187295Y-112425219D02*
X190234914Y-112377600D01*
X190330152Y-112329980D01*
X190568247Y-112329980D01*
X190663485Y-112377600D01*
X190711104Y-112425219D01*
X190758723Y-112520457D01*
X190758723Y-112615695D01*
X190711104Y-112758552D01*
X190139676Y-113329980D01*
X190758723Y-113329980D01*
X191234914Y-113329980D02*
X191425390Y-113329980D01*
X191520628Y-113282361D01*
X191568247Y-113234742D01*
X191663485Y-113091885D01*
X191711104Y-112901409D01*
X191711104Y-112520457D01*
X191663485Y-112425219D01*
X191615866Y-112377600D01*
X191520628Y-112329980D01*
X191330152Y-112329980D01*
X191234914Y-112377600D01*
X191187295Y-112425219D01*
X191139676Y-112520457D01*
X191139676Y-112758552D01*
X191187295Y-112853790D01*
X191234914Y-112901409D01*
X191330152Y-112949028D01*
X191520628Y-112949028D01*
X191615866Y-112901409D01*
X191663485Y-112853790D01*
X191711104Y-112758552D01*
X120651542Y-124290057D02*
X120699161Y-124337676D01*
X120746780Y-124480533D01*
X120746780Y-124575771D01*
X120699161Y-124718628D01*
X120603923Y-124813866D01*
X120508685Y-124861485D01*
X120318209Y-124909104D01*
X120175352Y-124909104D01*
X119984876Y-124861485D01*
X119889638Y-124813866D01*
X119794400Y-124718628D01*
X119746780Y-124575771D01*
X119746780Y-124480533D01*
X119794400Y-124337676D01*
X119842019Y-124290057D01*
X119746780Y-123956723D02*
X119746780Y-123337676D01*
X120127733Y-123671009D01*
X120127733Y-123528152D01*
X120175352Y-123432914D01*
X120222971Y-123385295D01*
X120318209Y-123337676D01*
X120556304Y-123337676D01*
X120651542Y-123385295D01*
X120699161Y-123432914D01*
X120746780Y-123528152D01*
X120746780Y-123813866D01*
X120699161Y-123909104D01*
X120651542Y-123956723D01*
X119746780Y-122718628D02*
X119746780Y-122623390D01*
X119794400Y-122528152D01*
X119842019Y-122480533D01*
X119937257Y-122432914D01*
X120127733Y-122385295D01*
X120365828Y-122385295D01*
X120556304Y-122432914D01*
X120651542Y-122480533D01*
X120699161Y-122528152D01*
X120746780Y-122623390D01*
X120746780Y-122718628D01*
X120699161Y-122813866D01*
X120651542Y-122861485D01*
X120556304Y-122909104D01*
X120365828Y-122956723D01*
X120127733Y-122956723D01*
X119937257Y-122909104D01*
X119842019Y-122861485D01*
X119794400Y-122813866D01*
X119746780Y-122718628D01*
X168317942Y-64771542D02*
X168270323Y-64819161D01*
X168127466Y-64866780D01*
X168032228Y-64866780D01*
X167889371Y-64819161D01*
X167794133Y-64723923D01*
X167746514Y-64628685D01*
X167698895Y-64438209D01*
X167698895Y-64295352D01*
X167746514Y-64104876D01*
X167794133Y-64009638D01*
X167889371Y-63914400D01*
X168032228Y-63866780D01*
X168127466Y-63866780D01*
X168270323Y-63914400D01*
X168317942Y-63962019D01*
X168651276Y-63866780D02*
X169270323Y-63866780D01*
X168936990Y-64247733D01*
X169079847Y-64247733D01*
X169175085Y-64295352D01*
X169222704Y-64342971D01*
X169270323Y-64438209D01*
X169270323Y-64676304D01*
X169222704Y-64771542D01*
X169175085Y-64819161D01*
X169079847Y-64866780D01*
X168794133Y-64866780D01*
X168698895Y-64819161D01*
X168651276Y-64771542D01*
X170222704Y-64866780D02*
X169651276Y-64866780D01*
X169936990Y-64866780D02*
X169936990Y-63866780D01*
X169841752Y-64009638D01*
X169746514Y-64104876D01*
X169651276Y-64152495D01*
X173296342Y-64923942D02*
X173248723Y-64971561D01*
X173105866Y-65019180D01*
X173010628Y-65019180D01*
X172867771Y-64971561D01*
X172772533Y-64876323D01*
X172724914Y-64781085D01*
X172677295Y-64590609D01*
X172677295Y-64447752D01*
X172724914Y-64257276D01*
X172772533Y-64162038D01*
X172867771Y-64066800D01*
X173010628Y-64019180D01*
X173105866Y-64019180D01*
X173248723Y-64066800D01*
X173296342Y-64114419D01*
X173629676Y-64019180D02*
X174248723Y-64019180D01*
X173915390Y-64400133D01*
X174058247Y-64400133D01*
X174153485Y-64447752D01*
X174201104Y-64495371D01*
X174248723Y-64590609D01*
X174248723Y-64828704D01*
X174201104Y-64923942D01*
X174153485Y-64971561D01*
X174058247Y-65019180D01*
X173772533Y-65019180D01*
X173677295Y-64971561D01*
X173629676Y-64923942D01*
X174629676Y-64114419D02*
X174677295Y-64066800D01*
X174772533Y-64019180D01*
X175010628Y-64019180D01*
X175105866Y-64066800D01*
X175153485Y-64114419D01*
X175201104Y-64209657D01*
X175201104Y-64304895D01*
X175153485Y-64447752D01*
X174582057Y-65019180D01*
X175201104Y-65019180D01*
X135383542Y-123528057D02*
X135431161Y-123575676D01*
X135478780Y-123718533D01*
X135478780Y-123813771D01*
X135431161Y-123956628D01*
X135335923Y-124051866D01*
X135240685Y-124099485D01*
X135050209Y-124147104D01*
X134907352Y-124147104D01*
X134716876Y-124099485D01*
X134621638Y-124051866D01*
X134526400Y-123956628D01*
X134478780Y-123813771D01*
X134478780Y-123718533D01*
X134526400Y-123575676D01*
X134574019Y-123528057D01*
X134478780Y-123194723D02*
X134478780Y-122575676D01*
X134859733Y-122909009D01*
X134859733Y-122766152D01*
X134907352Y-122670914D01*
X134954971Y-122623295D01*
X135050209Y-122575676D01*
X135288304Y-122575676D01*
X135383542Y-122623295D01*
X135431161Y-122670914D01*
X135478780Y-122766152D01*
X135478780Y-123051866D01*
X135431161Y-123147104D01*
X135383542Y-123194723D01*
X134478780Y-122242342D02*
X134478780Y-121623295D01*
X134859733Y-121956628D01*
X134859733Y-121813771D01*
X134907352Y-121718533D01*
X134954971Y-121670914D01*
X135050209Y-121623295D01*
X135288304Y-121623295D01*
X135383542Y-121670914D01*
X135431161Y-121718533D01*
X135478780Y-121813771D01*
X135478780Y-122099485D01*
X135431161Y-122194723D01*
X135383542Y-122242342D01*
X201083942Y-124963180D02*
X200750609Y-124486990D01*
X200512514Y-124963180D02*
X200512514Y-123963180D01*
X200893466Y-123963180D01*
X200988704Y-124010800D01*
X201036323Y-124058419D01*
X201083942Y-124153657D01*
X201083942Y-124296514D01*
X201036323Y-124391752D01*
X200988704Y-124439371D01*
X200893466Y-124486990D01*
X200512514Y-124486990D01*
X202036323Y-124963180D02*
X201464895Y-124963180D01*
X201750609Y-124963180D02*
X201750609Y-123963180D01*
X201655371Y-124106038D01*
X201560133Y-124201276D01*
X201464895Y-124248895D01*
X202607752Y-124391752D02*
X202512514Y-124344133D01*
X202464895Y-124296514D01*
X202417276Y-124201276D01*
X202417276Y-124153657D01*
X202464895Y-124058419D01*
X202512514Y-124010800D01*
X202607752Y-123963180D01*
X202798228Y-123963180D01*
X202893466Y-124010800D01*
X202941085Y-124058419D01*
X202988704Y-124153657D01*
X202988704Y-124201276D01*
X202941085Y-124296514D01*
X202893466Y-124344133D01*
X202798228Y-124391752D01*
X202607752Y-124391752D01*
X202512514Y-124439371D01*
X202464895Y-124486990D01*
X202417276Y-124582228D01*
X202417276Y-124772704D01*
X202464895Y-124867942D01*
X202512514Y-124915561D01*
X202607752Y-124963180D01*
X202798228Y-124963180D01*
X202893466Y-124915561D01*
X202941085Y-124867942D01*
X202988704Y-124772704D01*
X202988704Y-124582228D01*
X202941085Y-124486990D01*
X202893466Y-124439371D01*
X202798228Y-124391752D01*
X201134742Y-122473980D02*
X200801409Y-121997790D01*
X200563314Y-122473980D02*
X200563314Y-121473980D01*
X200944266Y-121473980D01*
X201039504Y-121521600D01*
X201087123Y-121569219D01*
X201134742Y-121664457D01*
X201134742Y-121807314D01*
X201087123Y-121902552D01*
X201039504Y-121950171D01*
X200944266Y-121997790D01*
X200563314Y-121997790D01*
X201515695Y-121569219D02*
X201563314Y-121521600D01*
X201658552Y-121473980D01*
X201896647Y-121473980D01*
X201991885Y-121521600D01*
X202039504Y-121569219D01*
X202087123Y-121664457D01*
X202087123Y-121759695D01*
X202039504Y-121902552D01*
X201468076Y-122473980D01*
X202087123Y-122473980D01*
X202991885Y-121473980D02*
X202515695Y-121473980D01*
X202468076Y-121950171D01*
X202515695Y-121902552D01*
X202610933Y-121854933D01*
X202849028Y-121854933D01*
X202944266Y-121902552D01*
X202991885Y-121950171D01*
X203039504Y-122045409D01*
X203039504Y-122283504D01*
X202991885Y-122378742D01*
X202944266Y-122426361D01*
X202849028Y-122473980D01*
X202610933Y-122473980D01*
X202515695Y-122426361D01*
X202468076Y-122378742D01*
X201134742Y-119883180D02*
X200801409Y-119406990D01*
X200563314Y-119883180D02*
X200563314Y-118883180D01*
X200944266Y-118883180D01*
X201039504Y-118930800D01*
X201087123Y-118978419D01*
X201134742Y-119073657D01*
X201134742Y-119216514D01*
X201087123Y-119311752D01*
X201039504Y-119359371D01*
X200944266Y-119406990D01*
X200563314Y-119406990D01*
X201515695Y-118978419D02*
X201563314Y-118930800D01*
X201658552Y-118883180D01*
X201896647Y-118883180D01*
X201991885Y-118930800D01*
X202039504Y-118978419D01*
X202087123Y-119073657D01*
X202087123Y-119168895D01*
X202039504Y-119311752D01*
X201468076Y-119883180D01*
X202087123Y-119883180D01*
X202944266Y-118883180D02*
X202753790Y-118883180D01*
X202658552Y-118930800D01*
X202610933Y-118978419D01*
X202515695Y-119121276D01*
X202468076Y-119311752D01*
X202468076Y-119692704D01*
X202515695Y-119787942D01*
X202563314Y-119835561D01*
X202658552Y-119883180D01*
X202849028Y-119883180D01*
X202944266Y-119835561D01*
X202991885Y-119787942D01*
X203039504Y-119692704D01*
X203039504Y-119454609D01*
X202991885Y-119359371D01*
X202944266Y-119311752D01*
X202849028Y-119264133D01*
X202658552Y-119264133D01*
X202563314Y-119311752D01*
X202515695Y-119359371D01*
X202468076Y-119454609D01*
X201185542Y-117393980D02*
X200852209Y-116917790D01*
X200614114Y-117393980D02*
X200614114Y-116393980D01*
X200995066Y-116393980D01*
X201090304Y-116441600D01*
X201137923Y-116489219D01*
X201185542Y-116584457D01*
X201185542Y-116727314D01*
X201137923Y-116822552D01*
X201090304Y-116870171D01*
X200995066Y-116917790D01*
X200614114Y-116917790D01*
X201566495Y-116489219D02*
X201614114Y-116441600D01*
X201709352Y-116393980D01*
X201947447Y-116393980D01*
X202042685Y-116441600D01*
X202090304Y-116489219D01*
X202137923Y-116584457D01*
X202137923Y-116679695D01*
X202090304Y-116822552D01*
X201518876Y-117393980D01*
X202137923Y-117393980D01*
X202471257Y-116393980D02*
X203137923Y-116393980D01*
X202709352Y-117393980D01*
X135043942Y-80513180D02*
X134710609Y-80036990D01*
X134472514Y-80513180D02*
X134472514Y-79513180D01*
X134853466Y-79513180D01*
X134948704Y-79560800D01*
X134996323Y-79608419D01*
X135043942Y-79703657D01*
X135043942Y-79846514D01*
X134996323Y-79941752D01*
X134948704Y-79989371D01*
X134853466Y-80036990D01*
X134472514Y-80036990D01*
X135424895Y-79608419D02*
X135472514Y-79560800D01*
X135567752Y-79513180D01*
X135805847Y-79513180D01*
X135901085Y-79560800D01*
X135948704Y-79608419D01*
X135996323Y-79703657D01*
X135996323Y-79798895D01*
X135948704Y-79941752D01*
X135377276Y-80513180D01*
X135996323Y-80513180D01*
X136567752Y-79941752D02*
X136472514Y-79894133D01*
X136424895Y-79846514D01*
X136377276Y-79751276D01*
X136377276Y-79703657D01*
X136424895Y-79608419D01*
X136472514Y-79560800D01*
X136567752Y-79513180D01*
X136758228Y-79513180D01*
X136853466Y-79560800D01*
X136901085Y-79608419D01*
X136948704Y-79703657D01*
X136948704Y-79751276D01*
X136901085Y-79846514D01*
X136853466Y-79894133D01*
X136758228Y-79941752D01*
X136567752Y-79941752D01*
X136472514Y-79989371D01*
X136424895Y-80036990D01*
X136377276Y-80132228D01*
X136377276Y-80322704D01*
X136424895Y-80417942D01*
X136472514Y-80465561D01*
X136567752Y-80513180D01*
X136758228Y-80513180D01*
X136853466Y-80465561D01*
X136901085Y-80417942D01*
X136948704Y-80322704D01*
X136948704Y-80132228D01*
X136901085Y-80036990D01*
X136853466Y-79989371D01*
X136758228Y-79941752D01*
X135094742Y-76804780D02*
X134761409Y-76328590D01*
X134523314Y-76804780D02*
X134523314Y-75804780D01*
X134904266Y-75804780D01*
X134999504Y-75852400D01*
X135047123Y-75900019D01*
X135094742Y-75995257D01*
X135094742Y-76138114D01*
X135047123Y-76233352D01*
X134999504Y-76280971D01*
X134904266Y-76328590D01*
X134523314Y-76328590D01*
X135475695Y-75900019D02*
X135523314Y-75852400D01*
X135618552Y-75804780D01*
X135856647Y-75804780D01*
X135951885Y-75852400D01*
X135999504Y-75900019D01*
X136047123Y-75995257D01*
X136047123Y-76090495D01*
X135999504Y-76233352D01*
X135428076Y-76804780D01*
X136047123Y-76804780D01*
X136523314Y-76804780D02*
X136713790Y-76804780D01*
X136809028Y-76757161D01*
X136856647Y-76709542D01*
X136951885Y-76566685D01*
X136999504Y-76376209D01*
X136999504Y-75995257D01*
X136951885Y-75900019D01*
X136904266Y-75852400D01*
X136809028Y-75804780D01*
X136618552Y-75804780D01*
X136523314Y-75852400D01*
X136475695Y-75900019D01*
X136428076Y-75995257D01*
X136428076Y-76233352D01*
X136475695Y-76328590D01*
X136523314Y-76376209D01*
X136618552Y-76423828D01*
X136809028Y-76423828D01*
X136904266Y-76376209D01*
X136951885Y-76328590D01*
X136999504Y-76233352D01*
X138498342Y-62282342D02*
X138450723Y-62329961D01*
X138307866Y-62377580D01*
X138212628Y-62377580D01*
X138069771Y-62329961D01*
X137974533Y-62234723D01*
X137926914Y-62139485D01*
X137879295Y-61949009D01*
X137879295Y-61806152D01*
X137926914Y-61615676D01*
X137974533Y-61520438D01*
X138069771Y-61425200D01*
X138212628Y-61377580D01*
X138307866Y-61377580D01*
X138450723Y-61425200D01*
X138498342Y-61472819D01*
X138831676Y-61377580D02*
X139450723Y-61377580D01*
X139117390Y-61758533D01*
X139260247Y-61758533D01*
X139355485Y-61806152D01*
X139403104Y-61853771D01*
X139450723Y-61949009D01*
X139450723Y-62187104D01*
X139403104Y-62282342D01*
X139355485Y-62329961D01*
X139260247Y-62377580D01*
X138974533Y-62377580D01*
X138879295Y-62329961D01*
X138831676Y-62282342D01*
X140307866Y-61710914D02*
X140307866Y-62377580D01*
X140069771Y-61329961D02*
X139831676Y-62044247D01*
X140450723Y-62044247D01*
X132402342Y-62333142D02*
X132354723Y-62380761D01*
X132211866Y-62428380D01*
X132116628Y-62428380D01*
X131973771Y-62380761D01*
X131878533Y-62285523D01*
X131830914Y-62190285D01*
X131783295Y-61999809D01*
X131783295Y-61856952D01*
X131830914Y-61666476D01*
X131878533Y-61571238D01*
X131973771Y-61476000D01*
X132116628Y-61428380D01*
X132211866Y-61428380D01*
X132354723Y-61476000D01*
X132402342Y-61523619D01*
X132735676Y-61428380D02*
X133354723Y-61428380D01*
X133021390Y-61809333D01*
X133164247Y-61809333D01*
X133259485Y-61856952D01*
X133307104Y-61904571D01*
X133354723Y-61999809D01*
X133354723Y-62237904D01*
X133307104Y-62333142D01*
X133259485Y-62380761D01*
X133164247Y-62428380D01*
X132878533Y-62428380D01*
X132783295Y-62380761D01*
X132735676Y-62333142D01*
X134259485Y-61428380D02*
X133783295Y-61428380D01*
X133735676Y-61904571D01*
X133783295Y-61856952D01*
X133878533Y-61809333D01*
X134116628Y-61809333D01*
X134211866Y-61856952D01*
X134259485Y-61904571D01*
X134307104Y-61999809D01*
X134307104Y-62237904D01*
X134259485Y-62333142D01*
X134211866Y-62380761D01*
X134116628Y-62428380D01*
X133878533Y-62428380D01*
X133783295Y-62380761D01*
X133735676Y-62333142D01*
X125471180Y-60045504D02*
X124471180Y-60045504D01*
X124947371Y-60045504D02*
X124947371Y-59474076D01*
X125471180Y-59474076D02*
X124471180Y-59474076D01*
X125471180Y-58474076D02*
X125471180Y-59045504D01*
X125471180Y-58759790D02*
X124471180Y-58759790D01*
X124614038Y-58855028D01*
X124709276Y-58950266D01*
X124756895Y-59045504D01*
X125471180Y-54965504D02*
X124471180Y-54965504D01*
X124947371Y-54965504D02*
X124947371Y-54394076D01*
X125471180Y-54394076D02*
X124471180Y-54394076D01*
X124566419Y-53965504D02*
X124518800Y-53917885D01*
X124471180Y-53822647D01*
X124471180Y-53584552D01*
X124518800Y-53489314D01*
X124566419Y-53441695D01*
X124661657Y-53394076D01*
X124756895Y-53394076D01*
X124899752Y-53441695D01*
X125471180Y-54013123D01*
X125471180Y-53394076D01*
X152908095Y-129122380D02*
X152908095Y-129931904D01*
X152955714Y-130027142D01*
X153003333Y-130074761D01*
X153098571Y-130122380D01*
X153289047Y-130122380D01*
X153384285Y-130074761D01*
X153431904Y-130027142D01*
X153479523Y-129931904D01*
X153479523Y-129122380D01*
X154384285Y-129122380D02*
X154193809Y-129122380D01*
X154098571Y-129170000D01*
X154050952Y-129217619D01*
X153955714Y-129360476D01*
X153908095Y-129550952D01*
X153908095Y-129931904D01*
X153955714Y-130027142D01*
X154003333Y-130074761D01*
X154098571Y-130122380D01*
X154289047Y-130122380D01*
X154384285Y-130074761D01*
X154431904Y-130027142D01*
X154479523Y-129931904D01*
X154479523Y-129693809D01*
X154431904Y-129598571D01*
X154384285Y-129550952D01*
X154289047Y-129503333D01*
X154098571Y-129503333D01*
X154003333Y-129550952D01*
X153955714Y-129598571D01*
X153908095Y-129693809D01*
X164338095Y-129122380D02*
X164338095Y-129931904D01*
X164385714Y-130027142D01*
X164433333Y-130074761D01*
X164528571Y-130122380D01*
X164719047Y-130122380D01*
X164814285Y-130074761D01*
X164861904Y-130027142D01*
X164909523Y-129931904D01*
X164909523Y-129122380D01*
X165290476Y-129122380D02*
X165957142Y-129122380D01*
X165528571Y-130122380D01*
X175768095Y-129122380D02*
X175768095Y-129931904D01*
X175815714Y-130027142D01*
X175863333Y-130074761D01*
X175958571Y-130122380D01*
X176149047Y-130122380D01*
X176244285Y-130074761D01*
X176291904Y-130027142D01*
X176339523Y-129931904D01*
X176339523Y-129122380D01*
X176958571Y-129550952D02*
X176863333Y-129503333D01*
X176815714Y-129455714D01*
X176768095Y-129360476D01*
X176768095Y-129312857D01*
X176815714Y-129217619D01*
X176863333Y-129170000D01*
X176958571Y-129122380D01*
X177149047Y-129122380D01*
X177244285Y-129170000D01*
X177291904Y-129217619D01*
X177339523Y-129312857D01*
X177339523Y-129360476D01*
X177291904Y-129455714D01*
X177244285Y-129503333D01*
X177149047Y-129550952D01*
X176958571Y-129550952D01*
X176863333Y-129598571D01*
X176815714Y-129646190D01*
X176768095Y-129741428D01*
X176768095Y-129931904D01*
X176815714Y-130027142D01*
X176863333Y-130074761D01*
X176958571Y-130122380D01*
X177149047Y-130122380D01*
X177244285Y-130074761D01*
X177291904Y-130027142D01*
X177339523Y-129931904D01*
X177339523Y-129741428D01*
X177291904Y-129646190D01*
X177244285Y-129598571D01*
X177149047Y-129550952D01*
%LPC*%
D13*
X162400000Y-116840000D03*
X162400000Y-118110000D03*
X162400000Y-119380000D03*
X162400000Y-120650000D03*
X162400000Y-121920000D03*
X162400000Y-123190000D03*
X162400000Y-124460000D03*
X167800000Y-124460000D03*
X167800000Y-123190000D03*
X167800000Y-121920000D03*
X167800000Y-120650000D03*
X167800000Y-119380000D03*
X167800000Y-118110000D03*
X167800000Y-116840000D03*
D14*
X167700000Y-100950000D03*
X168200000Y-100950000D03*
X168700000Y-100950000D03*
X169200000Y-100950000D03*
X169700000Y-100950000D03*
X170200000Y-100950000D03*
X170700000Y-100950000D03*
X171200000Y-100950000D03*
X171700000Y-100950000D03*
X172200000Y-100950000D03*
X172700000Y-100950000D03*
X173200000Y-100950000D03*
X173700000Y-100950000D03*
X174200000Y-100950000D03*
X174700000Y-100950000D03*
X175200000Y-100950000D03*
D15*
X177150000Y-99000000D03*
X177150000Y-98500000D03*
X177150000Y-98000000D03*
X177150000Y-97500000D03*
X177150000Y-97000000D03*
X177150000Y-96500000D03*
X177150000Y-96000000D03*
X177150000Y-95500000D03*
X177150000Y-95000000D03*
X177150000Y-94500000D03*
X177150000Y-94000000D03*
X177150000Y-93500000D03*
X177150000Y-93000000D03*
X177150000Y-92500000D03*
X177150000Y-92000000D03*
X177150000Y-91500000D03*
D14*
X175200000Y-89550000D03*
X174700000Y-89550000D03*
X174200000Y-89550000D03*
X173700000Y-89550000D03*
X173200000Y-89550000D03*
X172700000Y-89550000D03*
X172200000Y-89550000D03*
X171700000Y-89550000D03*
X171200000Y-89550000D03*
X170700000Y-89550000D03*
X170200000Y-89550000D03*
X169700000Y-89550000D03*
X169200000Y-89550000D03*
X168700000Y-89550000D03*
X168200000Y-89550000D03*
X167700000Y-89550000D03*
D15*
X165750000Y-91500000D03*
X165750000Y-92000000D03*
X165750000Y-92500000D03*
X165750000Y-93000000D03*
X165750000Y-93500000D03*
X165750000Y-94000000D03*
X165750000Y-94500000D03*
X165750000Y-95000000D03*
X165750000Y-95500000D03*
X165750000Y-96000000D03*
X165750000Y-96500000D03*
X165750000Y-97000000D03*
X165750000Y-97500000D03*
X165750000Y-98000000D03*
X165750000Y-98500000D03*
X165750000Y-99000000D03*
D13*
X136840000Y-116840000D03*
X136840000Y-118110000D03*
X136840000Y-119380000D03*
X136840000Y-120650000D03*
X136840000Y-121920000D03*
X136840000Y-123190000D03*
X136840000Y-124460000D03*
X142240000Y-124460000D03*
X142240000Y-123190000D03*
X142240000Y-121920000D03*
X142240000Y-120650000D03*
X142240000Y-119380000D03*
X142240000Y-118110000D03*
X142240000Y-116840000D03*
D16*
X184310000Y-131445000D03*
X184310000Y-132715000D03*
X184310000Y-133985000D03*
X184310000Y-135255000D03*
X191610000Y-135255000D03*
X191610000Y-133985000D03*
X191610000Y-132715000D03*
X191610000Y-131445000D03*
D17*
X175100000Y-67945000D03*
X175100000Y-69215000D03*
X175100000Y-70485000D03*
X175100000Y-71755000D03*
X180500000Y-71755000D03*
X180500000Y-70485000D03*
X180500000Y-69215000D03*
X180500000Y-67945000D03*
X162400000Y-67945000D03*
X162400000Y-69215000D03*
X162400000Y-70485000D03*
X162400000Y-71755000D03*
X167800000Y-71755000D03*
X167800000Y-70485000D03*
X167800000Y-69215000D03*
X167800000Y-67945000D03*
D13*
X149700000Y-66040000D03*
X149700000Y-67310000D03*
X149700000Y-68580000D03*
X149700000Y-69850000D03*
X149700000Y-71120000D03*
X149700000Y-72390000D03*
X149700000Y-73660000D03*
X155100000Y-73660000D03*
X155100000Y-72390000D03*
X155100000Y-71120000D03*
X155100000Y-69850000D03*
X155100000Y-68580000D03*
X155100000Y-67310000D03*
X155100000Y-66040000D03*
D15*
X140350000Y-90230000D03*
X140350000Y-90730000D03*
X140350000Y-91230000D03*
X140350000Y-91730000D03*
X140350000Y-92230000D03*
X140350000Y-92730000D03*
X140350000Y-93230000D03*
X140350000Y-93730000D03*
X140350000Y-94230000D03*
X140350000Y-94730000D03*
X140350000Y-95230000D03*
X140350000Y-95730000D03*
X140350000Y-96230000D03*
X140350000Y-96730000D03*
X140350000Y-97230000D03*
X140350000Y-97730000D03*
D14*
X142300000Y-99680000D03*
X142800000Y-99680000D03*
X143300000Y-99680000D03*
X143800000Y-99680000D03*
X144300000Y-99680000D03*
X144800000Y-99680000D03*
X145300000Y-99680000D03*
X145800000Y-99680000D03*
X146300000Y-99680000D03*
X146800000Y-99680000D03*
X147300000Y-99680000D03*
X147800000Y-99680000D03*
X148300000Y-99680000D03*
X148800000Y-99680000D03*
X149300000Y-99680000D03*
X149800000Y-99680000D03*
D15*
X151750000Y-97730000D03*
X151750000Y-97230000D03*
X151750000Y-96730000D03*
X151750000Y-96230000D03*
X151750000Y-95730000D03*
X151750000Y-95230000D03*
X151750000Y-94730000D03*
X151750000Y-94230000D03*
X151750000Y-93730000D03*
X151750000Y-93230000D03*
X151750000Y-92730000D03*
X151750000Y-92230000D03*
X151750000Y-91730000D03*
X151750000Y-91230000D03*
X151750000Y-90730000D03*
X151750000Y-90230000D03*
D14*
X149800000Y-88280000D03*
X149300000Y-88280000D03*
X148800000Y-88280000D03*
X148300000Y-88280000D03*
X147800000Y-88280000D03*
X147300000Y-88280000D03*
X146800000Y-88280000D03*
X146300000Y-88280000D03*
X145800000Y-88280000D03*
X145300000Y-88280000D03*
X144800000Y-88280000D03*
X144300000Y-88280000D03*
X143800000Y-88280000D03*
X143300000Y-88280000D03*
X142800000Y-88280000D03*
X142300000Y-88280000D03*
D18*
X186610000Y-73660000D03*
X189310000Y-73660000D03*
D19*
X128270000Y-96500000D03*
X128270000Y-94000000D03*
D20*
X189865000Y-138430000D03*
D21*
X136497000Y-84372000D03*
X132997000Y-84372000D03*
X136497000Y-89872000D03*
X132997000Y-89872000D03*
D22*
X172700000Y-128270000D03*
X170200000Y-128270000D03*
D19*
X139700000Y-85110000D03*
X139700000Y-87610000D03*
D22*
X141879000Y-102870000D03*
X144379000Y-102870000D03*
X149840000Y-102870000D03*
X147340000Y-102870000D03*
X154920000Y-102870000D03*
X152420000Y-102870000D03*
D19*
X154940000Y-92690000D03*
X154940000Y-90190000D03*
X130302000Y-85705000D03*
X130302000Y-83205000D03*
X130302000Y-88285000D03*
X130302000Y-90785000D03*
D22*
X144760000Y-85090000D03*
X142260000Y-85090000D03*
D19*
X136906000Y-96500000D03*
X136906000Y-94000000D03*
X187960000Y-85050000D03*
X187960000Y-82550000D03*
X195580000Y-85050000D03*
X195580000Y-82550000D03*
D22*
X162580000Y-101600000D03*
X165080000Y-101600000D03*
D19*
X181610000Y-101580000D03*
X181610000Y-99080000D03*
X181610000Y-87015000D03*
X181610000Y-89515000D03*
X181610000Y-96480000D03*
X181610000Y-93980000D03*
D22*
X170140000Y-86360000D03*
X167640000Y-86360000D03*
X165842000Y-110617000D03*
X163342000Y-110617000D03*
X168422000Y-110617000D03*
X170922000Y-110617000D03*
D19*
X162560000Y-96560000D03*
X162560000Y-99060000D03*
D22*
X176256000Y-112649000D03*
X173756000Y-112649000D03*
X176256000Y-104140000D03*
X173756000Y-104140000D03*
X160000000Y-128270000D03*
X157500000Y-128270000D03*
X185400000Y-128270000D03*
X182900000Y-128270000D03*
X198100000Y-128270000D03*
X195600000Y-128270000D03*
D23*
X139065000Y-100568760D03*
D24*
X139065000Y-105171240D03*
D25*
X179308760Y-104140000D03*
D26*
X183911240Y-104140000D03*
D27*
X176530000Y-80090000D03*
X176530000Y-77390000D03*
D18*
X144860000Y-107950000D03*
X142160000Y-107950000D03*
D27*
X184150000Y-119460000D03*
X184150000Y-116760000D03*
X184150000Y-125810000D03*
X184150000Y-123110000D03*
X161290000Y-86520000D03*
X161290000Y-83820000D03*
X157480000Y-86520000D03*
X157480000Y-83820000D03*
X157480000Y-80090000D03*
X157480000Y-77390000D03*
X153670000Y-80010000D03*
X153670000Y-77310000D03*
X149860000Y-80010000D03*
X149860000Y-77310000D03*
D18*
X125650000Y-134620000D03*
X128350000Y-134620000D03*
X133137137Y-130758947D03*
X135837137Y-130758947D03*
X133057137Y-134568947D03*
X135757137Y-134568947D03*
X140757137Y-130758947D03*
X143457137Y-130758947D03*
X140677137Y-134568947D03*
X143377137Y-134568947D03*
X125650000Y-130810000D03*
X128350000Y-130810000D03*
D27*
X161290000Y-80090000D03*
X161290000Y-77390000D03*
D18*
X186610000Y-66040000D03*
X189310000Y-66040000D03*
D27*
X158750000Y-69770000D03*
X158750000Y-72470000D03*
D18*
X161210000Y-74930000D03*
X163910000Y-74930000D03*
D27*
X171450000Y-69770000D03*
X171450000Y-72470000D03*
D18*
X163750000Y-63500000D03*
X166450000Y-63500000D03*
X179150000Y-63500000D03*
X176450000Y-63500000D03*
D20*
X194310000Y-114300000D03*
X196850000Y-114300000D03*
X199390000Y-114300000D03*
X196850000Y-87630000D03*
X133350000Y-110490000D03*
X133350000Y-113030000D03*
X172085000Y-138430000D03*
X174625000Y-138430000D03*
X184785000Y-138430000D03*
X179705000Y-138430000D03*
X182245000Y-138430000D03*
X177165000Y-138430000D03*
X187325000Y-138430000D03*
X192532000Y-138430000D03*
D28*
X190820000Y-85090000D03*
X192720000Y-85090000D03*
X191770000Y-82087720D03*
D13*
X187800000Y-116840000D03*
X187800000Y-118110000D03*
X187800000Y-119380000D03*
X187800000Y-120650000D03*
X187800000Y-121920000D03*
X187800000Y-123190000D03*
X187800000Y-124460000D03*
X193200000Y-124460000D03*
X193200000Y-123190000D03*
X193200000Y-121920000D03*
X193200000Y-120650000D03*
X193200000Y-119380000D03*
X193200000Y-118110000D03*
X193200000Y-116840000D03*
X137000000Y-66040000D03*
X137000000Y-67310000D03*
X137000000Y-68580000D03*
X137000000Y-69850000D03*
X137000000Y-71120000D03*
X137000000Y-72390000D03*
X137000000Y-73660000D03*
X142400000Y-73660000D03*
X142400000Y-72390000D03*
X142400000Y-71120000D03*
X142400000Y-69850000D03*
X142400000Y-68580000D03*
X142400000Y-67310000D03*
X142400000Y-66040000D03*
X149700000Y-116840000D03*
X149700000Y-118110000D03*
X149700000Y-119380000D03*
X149700000Y-120650000D03*
X149700000Y-121920000D03*
X149700000Y-123190000D03*
X149700000Y-124460000D03*
X155100000Y-124460000D03*
X155100000Y-123190000D03*
X155100000Y-121920000D03*
X155100000Y-120650000D03*
X155100000Y-119380000D03*
X155100000Y-118110000D03*
X155100000Y-116840000D03*
X124300000Y-116840000D03*
X124300000Y-118110000D03*
X124300000Y-119380000D03*
X124300000Y-120650000D03*
X124300000Y-121920000D03*
X124300000Y-123190000D03*
X124300000Y-124460000D03*
X129700000Y-124460000D03*
X129700000Y-123190000D03*
X129700000Y-121920000D03*
X129700000Y-120650000D03*
X129700000Y-119380000D03*
X129700000Y-118110000D03*
X129700000Y-116840000D03*
X175100000Y-116840000D03*
X175100000Y-118110000D03*
X175100000Y-119380000D03*
X175100000Y-120650000D03*
X175100000Y-121920000D03*
X175100000Y-123190000D03*
X175100000Y-124460000D03*
X180500000Y-124460000D03*
X180500000Y-123190000D03*
X180500000Y-121920000D03*
X180500000Y-120650000D03*
X180500000Y-119380000D03*
X180500000Y-118110000D03*
X180500000Y-116840000D03*
D29*
X134465000Y-94233000D03*
X130965000Y-94233000D03*
X134465000Y-103633000D03*
X130965000Y-103633000D03*
D30*
X164172000Y-104267000D03*
X164172000Y-107767000D03*
X169672000Y-104267000D03*
X169672000Y-107767000D03*
D29*
X174497000Y-106581000D03*
X174497000Y-110081000D03*
X183897000Y-106581000D03*
X183897000Y-110081000D03*
D31*
X187960000Y-92710000D03*
D32*
X190500000Y-92710000D03*
X187960000Y-95250000D03*
X190500000Y-95250000D03*
X187960000Y-97790000D03*
X190500000Y-97790000D03*
X187960000Y-100330000D03*
X190500000Y-100330000D03*
X187960000Y-102870000D03*
X190500000Y-102870000D03*
X187960000Y-105410000D03*
X190500000Y-105410000D03*
X187960000Y-107950000D03*
X190500000Y-107950000D03*
X187960000Y-110490000D03*
X190500000Y-110490000D03*
D22*
X160020000Y-91440000D03*
X157520000Y-91440000D03*
X157520000Y-93980000D03*
X160020000Y-93980000D03*
X191770000Y-114300000D03*
X189270000Y-114300000D03*
D19*
X121920000Y-121960000D03*
X121920000Y-124460000D03*
D22*
X167660000Y-66040000D03*
X170160000Y-66040000D03*
X175220000Y-66040000D03*
X172720000Y-66040000D03*
D19*
X133350000Y-120650000D03*
X133350000Y-123150000D03*
D18*
X196690000Y-124460000D03*
X199390000Y-124460000D03*
X196770000Y-121920000D03*
X199470000Y-121920000D03*
X196770000Y-119380000D03*
X199470000Y-119380000D03*
X196770000Y-116840000D03*
X199470000Y-116840000D03*
X130650000Y-80010000D03*
X133350000Y-80010000D03*
X130650000Y-76200000D03*
X133350000Y-76200000D03*
D22*
X140930000Y-63500000D03*
X138430000Y-63500000D03*
X132120000Y-63500000D03*
X134620000Y-63500000D03*
D33*
X127000000Y-59055000D03*
D34*
X127000000Y-56515000D03*
X129540000Y-59055000D03*
X129540000Y-56515000D03*
X132080000Y-59055000D03*
X132080000Y-56515000D03*
X134620000Y-59055000D03*
X134620000Y-56515000D03*
X137160000Y-59055000D03*
X137160000Y-56515000D03*
X139700000Y-59055000D03*
X139700000Y-56515000D03*
X142240000Y-59055000D03*
X142240000Y-56515000D03*
X144780000Y-59055000D03*
X144780000Y-56515000D03*
X147320000Y-59055000D03*
X147320000Y-56515000D03*
X149860000Y-59055000D03*
X149860000Y-56515000D03*
X152400000Y-59055000D03*
X152400000Y-56515000D03*
X154940000Y-59055000D03*
X154940000Y-56515000D03*
X157480000Y-59055000D03*
X157480000Y-56515000D03*
X160020000Y-59055000D03*
X160020000Y-56515000D03*
X162560000Y-59055000D03*
X162560000Y-56515000D03*
X165100000Y-59055000D03*
X165100000Y-56515000D03*
X167640000Y-59055000D03*
X167640000Y-56515000D03*
X170180000Y-59055000D03*
X170180000Y-56515000D03*
X172720000Y-59055000D03*
X172720000Y-56515000D03*
X175260000Y-59055000D03*
X175260000Y-56515000D03*
X177800000Y-59055000D03*
X177800000Y-56515000D03*
X180340000Y-59055000D03*
X180340000Y-56515000D03*
X182880000Y-59055000D03*
X182880000Y-56515000D03*
X185420000Y-59055000D03*
X185420000Y-56515000D03*
X187960000Y-59055000D03*
X187960000Y-56515000D03*
X190500000Y-59055000D03*
X190500000Y-56515000D03*
D33*
X127000000Y-53975000D03*
D34*
X127000000Y-51435000D03*
X129540000Y-53975000D03*
X129540000Y-51435000D03*
X132080000Y-53975000D03*
X132080000Y-51435000D03*
X134620000Y-53975000D03*
X134620000Y-51435000D03*
X137160000Y-53975000D03*
X137160000Y-51435000D03*
X139700000Y-53975000D03*
X139700000Y-51435000D03*
X142240000Y-53975000D03*
X142240000Y-51435000D03*
X144780000Y-53975000D03*
X144780000Y-51435000D03*
X147320000Y-53975000D03*
X147320000Y-51435000D03*
X149860000Y-53975000D03*
X149860000Y-51435000D03*
X152400000Y-53975000D03*
X152400000Y-51435000D03*
X154940000Y-53975000D03*
X154940000Y-51435000D03*
X157480000Y-53975000D03*
X157480000Y-51435000D03*
X160020000Y-53975000D03*
X160020000Y-51435000D03*
X162560000Y-53975000D03*
X162560000Y-51435000D03*
X165100000Y-53975000D03*
X165100000Y-51435000D03*
X167640000Y-53975000D03*
X167640000Y-51435000D03*
X170180000Y-53975000D03*
X170180000Y-51435000D03*
X172720000Y-53975000D03*
X172720000Y-51435000D03*
X175260000Y-53975000D03*
X175260000Y-51435000D03*
X177800000Y-53975000D03*
X177800000Y-51435000D03*
X180340000Y-53975000D03*
X180340000Y-51435000D03*
X182880000Y-53975000D03*
X182880000Y-51435000D03*
X185420000Y-53975000D03*
X185420000Y-51435000D03*
X187960000Y-53975000D03*
X187960000Y-51435000D03*
X190500000Y-53975000D03*
X190500000Y-51435000D03*
D16*
X150020000Y-131445000D03*
X150020000Y-132715000D03*
X150020000Y-133985000D03*
X150020000Y-135255000D03*
X157320000Y-135255000D03*
X157320000Y-133985000D03*
X157320000Y-132715000D03*
X157320000Y-131445000D03*
X161450000Y-131445000D03*
X161450000Y-132715000D03*
X161450000Y-133985000D03*
X161450000Y-135255000D03*
X168750000Y-135255000D03*
X168750000Y-133985000D03*
X168750000Y-132715000D03*
X168750000Y-131445000D03*
X172880000Y-131445000D03*
X172880000Y-132715000D03*
X172880000Y-133985000D03*
X172880000Y-135255000D03*
X180180000Y-135255000D03*
X180180000Y-133985000D03*
X180180000Y-132715000D03*
X180180000Y-131445000D03*
D35*
X121920000Y-51435000D03*
X195580000Y-51435000D03*
X198120000Y-137160000D03*
X118110000Y-137160000D03*
M02*
