M48
;DRILL file {KiCad 5.0.0} date Sat Jul 28 16:51:05 2018
;FORMAT={-:-/ absolute / inch / decimal}
FMAT,2
INCH,TZ
T1C0.0040
T2C0.0080
T3C0.0394
T4C0.0400
%
G90
G05
M72
T1
X4.625Y-2.18
X4.625Y-2.21
X4.64Y-2.285
X4.645Y-2.23
X4.645Y-2.255
X4.6463Y-2.3075
X4.717Y-3.095
X4.76Y-3.22
X4.78Y-3.2
X4.7806Y-3.1725
X4.8423Y-3.0771
X4.855Y-2.71
X4.865Y-2.82
X4.8755Y-2.9981
X4.8792Y-3.0212
X4.885Y-2.835
X4.905Y-2.85
X4.92Y-2.27
X4.9375Y-2.5495
X4.94Y-4.65
X4.9475Y-4.765
X4.95Y-2.795
X4.95Y-4.8
X4.9528Y-3.1909
X4.9555Y-2.5603
X4.9665Y-3.2068
X4.9695Y-3.23
X4.9835Y-3.265
X4.985Y-4.795
X4.9875Y-4.735
X5.003Y-3.1407
X5.015Y-4.825
X5.0375Y-4.605
X5.04Y-4.45
X5.0402Y-3.0423
X5.0402Y-3.0635
X5.0585Y-3.0737
X5.06Y-4.43
X5.06Y-4.6475
X5.0656Y-2.4175
X5.0759Y-3.0856
X5.0795Y-2.6651
X5.08Y-2.795
X5.08Y-3.11
X5.0899Y-2.3865
X5.1Y-5.3
X5.105Y-2.49
X5.11Y-2.45
X5.11Y-2.55
X5.1188Y-5.3875
X5.12Y-2.77
X5.1257Y-2.7972
X5.145Y-2.785
X5.155Y-2.45
X5.16Y-2.76
X5.1825Y-2.605
X5.24Y-2.18
X5.2425Y-2.73
X5.25Y-2.695
X5.25Y-4.55
X5.25Y-4.6
X5.26Y-2.775
X5.27Y-5.01
X5.27Y-5.04
X5.2725Y-2.7575
X5.275Y-4.53
X5.275Y-4.6
X5.285Y-3.77
X5.2936Y-2.4216
X5.3Y-4.45
X5.3Y-4.6
X5.305Y-2.595
X5.335Y-5.01
X5.335Y-5.04
X5.3504Y-2.4375
X5.4155Y-3.1025
X5.435Y-3.73
X5.44Y-2.85
X5.44Y-4.8
X5.46Y-4.215
X5.47Y-2.415
X5.485Y-3.67
X5.4932Y-4.6175
X5.495Y-2.815
X5.515Y-2.8525
X5.535Y-2.67
X5.535Y-2.75
X5.5396Y-2.9191
X5.5404Y-2.835
X5.545Y-4.85
X5.5472Y-4.0927
X5.5475Y-2.8775
X5.55Y-2.585
X5.56Y-5.3875
X5.5602Y-4.11
X5.5663Y-4.4104
X5.57Y-4.325
X5.5755Y-3.6616
X5.5825Y-4.1206
X5.6Y-3.6
X5.62Y-4.45
X5.635Y-4.465
X5.64Y-3.13
X5.6444Y-5.3403
X5.65Y-2.7428
X5.66Y-2.475
X5.665Y-3.12
X5.665Y-4.005
X5.6733Y-2.5533
X5.6742Y-2.8475
X5.675Y-2.87
X5.675Y-3.1
X5.675Y-4.325
X5.6765Y-4.3509
X5.683Y-5.3841
X5.6886Y-5.1184
X5.7011Y-3.1014
X5.705Y-4.0074
X5.7057Y-5.0291
X5.7125Y-2.705
X5.7174Y-3.0881
X5.7206Y-2.8275
X5.725Y-5.045
X5.725Y-5.075
X5.725Y-5.1
X5.732Y-3.575
X5.735Y-3.54
X5.7511Y-2.706
X5.7566Y-2.7295
X5.76Y-3.54
X5.765Y-4.325
X5.765Y-4.3509
X5.765Y-4.375
X5.765Y-4.4
X5.765Y-4.425
X5.765Y-4.454
X5.765Y-4.475
X5.77Y-5.03
X5.7741Y-2.7416
X5.775Y-4.935
X5.7867Y-4.5365
X5.79Y-2.7615
X5.8Y-5.4
X5.805Y-3.115
X5.8081Y-2.8275
X5.825Y-2.875
X5.825Y-3.605
X5.825Y-4.655
X5.83Y-2.805
X5.84Y-5.155
X5.8431Y-5.1129
X5.845Y-5.075
X5.85Y-4.85
X5.85Y-4.935
X5.86Y-4.55
X5.865Y-3.265
X5.865Y-3.395
X5.875Y-4.325
X5.875Y-4.35
X5.875Y-4.375
X5.875Y-4.4
X5.875Y-4.425
X5.875Y-4.454
X5.875Y-4.475
X5.885Y-5.035
X5.895Y-3.39
X5.905Y-5.06
X5.91Y-3.37
X5.92Y-3.65
X5.932Y-2.396
X5.9372Y-4.85
X5.94Y-3.925
X5.9431Y-3.3219
X5.9472Y-3.2869
X5.95Y-3.3475
X5.95Y-5.06
X5.9513Y-4.6142
X5.955Y-5.2
X5.965Y-2.6375
X5.97Y-2.544
X5.97Y-2.565
X5.975Y-2.4
X5.975Y-3.47
X5.9802Y-3.5154
X5.9932Y-4.0053
X6.005Y-4.35
X6.0125Y-3.7295
X6.015Y-3.495
X6.02Y-3.605
X6.02Y-3.98
X6.02Y-5.135
X6.0222Y-2.725
X6.0298Y-2.69
X6.03Y-2.605
X6.03Y-2.63
X6.03Y-3.655
X6.0375Y-2.78
X6.055Y-4.635
X6.065Y-4.75
X6.08Y-2.5365
X6.0801Y-3.7448
X6.0807Y-3.7775
X6.0825Y-3.4344
X6.0999Y-3.4929
X6.11Y-3.175
X6.1175Y-3.7387
X6.1215Y-3.495
X6.1394Y-3.2165
X6.15Y-5.325
X6.165Y-5.105
X6.165Y-5.135
X6.1784Y-2.8973
X6.1825Y-3.4875
X6.1958Y-3.4713
X6.2Y-3.57
X6.2Y-3.935
X6.2Y-4.6
X6.2Y-4.65
X6.2Y-4.8
X6.2057Y-2.514
X6.225Y-5.135
X6.24Y-2.68
X6.245Y-3.4725
X6.255Y-4.375
X6.255Y-4.4
X6.255Y-4.425
X6.262Y-5.106
X6.265Y-3.49
X6.2875Y-3.205
X6.2934Y-3.5075
X6.305Y-3.155
X6.315Y-5.175
X6.3274Y-4.8912
X6.34Y-4.375
X6.34Y-4.4
X6.34Y-4.425
X6.3425Y-4.65
X6.38Y-4.52
X6.3853Y-3.5955
X6.3975Y-3.5775
X6.4Y-4.54
X6.42Y-3.29
X6.425Y-3.635
X6.4253Y-3.5547
X6.4269Y-3.5321
X6.4375Y-4.65
X6.4475Y-2.7975
X6.475Y-2.815
X6.475Y-4.65
X6.48Y-3.8275
X6.495Y-3.335
X6.495Y-4.395
X6.5Y-2.645
X6.5Y-2.815
X6.51Y-4.7525
X6.52Y-4.8
X6.525Y-2.645
X6.525Y-2.815
X6.53Y-4.415
X6.54Y-4.82
X6.55Y-4.435
X6.5625Y-3.81
X6.565Y-4.7775
X6.5733Y-3.5928
X6.575Y-3.62
X6.575Y-3.65
X6.58Y-3.185
X6.58Y-3.215
X6.5832Y-3.8134
X6.6575Y-3.735
X6.665Y-4.7725
X6.665Y-5.13
X6.67Y-2.93
X6.7Y-3.565
X6.7125Y-3.68
X6.72Y-3.5
X6.7219Y-2.9135
X6.725Y-5.13
X6.7275Y-5.4175
X6.735Y-3.45
X6.744Y-4.932
X6.7534Y-3.6686
X6.759Y-3.49
X6.765Y-3.45
X6.78Y-3.49
X6.785Y-3.815
X6.785Y-3.84
X6.8Y-3.175
X6.8Y-4.99
X6.815Y-3.72
X6.84Y-3.665
X6.8425Y-4.675
X6.845Y-3.01
X6.8583Y-3.6184
X6.87Y-3.265
X6.8718Y-3.586
X6.894Y-3.9215
X6.895Y-3.805
X6.8956Y-3.826
X6.9Y-3.265
X6.9034Y-3.403
X6.9129Y-3.9123
X6.9254Y-3.3285
X6.935Y-3.255
X6.94Y-2.725
X6.9422Y-4.0478
X6.9422Y-2.8206
X6.944Y-3.8777
X6.945Y-3.9272
X6.95Y-3.74
X6.95Y-5.225
X6.955Y-3.225
X6.9581Y-4.6422
X6.9599Y-4.7654
X6.9656Y-3.3067
X6.9725Y-3.3925
X6.975Y-5.205
X6.9886Y-2.9603
X6.995Y-5.025
X6.996Y-5.205
X7.0009Y-2.9183
X7.01Y-3.115
X7.025Y-2.85
X7.04Y-3.525
X7.0475Y-4.7
X7.0494Y-5.3606
X7.06Y-2.825
X7.075Y-5.36
X7.0825Y-3.8425
X7.094Y-3.975
X7.0949Y-2.9775
X7.1Y-5.36
X7.105Y-3.83
X7.1063Y-4.75
X7.1089Y-2.995
X7.1225Y-4.9475
X7.1305Y-3.0853
X7.1325Y-3.2301
X7.14Y-4.545
X7.1445Y-3.1292
X7.1464Y-3.196
X7.1538Y-3.2326
X7.1724Y-3.2216
X7.1795Y-3.1364
X7.1808Y-3.276
X7.1825Y-5.4175
X7.185Y-4.59
X7.1854Y-3.1702
X7.1863Y-3.2557
X7.197Y-3.1208
X7.2372Y-2.6103
X7.25Y-2.845
X7.25Y-2.89
X7.2524Y-2.6274
X7.275Y-2.575
X7.3025Y-2.6
X7.3375Y-5.125
X7.3475Y-4.75
X7.365Y-5.38
X7.3725Y-4.4175
X7.4Y-5.025
X7.525Y-4.885
X7.54Y-4.57
X7.54Y-4.595
X7.555Y-4.3
X7.555Y-4.77
X7.5746Y-4.2379
X7.5801Y-4.5426
X7.59Y-2.185
X7.5961Y-4.5566
X7.615Y-2.155
X7.7Y-3.5
X7.725Y-3.5
X7.825Y-4.85
X7.825Y-4.95
X7.825Y-4.9775
X7.9335Y-4.8444
X7.9475Y-4.9494
X7.95Y-4.975
X7.9535Y-3.479
X7.9535Y-3.5
T2
X4.625Y-4.7
X4.724Y-4.6987
X4.84Y-4.9
X5.0215Y-3.7986
X5.0342Y-2.6084
X5.1Y-3.
X5.1Y-3.15
X5.13Y-3.425
X5.25Y-4.9
X5.265Y-2.59
X5.34Y-2.6
X5.34Y-2.75
X5.34Y-2.9
X5.345Y-2.5
X5.345Y-3.8
X5.39Y-2.545
X5.405Y-2.5
X5.43Y-4.9
X5.465Y-4.5717
X5.47Y-4.45
X5.5255Y-3.2799
X5.56Y-3.235
X5.57Y-3.77
X5.5943Y-2.5705
X5.625Y-3.865
X5.6255Y-4.124
X5.66Y-2.8
X5.6807Y-3.275
X5.7Y-3.305
X5.7Y-4.115
X5.775Y-4.51
X5.79Y-4.115
X5.815Y-3.235
X5.84Y-2.75
X5.84Y-2.9
X5.8409Y-4.75
X5.8409Y-4.8999
X5.88Y-3.865
X5.8925Y-4.0875
X5.8935Y-2.6
X5.9Y-2.99
X5.9172Y-4.5045
X5.9257Y-3.5807
X5.945Y-4.115
X5.955Y-5.325
X5.965Y-2.51
X6.0482Y-4.6969
X6.05Y-2.99
X6.0741Y-3.633
X6.0902Y-3.8898
X6.1Y-4.005
X6.12Y-3.255
X6.135Y-2.49
X6.1545Y-2.8034
X6.1879Y-3.0012
X6.2Y-3.2595
X6.2Y-3.655
X6.235Y-2.8
X6.235Y-3.765
X6.2772Y-2.6
X6.315Y-4.
X6.34Y-2.825
X6.345Y-4.75
X6.3487Y-4.9109
X6.35Y-3.65
X6.35Y-5.05
X6.3609Y-3.8456
X6.405Y-5.325
X6.445Y-4.75
X6.58Y-4.355
X6.605Y-3.725
X6.68Y-2.675
X6.685Y-3.63
X6.69Y-2.81
X6.75Y-2.6
X6.75Y-3.4
X6.78Y-3.3589
X6.8189Y-4.0114
X6.819Y-3.9383
X6.8405Y-2.8255
X6.8434Y-4.8998
X6.85Y-5.05
X6.855Y-5.325
X6.8923Y-4.1
X6.8923Y-4.435
X6.938Y-3.6216
X6.98Y-2.595
X6.985Y-4.435
X7.Y-3.44
X7.02Y-3.86
X7.032Y-3.5631
X7.04Y-2.55
X7.085Y-3.89
X7.115Y-4.
X7.15Y-3.47
X7.19Y-3.88
X7.1925Y-3.7
X7.245Y-3.795
X7.305Y-5.325
X7.34Y-4.9
X7.35Y-5.05
X7.4Y-3.2
X7.405Y-4.5
X7.46Y-3.35
X7.495Y-3.18
X7.51Y-2.88
X7.53Y-5.
X7.55Y-3.178
X7.55Y-4.825
X7.6963Y-3.2037
X7.85Y-4.9
X7.85Y-5.05
X7.852Y-4.7
X7.8531Y-4.6
X7.8531Y-4.7
X7.8531Y-4.8
T3
X5.Y-2.025
X5.Y-2.125
X5.1Y-2.025
X5.1Y-2.125
X5.2Y-2.025
X5.2Y-2.125
X5.3Y-2.025
X5.3Y-2.125
X5.4Y-2.025
X5.4Y-2.125
X5.5Y-2.025
X5.5Y-2.125
X5.6Y-2.025
X5.6Y-2.125
X5.7Y-2.025
X5.7Y-2.125
X5.8Y-2.025
X5.8Y-2.125
X5.9Y-2.025
X5.9Y-2.125
X6.Y-2.025
X6.Y-2.125
X6.1Y-2.025
X6.1Y-2.125
X6.2Y-2.025
X6.2Y-2.125
X6.3Y-2.025
X6.3Y-2.125
X6.4Y-2.025
X6.4Y-2.125
X6.5Y-2.025
X6.5Y-2.125
X6.6Y-2.025
X6.6Y-2.125
X6.7Y-2.025
X6.7Y-2.125
X6.8Y-2.025
X6.8Y-2.125
X6.9Y-2.025
X6.9Y-2.125
X7.Y-2.025
X7.Y-2.125
X7.1Y-2.025
X7.1Y-2.125
X7.2Y-2.025
X7.2Y-2.125
X7.3Y-2.025
X7.3Y-2.125
X7.4Y-2.025
X7.4Y-2.125
X7.5Y-2.025
X7.5Y-2.125
X5.Y-2.225
X5.Y-2.325
X5.1Y-2.225
X5.1Y-2.325
X5.2Y-2.225
X5.2Y-2.325
X5.3Y-2.225
X5.3Y-2.325
X5.4Y-2.225
X5.4Y-2.325
X5.5Y-2.225
X5.5Y-2.325
X5.6Y-2.225
X5.6Y-2.325
X5.7Y-2.225
X5.7Y-2.325
X5.8Y-2.225
X5.8Y-2.325
X5.9Y-2.225
X5.9Y-2.325
X6.Y-2.225
X6.Y-2.325
X6.1Y-2.225
X6.1Y-2.325
X6.2Y-2.225
X6.2Y-2.325
X6.3Y-2.225
X6.3Y-2.325
X6.4Y-2.225
X6.4Y-2.325
X6.5Y-2.225
X6.5Y-2.325
X6.6Y-2.225
X6.6Y-2.325
X6.7Y-2.225
X6.7Y-2.325
X6.8Y-2.225
X6.8Y-2.325
X6.9Y-2.225
X6.9Y-2.325
X7.Y-2.225
X7.Y-2.325
X7.1Y-2.225
X7.1Y-2.325
X7.2Y-2.225
X7.2Y-2.325
X7.3Y-2.225
X7.3Y-2.325
X7.4Y-2.225
X7.4Y-2.325
X7.5Y-2.225
X7.5Y-2.325
T4
X7.4Y-3.65
X7.4Y-3.75
X7.4Y-3.85
X7.4Y-3.95
X7.4Y-4.05
X7.4Y-4.15
X7.4Y-4.25
X7.4Y-4.35
X7.5Y-3.65
X7.5Y-3.75
X7.5Y-3.85
X7.5Y-3.95
X7.5Y-4.05
X7.5Y-4.15
X7.5Y-4.25
X7.5Y-4.35
T0
M30
